<?xml version="1.0" encoding="utf-8"?>
<!-- Generator: Adobe Illustrator 16.0.0, SVG Export Plug-In . SVG Version: 6.00 Build 0)  -->
<!DOCTYPE svg PUBLIC "-//W3C//DTD SVG 1.1//EN" "http://www.w3.org/Graphics/SVG/1.1/DTD/svg11.dtd">
<svg version="1.1" id="图层_1" xmlns="http://www.w3.org/2000/svg" xmlns:xlink="http://www.w3.org/1999/xlink" x="0px" y="0px"
	 width="812.562px" height="626.24px" viewBox="0 0 812.562 626.24" enable-background="new 0 0 812.562 626.24"
	 xml:space="preserve">
<g>
	<path fill="#9ED96A" d="M645.405,620.285c-56.336,0-161.105-86.184-161.105-167.693V290.232l16.02-0.267
		c0.338,0,36.099-0.763,72.997-15.735c37.842-15.377,62.252-33.028,62.479-33.195l9.565-6.965l9.646,6.965
		c0.23,0.178,24.639,17.818,62.48,33.195c36.898,14.973,72.657,15.735,73.035,15.735l15.944,0.267l0.073,162.359
		C806.548,534.093,701.779,620.285,645.405,620.285L645.405,620.285L645.405,620.285z M516.832,321.353v131.233
		c0,63.02,91.264,135.166,128.573,135.166c37.319,0,128.575-72.146,128.575-135.166V321.353
		c-15.947-1.724-41.831-6.078-68.717-16.991c-27.553-11.204-48.478-23.381-59.868-30.636c-11.351,7.255-32.302,19.432-59.828,30.636
		C558.664,315.281,532.768,319.629,516.832,321.353L516.832,321.353L516.832,321.353z M636.788,513.598l-68.405-58.27l21.036-24.75
		l43.884,37.357l83.286-95.949l24.593,21.337L636.788,513.598L636.788,513.598L636.788,513.598z M636.788,513.598"/>
</g>
<g>
	<path fill="none" d="M303.607,308.354l-18.851-10.771l-0.712,0.594l19.563,11.178c44.472,22.238,75.111,69.358,78.191,130.352h0.06
		C379.066,378.227,348.323,330.715,303.607,308.354z"/>
	<path fill="none" d="M91.204,439.706L91.204,439.706l0.109,0.001c5.842-58.227,36.496-105.344,83.736-130.352l19.563-11.178
		l-0.713-0.594l-18.85,10.771C127.538,333.507,96.793,381.018,91.204,439.706z"/>
	<path fill="none" d="M239.33,109.933c-53.104,0-97.819,44.721-97.819,97.817c0,0.161,0.006,0.319,0.006,0.48
		c0.292-52.868,44.883-97.297,97.813-97.297c52.926,0,97.518,44.429,97.809,97.297c0.001-0.161,0.007-0.319,0.007-0.48
		C337.146,154.653,292.43,109.933,239.33,109.933z"/>
	<path fill="none" d="M446.135,266.441c-8.383,0-16.768,8.378-16.768,16.762c0,8.385,8.385,16.767,16.768,16.767h1.727v-33.528
		H446.135z"/>
	<path fill="none" d="M446.135,353.07c-8.383,0-16.768,8.385-16.768,16.77c0,8.387,8.385,16.768,16.768,16.768h1.727V353.07H446.135
		z"/>
	<path fill="none" d="M331.557,291.588c19.563-25.146,30.74-53.094,30.74-83.838c0-69.869-55.894-125.763-125.762-125.763
		c-69.87,0-125.768,55.894-125.768,125.763c0,30.744,11.182,61.482,33.538,83.838c-49.379,33.783-79.424,86.902-83.393,148.118
		h30.291c5.589-58.688,36.334-106.199,83.846-131.352l18.85-10.771l-16.059-13.381c-22.355-19.557-36.33-44.709-36.33-75.453
		c0-0.174,0.006-0.346,0.006-0.52c0-0.161-0.006-0.319-0.006-0.48c0-53.097,44.715-97.817,97.819-97.817
		c53.1,0,97.815,44.721,97.815,97.817c0,0.161-0.006,0.319-0.007,0.48c0.001,0.174,0.007,0.346,0.007,0.52
		c0,30.744-13.974,55.896-36.333,75.453l-16.056,13.381l18.851,10.771c44.716,22.36,75.459,69.872,78.251,131.353h27.53
		C405.584,376.015,375.863,322.863,331.557,291.588z"/>
	<path fill="none" d="M645.348,190.393l11.826,8.539c0.112,0.087,4.877,3.53,13.447,8.818h7.477c8.386,0,16.77-8.383,16.77-16.768
		c0-8.384-8.384-16.767-16.77-16.767H446.135c-8.383,0-16.768,8.383-16.768,16.767c0,8.385,8.385,16.768,16.768,16.768h174.029
		c8.577-5.293,13.345-8.737,13.455-8.818L645.348,190.393z"/>
	<path fill="#9ED96A" d="M447.861,386.607h-1.727c-8.383,0-16.768-8.381-16.768-16.768c0-8.385,8.385-16.77,16.768-16.77h1.727
		V299.97h-1.727c-8.383,0-16.768-8.382-16.768-16.767c0-8.384,8.385-16.762,16.768-16.762h1.727v-7.188l19.643-0.324
		c0.414,0,44.263-0.936,89.506-19.295c28.043-11.395,50.054-23.801,63.154-31.885H446.135c-8.383,0-16.768-8.383-16.768-16.768
		c0-8.384,8.385-16.767,16.768-16.767h231.963c8.386,0,16.77,8.383,16.77,16.767c0,8.385-8.384,16.768-16.77,16.768h-7.477
		c13.101,8.083,35.114,20.487,63.164,31.885c10.089,4.095,20.107,7.32,29.592,9.864V80.628
		c-2.793-41.922-30.74-75.459-64.277-75.459H67.487c-33.537,0-61.484,33.537-61.484,75.459v394.059
		c0,41.919,27.947,75.457,61.484,75.457h412.167c-19.294-28.908-31.793-60.639-31.793-91.811V386.607z M381.858,439.707h-0.06
		c-3.08-60.993-33.72-108.113-78.191-130.352l-19.563-11.178l0.712-0.594l-0.712-0.406l16.768-13.975
		c22.242-19.455,36.181-44.448,36.326-74.973c-0.291-52.868-44.883-97.297-97.809-97.297c-52.931,0-97.521,44.429-97.813,97.297
		c0.146,30.524,14.086,55.518,36.324,74.973l16.771,13.975l-0.713,0.406l0.713,0.594l-19.563,11.178
		c-47.24,25.008-77.895,72.125-83.736,130.352h-0.109l0,0l-30.291-0.001c3.969-61.216,34.014-114.335,83.393-148.118
		c-22.356-22.355-33.538-53.094-33.538-83.838c0-69.869,55.897-125.763,125.768-125.763c69.868,0,125.762,55.894,125.762,125.763
		c0,30.744-11.178,58.691-30.74,83.838c44.307,31.275,74.027,84.427,77.832,148.119H381.858z"/>
	<path fill="#9ED96A" d="M337.146,208.75c0-0.174-0.006-0.346-0.007-0.52c-0.146,30.524-14.084,55.518-36.326,74.973l-16.768,13.975
		l0.712,0.406l16.056-13.381C323.172,264.646,337.146,239.494,337.146,208.75z"/>
	<path fill="#9ED96A" d="M177.841,284.203l16.059,13.381l0.713-0.406l-16.771-13.975c-22.238-19.455-36.178-44.448-36.324-74.973
		c0,0.174-0.006,0.346-0.006,0.52C141.511,239.494,155.485,264.646,177.841,284.203z"/>
</g>
</svg>
