<?xml version="1.0" encoding="utf-8"?>
<!-- Generator: Adobe Illustrator 16.0.0, SVG Export Plug-In . SVG Version: 6.00 Build 0)  -->
<!DOCTYPE svg PUBLIC "-//W3C//DTD SVG 1.1//EN" "http://www.w3.org/Graphics/SVG/1.1/DTD/svg11.dtd">
<svg version="1.1" id="图层_1" xmlns="http://www.w3.org/2000/svg" xmlns:xlink="http://www.w3.org/1999/xlink" x="0px" y="0px"
	 width="785.563px" height="608.241px" viewBox="0 0 785.563 608.241" enable-background="new 0 0 785.563 608.241"
	 xml:space="preserve">
<g>
	<path fill="#9ED96A" d="M619.242,599.538c-56.336,0-161.105-86.184-161.105-167.693V269.485l16.02-0.266
		c0.338,0,36.1-0.764,72.998-15.736c37.842-15.377,62.251-33.027,62.479-33.195l9.564-6.965l9.646,6.965
		c0.231,0.178,24.64,17.818,62.48,33.195c36.898,14.973,72.657,15.736,73.036,15.736l15.943,0.266l0.073,162.359
		C780.385,513.347,675.617,599.538,619.242,599.538L619.242,599.538L619.242,599.538z M490.67,300.606v131.232
		c0,63.02,91.264,135.166,128.572,135.166c37.32,0,128.575-72.146,128.575-135.166V300.606
		c-15.946-1.725-41.831-6.078-68.716-16.992c-27.553-11.203-48.479-23.381-59.869-30.635c-11.351,7.254-32.301,19.432-59.828,30.635
		C532.502,294.534,506.605,298.882,490.67,300.606L490.67,300.606L490.67,300.606z M610.625,492.851l-68.404-58.27l21.035-24.75
		l43.885,37.357l83.285-95.949l24.594,21.338L610.625,492.851L610.625,492.851L610.625,492.851z M610.625,492.851"/>
</g>
<g>
	<path fill="none" d="M524.297,226.862l97.689-96.636c8.727-8.724,8.727-22.855,0-31.582c-8.695-8.727-22.859-8.727-31.582,0
		l-77.418,76.574l-66.811,66.811l0.172-0.004C446.724,242.024,483.59,241.239,524.297,226.862z"/>
	<path fill="none" d="M404.041,284.163v-0.262c-12.039,11.484-28.125,18.758-46.066,18.758c-16.723,0-31.528-6.746-43.273-16.867
		v1.16l-146.26-146.227l1.075-0.668L128.31,98.644c-8.727-8.727-22.86-8.727-31.586,0c-8.727,8.727-8.727,22.858,0,31.582
		l141.313,142.101L96.724,413.636c-8.727,8.727-8.727,22.863,0,31.586c8.726,8.727,22.886,8.727,31.586,0l141.223-141.199
		l36.935,37.113c1.832,2.094,3.754,4.039,5.847,5.902l2.388,2.387v-0.438c11.516,9.309,25.941,15.094,41.873,15.094
		c18.561,0,35.338-7.563,47.467-19.746v1.48l22.996-22.748v-61.9L404.041,284.163z"/>
	<path fill="#9ED96A" d="M427.037,323.067l-22.996,22.748v-1.48c-12.129,12.184-28.906,19.746-47.467,19.746
		c-15.932,0-30.357-5.785-41.873-15.094v0.438l-2.388-2.387c-2.093-1.863-4.015-3.809-5.847-5.902l-36.935-37.113L128.31,445.222
		c-8.7,8.727-22.86,8.727-31.586,0c-8.727-8.723-8.727-22.859,0-31.586l141.313-141.309L96.724,130.226
		c-8.727-8.724-8.727-22.855,0-31.582c8.726-8.727,22.859-8.727,31.586,0l41.207,41.414l-1.075,0.668l146.26,146.227v-1.16
		c11.745,10.121,26.551,16.867,43.273,16.867c17.941,0,34.027-7.273,46.066-18.758v0.262l22.996-22.996v-18.82l19.139-0.318
		l66.811-66.811l77.418-76.574c8.723-8.727,22.887-8.727,31.582,0c8.727,8.727,8.727,22.858,0,31.582l-97.689,96.636
		c3.328-1.176,6.682-2.439,10.045-3.805c45.617-18.537,75.041-39.814,75.314-40.016l11.53-8.395l11.626,8.395
		c0.279,0.215,29.701,21.479,75.317,40.016c2.878,1.168,5.751,2.264,8.606,3.291V48.593c0-24.664-20.008-44.673-44.672-44.673
		H46.672C22.008,3.92,2,23.929,2,48.593v446.71c0,24.66,20.008,44.668,44.672,44.668h419.888
		c-23.586-31.412-39.523-67.014-39.523-101.908V323.067z"/>
</g>
</svg>
