<?xml version="1.0" encoding="utf-8"?>
<!-- Generator: Adobe Illustrator 16.0.0, SVG Export Plug-In . SVG Version: 6.00 Build 0)  -->
<!DOCTYPE svg PUBLIC "-//W3C//DTD SVG 1.1//EN" "http://www.w3.org/Graphics/SVG/1.1/DTD/svg11.dtd">
<svg version="1.1" id="图层_1" xmlns="http://www.w3.org/2000/svg" xmlns:xlink="http://www.w3.org/1999/xlink" x="0px" y="0px"
	 width="436.08px" height="653.239px" viewBox="0 0 436.08 653.239" enable-background="new 0 0 436.08 653.239"
	 xml:space="preserve">
<g>
	<path fill="#9ED96A" d="M269.085,648.646c-56.34,0-161.109-86.184-161.109-167.693V318.593l16.02-0.267
		c0.338,0,36.099-0.763,72.997-15.735c37.846-15.377,62.255-33.028,62.482-33.195l9.565-6.965l9.645,6.965
		c0.23,0.178,24.639,17.818,62.48,33.195c36.898,14.973,72.658,15.735,73.035,15.735l15.945,0.267l0.072,162.359
		C430.228,562.453,325.458,648.646,269.085,648.646L269.085,648.646L269.085,648.646z M140.508,349.713v131.233
		c0,63.02,91.266,135.166,128.577,135.166c37.318,0,128.574-72.146,128.574-135.166V349.713
		c-15.947-1.724-41.83-6.078-68.716-16.991c-27.553-11.204-48.478-23.381-59.868-30.636c-11.352,7.255-32.303,19.432-59.832,30.636
		C182.34,343.642,156.443,347.989,140.508,349.713L140.508,349.713L140.508,349.713z M260.468,541.958l-68.409-58.27l21.036-24.75
		l43.887,37.357l83.287-95.949l24.593,21.337L260.468,541.958L260.468,541.958L260.468,541.958z M260.468,541.958"/>
</g>
<g>
	<polygon fill="none" points="44.016,489.263 44.016,489.224 43.976,489.224 43.976,489.263 74.938,489.354 74.938,489.353 	"/>
	<polygon fill="none" points="232.801,22.727 149.161,22.727 149.323,49.926 232.801,49.605 	"/>
	<path fill="none" d="M74.874,486.169V290.452l19.311-0.32c0.407,0,43.515-0.919,87.994-18.967
		c45.617-18.537,75.045-39.814,75.318-40.016l11.53-8.396l11.626,8.396c0.245,0.188,22.996,16.628,59.457,33.189l-0.438-203.88
		V60.38v-0.039L152.446,60.06l-3.123-10.134l3.083,10.173L44.617,60.38l-0.602,428.843l30.921,0.092
		C74.908,488.267,74.874,487.218,74.874,486.169z"/>
	<path fill="#272636" d="M74.938,489.353c0-0.012,0-0.025-0.001-0.037l-30.921-0.092v0.039L74.938,489.353z"/>
	<path fill="#9ED96A" d="M43.976,489.263v-0.039h0.04L44.617,60.38l107.789-0.281l-3.083-10.173l-0.162-27.199h83.64v26.878
		l-83.478,0.321l3.123,10.134l187.227,0.281v0.039v0.302v-0.224l0.438,203.88c5.035,2.287,10.326,4.576,15.86,6.826
		c7.628,3.095,15.216,5.686,22.556,7.855V60.983c0,0,4.568-54.877-50.752-57.961H155.612h-4.648H55.393
		c0,0-48.469-2.524-48.39,48.387V566.29c0,0,0,45.055,45.984,48.418h84.123c-34.656-36.063-60.957-81.153-62.173-125.354
		L43.976,489.263z"/>
	<polygon fill="#272636" points="339.673,60.682 339.673,60.38 339.673,60.458 	"/>
</g>
</svg>
