<svg xmlns="http://www.w3.org/2000/svg" xmlns:xlink="http://www.w3.org/1999/xlink" width="20" height="1360" viewBox="0 0 20 1360"><svg width="20" height="20" viewBox="90 90 20 20" id="alert_error" y="0"><path fill="#7B5555" d="M100.01 90.812c5.073 0 9.205 4.132 9.205 9.206 0 5.072-4.132 9.205-9.205 9.205-5.074 0-9.206-4.133-9.206-9.205 0-5.074 4.113-9.206 9.206-9.206m0-.818a10.014 10.014 0 0 0-10.024 10.024c0 5.544 4.48 10.024 10.024 10.024 5.544 0 10.024-4.48 10.024-10.024 0-5.544-4.501-10.024-10.024-10.024zm4.625 14.076l-4.052-4.052 4.052-4.05a.399.399 0 0 0 0-.573.396.396 0 0 0-.573 0l-4.052 4.05-4.05-4.05a.397.397 0 0 0-.573 0 .397.397 0 0 0 0 .573l4.03 4.05-4.05 4.052a.396.396 0 0 0 0 .572.4.4 0 0 0 .573 0l4.05-4.051 4.05 4.051c.164.162.409.162.572 0a.38.38 0 0 0 .023-.572z"></path></svg><svg width="20" height="20" viewBox="90 90 20 20" id="alert_success" y="20"><path fill="#627C57" d="M93.784 100.039a.562.562 0 1 1 .784-.806l3.753 3.65 7.083-6.979a.564.564 0 0 1 .789.802l-7.476 7.365a.561.561 0 0 1-.786.003l-4.147-4.035zm6.203-10.04a9.957 9.957 0 0 1 7.062 2.927 9.958 9.958 0 0 1 2.927 7.062 9.954 9.954 0 0 1-2.927 7.062 9.958 9.958 0 0 1-7.062 2.926 9.958 9.958 0 0 1-7.061-2.926A9.953 9.953 0 0 1 90 99.988c0-2.758 1.118-5.255 2.926-7.062S97.23 90 99.987 90zm6.356 3.633a8.957 8.957 0 0 0-6.355-2.633 8.96 8.96 0 0 0-6.356 2.633 8.963 8.963 0 0 0-2.633 6.356 8.963 8.963 0 0 0 2.633 6.355 8.956 8.956 0 0 0 6.356 2.634 8.951 8.951 0 0 0 6.355-2.634 8.957 8.957 0 0 0 2.633-6.355 8.958 8.958 0 0 0-2.633-6.356z"></path></svg><svg width="20" height="20" viewBox="90 90 20 20" id="alert_warning" y="40"><path fill="#6F613E" d="M109.83 106.266l-8.782-14.013a1.235 1.235 0 0 0-1.047-.565c-.429 0-.83.216-1.049.565l-8.78 14.013c-.233.371-.23.83.008 1.198.224.345.613.55 1.04.55h17.563c.427 0 .815-.205 1.038-.55.238-.368.241-.826.009-1.198zm-8.707-.486c0 .13-.041.256-.117.356a.372.372 0 0 1-.286.146H99.32a.366.366 0 0 1-.285-.146.57.57 0 0 1-.119-.356v-.834c0-.129.04-.258.119-.355a.366.366 0 0 1 .285-.147h1.399c.102 0 .206.049.286.147a.584.584 0 0 1 .117.355v.834zm-.12-2.738a.455.455 0 0 1-.285.097l-1.39-.007a.457.457 0 0 1-.284-.096.315.315 0 0 1-.118-.238l-.009-2.357v-3.705c0-.084.04-.17.118-.237a.456.456 0 0 1 .285-.098h1.397c.103 0 .207.034.285.098.08.066.118.153.118.237v3.677l.003 2.39a.316.316 0 0 1-.12.239z"></path></svg><svg width="20" height="20" viewBox="0 0 20 20" id="apply-certificate" y="60"><g fill="#828282"><path d="M9.26 16.682a.665.665 0 0 0 .532.139.68.68 0 0 0 .459-.306l4.472-7.071a.68.68 0 0 0-.207-.936.686.686 0 0 0-.93.209l-4.07 6.435-2.608-2.1a.672.672 0 0 0-.948.107.682.682 0 0 0 .106.952l3.194 2.571z"></path><path d="M15.433 2.656h-1.345V2.13h-1.603C12.203 1.059 11.284 0 10.033 0 8.798 0 7.798 1.07 7.514 2.13H5.911v.526H4.568c-1.812 0-3.229 1.391-3.229 3.167v10.93c0 1.79 1.448 3.247 3.229 3.247h10.864c1.781 0 3.229-1.457 3.229-3.248V5.822c.001-1.776-1.418-3.166-3.228-3.166zm-2.61.713V5.87h-5.7V3.369h1.616v-.762c0-.707.617-1.351 1.295-1.351.711 0 1.191.699 1.191 1.351v.762h1.598zm-8.255.559h1.343v3.215h8.177V3.928h1.345c1.048 0 1.934.867 1.934 1.894v10.93c0 1.054-.904 1.978-1.934 1.978H4.568c-1.055 0-2.016-.942-2.016-1.978V5.822c.001-1.009.943-1.894 2.016-1.894z"></path></g></svg><svg width="20" height="20" viewBox="0 0 20 20" id="apply-certificate-hover" y="80"><g fill="#2389D0"><path d="M9.26 16.682a.665.665 0 0 0 .532.139.68.68 0 0 0 .459-.306l4.472-7.071a.68.68 0 0 0-.207-.936.686.686 0 0 0-.93.209l-4.07 6.435-2.608-2.1a.672.672 0 0 0-.948.107.682.682 0 0 0 .106.952l3.194 2.571z"></path><path d="M15.433 2.656h-1.345V2.13h-1.603C12.203 1.059 11.284 0 10.033 0 8.798 0 7.798 1.07 7.514 2.13H5.911v.526H4.568c-1.812 0-3.229 1.391-3.229 3.167v10.93c0 1.79 1.448 3.247 3.229 3.247h10.864c1.781 0 3.229-1.457 3.229-3.248V5.822c.001-1.776-1.418-3.166-3.228-3.166zm-2.61.713V5.87h-5.7V3.369h1.616v-.762c0-.707.617-1.351 1.295-1.351.711 0 1.191.699 1.191 1.351v.762h1.598zm-8.255.559h1.343v3.215h8.177V3.928h1.345c1.048 0 1.934.867 1.934 1.894v10.93c0 1.054-.904 1.978-1.934 1.978H4.568c-1.055 0-2.016-.942-2.016-1.978V5.822c.001-1.009.943-1.894 2.016-1.894z"></path></g></svg><svg width="20" height="20" viewBox="90.098 90 20 20" id="attention" y="100"><path fill="#555" d="M100.11 90c-5.53 0-10.013 4.483-10.013 10.012 0 5.53 4.483 10.013 10.013 10.013s10.013-4.483 10.013-10.013S105.64 90 100.11 90zm6.462 16.474a9.098 9.098 0 0 1-6.462 2.676 9.094 9.094 0 0 1-6.462-2.676 9.112 9.112 0 0 1-2.677-6.462 9.1 9.1 0 0 1 2.677-6.462 9.096 9.096 0 0 1 6.462-2.677 9.1 9.1 0 0 1 6.462 2.677c.84.84 1.5 1.817 1.96 2.906a9.075 9.075 0 0 1 .717 3.557 9.088 9.088 0 0 1-2.677 6.462zm-6.472-9.53a.437.437 0 0 0-.437.437v9.63a.438.438 0 1 0 .874 0v-9.63a.437.437 0 0 0-.437-.436zm-.863-2.053a.874.874 0 1 0 1.747 0 .874.874 0 0 0-1.747 0z"></path></svg><svg width="20" height="20" viewBox="93.125 90 20 20" id="certificate" y="120"><path fill="#828282" d="M106.51 95.413a.659.659 0 0 0 0-.59c-.142-.244-.46-.332-.897-.332h-7.939c-.674 0-.975.325-.975.645 0 .208.125.395.343.507.163.083.377.225.632.225h7.941c.436 0 .753-.211.896-.455zm-9.814 2.518c0 .207.124.434.34.547.165.083.377.144.63.144h6.101l.103-.147c.187-.203.386-.422.587-.58l.782-.65h-7.572c-.67 0-.97.367-.97.686zm13.208-.576c.195.093.415.196.594.312l.56.346v-6.187c0-1.1-.982-1.467-1.606-1.467H95.001c-.622 0-1.847.367-1.847 1.467v16.333c0 1.107 1.227 1.481 1.849 1.481h14.45c1.135 0 1.605-.874 1.605-1.481v-1.462l-.808-.741-.57.266v1.949s.01.043-.047.102c-.035.038-.088-.01-.18-.01h-14.45c-.068 0-.471.136-.471-.104V91.826c0-.057.214-.09.47-.09h14.45c.096 0 .229-.118.229.09v5.435l.223.094zm3.127 8.455l-2.443-2.385a3.71 3.71 0 0 0 .59-2.01c0-2.105-1.762-3.812-3.936-3.812-2.175 0-3.936 1.707-3.936 3.813s1.761 3.813 3.936 3.813c.938 0 1.798-.318 2.475-.85l2.388 2.33a.336.336 0 0 0 .464 0l.465-.45a.31.31 0 0 0-.003-.449zm-8.632-4.37c0-1.528 1.279-2.767 2.857-2.767 1.577 0 2.853 1.239 2.853 2.766 0 1.529-1.276 2.767-2.853 2.767-1.578 0-2.857-1.238-2.857-2.767z"></path></svg><svg width="20" height="20" viewBox="93.125 90 20 20" id="certificate-hover" y="140"><path fill="#2389D0" d="M106.495 95.413a.663.663 0 0 0 0-.59c-.143-.245-.46-.334-.897-.334h-7.952c-.675 0-.977.326-.977.646 0 .208.126.396.344.508.164.083.377.226.633.226h7.953c.437 0 .753-.211.896-.456zm-9.828 2.522c0 .209.124.434.341.548.164.083.376.144.63.144h6.11l.103-.146c.189-.205.388-.424.588-.582l.785-.652h-7.586c-.67 0-.97.367-.97.688zm13.23-.578c.194.095.413.197.592.313l.56.346V91.82c0-1.1-.98-1.468-1.607-1.468H94.97c-.624 0-1.85.367-1.85 1.468v16.358c0 1.11 1.229 1.484 1.851 1.484h14.471c1.137 0 1.607-.875 1.607-1.484v-1.463l-.807-.743-.571.268v1.95s.01.042-.048.104c-.036.038-.087-.012-.18-.012H94.97c-.068 0-.473.137-.473-.104V91.82c0-.057.216-.09.473-.09h14.471c.096 0 .229-.118.229.09v5.443l.225.094zm3.132 8.469l-2.45-2.389c.374-.584.59-1.272.59-2.011 0-2.11-1.763-3.82-3.94-3.82s-3.942 1.71-3.942 3.82c0 2.108 1.765 3.818 3.941 3.818.94 0 1.802-.318 2.48-.85l2.391 2.333a.338.338 0 0 0 .464 0l.466-.45a.312.312 0 0 0 0-.451zm-8.646-4.376c0-1.531 1.28-2.772 2.858-2.772 1.58 0 2.86 1.24 2.86 2.772 0 1.53-1.28 2.77-2.86 2.77-1.577 0-2.858-1.243-2.858-2.77z"></path></svg><svg width="20" height="20" viewBox="246 0 20 20" id="cs" y="160"><path fill="#C3C6CB" d="M216.376 8.709c-.276-.083-.466-.142-.321-.51.313-.801.346-1.492.006-1.984-.636-.924-2.375-.875-4.367-.025 0-.001-.627.279-.467-.226.307-1.004.26-1.844-.216-2.329-1.081-1.102-3.957.042-6.425 2.551-1.846 1.88-2.918 3.873-2.918 5.596 0 3.295 4.151 5.5 8.214 5.5 5.324 0 8.867-3.35 8.867-5.85-.001-1.511-1.25-2.368-2.373-2.723zm-6.484 7.096c-3.241.321-6.039-1.152-6.25-3.292-.211-2.139 2.247-4.135 5.488-4.457 3.242-.323 6.041 1.15 6.25 3.29.21 2.14-2.246 4.136-5.488 4.459zm11.77-9.779A6.028 6.028 0 0 0 215.634 0a.703.703 0 1 0 0 1.407 4.622 4.622 0 0 1 4.622 4.622.702.702 0 1 0 1.406 0v-.003zm-2.794-.104a4.028 4.028 0 0 0-3.129-3.127.702.702 0 0 0-.283 1.378 2.617 2.617 0 0 1 2.034 2.033.703.703 0 1 0 1.378-.284zm-10.638 4.229c-1.306.263-2.187 1.357-1.968 2.446.219 1.088 1.455 1.757 2.761 1.495 1.305-.263 2.186-1.357 1.967-2.446-.219-1.088-1.455-1.758-2.76-1.495zM252.875 14.13c-2.634.105-3.901 3.966-4.809 5.87h5.913l-.56-5.844a2.904 2.904 0 0 0-.544-.026zm1.097-6.367c-.533 0-.96.357-.96.798 0 .44.427.797.96.797s.967-.356.967-.797c0-.44-.434-.798-.967-.798zm3.614-3.42c1.395 1.871 3.002 2.642 3.002 2.642-.188-3.24-1.665-4.364-4.729-4.38-3.663-.02-5.487 2.794-4.685 5.713 0 0 6.36-2.639 6.412-3.975zm-1.988 8.803c-.29.027-.537.231-.524.43l.045.654c.012.199.289.35.578.324l.935-.087c.29-.027.543-.231.53-.43l-.043-.641c-.014-.2-.29-.357-.58-.33l-.941.08zm6.031-2.542c1.14-.292 1.988-.275 1.988-2.61A2.697 2.697 0 0 0 261.99 5.5c-.703-2.66-2.89-5.364-6.174-5.44a8.772 8.772 0 0 0-.313 0c-3.18.083-5.361 2.544-5.606 5.397-1.011.374-1.773 1.369-1.739 2.536.077 2.62 1.148 2.663 2.574 2.692V5.614c.03-2.169 2.153-4.573 5.084-4.573 2.912 0 4.522 2.266 5.232 4.28v5.215c-.142.335-.526.713-1.226 1.39-.914.881-2.23 1.338-2.23 1.338-.154.033-.261.238-.22.412.045.174.231.278.375.212 0 0 1.388-.454 2.43-1.459 1.03-.994 1.449-1.815 1.451-1.825zm-2.33 3.39a1.98 1.98 0 0 0-.728.174L258.023 20h5.911c-.88-1.839-2.361-6.092-4.636-6.006zm-2.305 1.29h-1.982c-.135 0-.255.064-.248.143l.323 4.573h1.825l.318-4.573c.008-.08-.1-.144-.236-.144zm2-6.723c0-.44-.434-.798-.967-.798-.532 0-.964.357-.964.798 0 .44.432.797.964.797.533 0 .967-.356.967-.797z"></path></svg><svg width="20" height="20" viewBox="246 0 20 20" id="cs_hover" y="180"><path fill="#C3C6CB" d="M216.376 8.709c-.276-.083-.466-.142-.321-.51.313-.801.346-1.492.006-1.984-.636-.924-2.375-.875-4.367-.025 0-.001-.627.279-.467-.226.307-1.004.26-1.844-.216-2.329-1.081-1.102-3.957.042-6.425 2.551-1.846 1.88-2.918 3.873-2.918 5.596 0 3.295 4.151 5.5 8.214 5.5 5.324 0 8.867-3.35 8.867-5.85-.001-1.511-1.25-2.368-2.373-2.723zm-6.484 7.096c-3.241.321-6.039-1.152-6.25-3.292-.211-2.139 2.247-4.135 5.488-4.457 3.242-.323 6.041 1.15 6.25 3.29.21 2.14-2.246 4.136-5.488 4.459zm11.77-9.779A6.028 6.028 0 0 0 215.634 0a.703.703 0 1 0 0 1.407 4.622 4.622 0 0 1 4.622 4.622.702.702 0 1 0 1.406 0v-.003zm-2.794-.104a4.028 4.028 0 0 0-3.129-3.127.702.702 0 0 0-.283 1.378 2.617 2.617 0 0 1 2.034 2.033.703.703 0 1 0 1.378-.284zm-10.638 4.229c-1.306.263-2.187 1.357-1.968 2.446.219 1.088 1.455 1.757 2.761 1.495 1.305-.263 2.186-1.357 1.967-2.446-.219-1.088-1.455-1.758-2.76-1.495z"></path><path fill="#FFF" d="M252.875 14.13c-2.634.105-3.901 3.966-4.809 5.87h5.913l-.56-5.844a2.904 2.904 0 0 0-.544-.026zm1.097-6.367c-.533 0-.96.357-.96.798 0 .44.427.797.96.797s.967-.356.967-.797c0-.44-.434-.798-.967-.798zm3.614-3.42c1.395 1.871 3.002 2.642 3.002 2.642-.188-3.24-1.665-4.364-4.729-4.38-3.663-.02-5.487 2.794-4.685 5.713 0 0 6.36-2.639 6.412-3.975zm-1.988 8.803c-.29.027-.537.231-.524.43l.045.654c.012.199.289.35.578.324l.935-.087c.29-.027.543-.231.53-.43l-.043-.641c-.014-.2-.29-.357-.58-.33l-.941.08zm6.031-2.542c1.14-.292 1.988-.275 1.988-2.61A2.697 2.697 0 0 0 261.99 5.5c-.703-2.66-2.89-5.364-6.174-5.44a8.772 8.772 0 0 0-.313 0c-3.18.083-5.361 2.544-5.606 5.397-1.011.374-1.773 1.369-1.739 2.536.077 2.62 1.148 2.663 2.574 2.692V5.614c.03-2.169 2.153-4.573 5.084-4.573 2.912 0 4.522 2.266 5.232 4.28v5.215c-.142.335-.526.713-1.226 1.39-.914.881-2.23 1.338-2.23 1.338-.154.033-.261.238-.22.412.045.174.231.278.375.212 0 0 1.388-.454 2.43-1.459 1.03-.994 1.449-1.815 1.451-1.825zm-2.33 3.39a1.98 1.98 0 0 0-.728.174L258.023 20h5.911c-.88-1.839-2.361-6.092-4.636-6.006zm-2.305 1.29h-1.982c-.135 0-.255.064-.248.143l.323 4.573h1.825l.318-4.573c.008-.08-.1-.144-.236-.144zm2-6.723c0-.44-.434-.798-.967-.798-.532 0-.964.357-.964.798 0 .44.432.797.964.797.533 0 .967-.356.967-.797z"></path></svg><svg width="20" height="20" viewBox="90 90 20 20" id="delete-auth" y="200"><path fill="#747474" d="M100.013 110.025a9.974 9.974 0 0 1-7.08-2.931A9.974 9.974 0 0 1 90 100.012a9.98 9.98 0 0 1 2.933-7.08 9.974 9.974 0 0 1 7.08-2.932 9.96 9.96 0 0 1 3.898.787 9.965 9.965 0 0 1 3.182 2.146 9.974 9.974 0 0 1 2.932 7.08 9.985 9.985 0 0 1-.785 3.898 10.009 10.009 0 0 1-2.147 3.183c-.919.918-1.99 1.64-3.182 2.146a9.984 9.984 0 0 1-3.898.785zm0-19.216a9.145 9.145 0 0 0-3.583.723 9.19 9.19 0 0 0-2.925 1.973 9.194 9.194 0 0 0-1.973 2.925c-.48 1.135-.723 2.34-.723 3.583s.243 2.448.723 3.582a9.194 9.194 0 0 0 1.973 2.925 9.173 9.173 0 0 0 6.508 2.696 9.174 9.174 0 0 0 6.507-2.696 9.17 9.17 0 0 0 2.696-6.507 9.173 9.173 0 0 0-2.696-6.508 9.197 9.197 0 0 0-2.925-1.973 9.145 9.145 0 0 0-3.582-.723zm6.743 9.617H92.949a.405.405 0 1 1 0-.81h13.807a.405.405 0 1 1 0 .81z"></path></svg><svg width="20" height="20" viewBox="90 90 20 20" id="delete-auth-hover" y="220"><path fill="#2389D0" d="M100.007 110.015a9.952 9.952 0 0 1-7.076-2.931A9.963 9.963 0 0 1 90 100.009a9.96 9.96 0 0 1 2.931-7.076A9.961 9.961 0 0 1 100.007 90a9.956 9.956 0 0 1 7.076 2.931 9.983 9.983 0 0 1 2.93 7.077c0 1.35-.263 2.66-.786 3.895a9.986 9.986 0 0 1-2.144 3.18 9.978 9.978 0 0 1-7.076 2.931zm0-19.205a9.138 9.138 0 0 0-3.58.723 9.157 9.157 0 0 0-2.924 1.971 9.155 9.155 0 0 0-1.971 2.924 9.142 9.142 0 0 0-.724 3.58 9.165 9.165 0 0 0 2.694 6.505 9.192 9.192 0 0 0 2.925 1.971 9.141 9.141 0 0 0 3.58.723 9.143 9.143 0 0 0 3.58-.723 9.21 9.21 0 0 0 2.924-1.97 9.16 9.16 0 0 0 2.694-6.505 9.159 9.159 0 0 0-2.694-6.505 9.172 9.172 0 0 0-6.504-2.694zm6.74 9.611h-13.8a.404.404 0 1 1 0-.809h13.8a.404.404 0 1 1 0 .81z"></path></svg><svg width="20" height="20" viewBox="90 90 20 20" id="delete-certificate" y="240"><path fill="#ACACAC" d="M108.638 91.961l-1.646.002c-.026-.003-.053-.009-.081-.009-.03 0-.056.006-.085.009l-5.664.003v-1.014a.92.92 0 0 0-.921-.91c-.082 0-.15.007-.222.012-.077-.005-.15-.013-.239-.013a.91.91 0 0 0-.91.911l.004 1.015-5.524.002a.79.79 0 0 0-.421.001H91.3c-.502 0-.851.202-.851.705 0 .502.349.778.851.778h1.056l.008 14.76c.04.966.77 1.736 1.747 1.736h.911v.01l10.018-.006v-.004h.91c1.005 0 1.72-.81 1.723-1.815l-.01-14.688h.975c.503 0 .91-.276.91-.78 0-.503-.408-.705-.91-.705zm-2.504 14.654c.006 1.195-.224 1.637-1.033 1.77l-10.347.005c-.506-.107-.752-.367-.852-.925l-.008-14.012 12.24-.007.006 14.937-.006-1.768zm-8.408-11.602a.765.765 0 0 0-.765.765v10.327a.764.764 0 1 0 1.53 0V95.778a.765.765 0 0 0-.765-.765zm4.59 0a.765.765 0 0 0-.764.765v10.327a.765.765 0 1 0 1.53 0V95.778a.765.765 0 0 0-.766-.765z"></path></svg><svg width="20" height="20" viewBox="90 90 20 20" id="disable-button" y="260"><path fill="#828282" d="M100 110c5.522 0 10-4.478 10-10 0-5.523-4.478-10-10-10-5.523 0-10 4.477-10 10 0 5.522 4.477 10 10 10zm0-1.429a8.571 8.571 0 1 1 0-17.143A8.57 8.57 0 0 1 108.57 100 8.57 8.57 0 0 1 100 108.57zM92.96 94.01l13.133 13.131 1.01-1.01L93.971 93l-1.01 1.01z"></path></svg><svg width="20" height="20" viewBox="90 90 20 20" id="disabled-button-hover" y="280"><path fill="#D35047" d="M100.01 110.02c5.527 0 10.01-4.483 10.01-10.01 0-5.53-4.483-10.01-10.01-10.01C94.48 90 90 94.48 90 100.01c0 5.527 4.48 10.01 10.01 10.01zm0-1.431a8.58 8.58 0 1 1-.001-17.16 8.58 8.58 0 0 1 0 17.16zm-7.046-14.576l13.144 13.145 1.012-1.012-13.146-13.144-1.01 1.011z"></path></svg><svg width="20" height="20" viewBox="90 90 20 20" id="domain_pending" y="300"><path fill="#91C4E8" d="M104.098 91.757c0-.912.733-1.654 1.65-1.654.91 0 1.65.728 1.65 1.654v16.485a1.649 1.649 0 1 1-3.3 0V91.757zm-10.995 0c0-.912.732-1.654 1.65-1.654.91 0 1.649.728 1.649 1.654v16.485c0 .913-.733 1.654-1.65 1.654-.91 0-1.65-.73-1.65-1.654V91.757z"></path></svg><svg width="20" height="20" viewBox="90 90 20 20" id="domain_refused" y="320"><path fill="#91C4E8" d="M109.505 107.352l-7.486-7.432 7.066-7.065c.633-.632.633-1.634 0-2.214-.631-.632-1.636-.632-2.215 0l-7.065 7.064-6.695-6.748c-.632-.633-1.634-.633-2.214 0-.632.633-.632 1.634 0 2.215l6.695 6.694-7.117 7.117c-.632.633-.632 1.633 0 2.215.633.633 1.635.633 2.214 0l7.117-7.065 7.434 7.435c.633.633 1.634.633 2.216 0 .633-.579.633-1.583.05-2.216z"></path></svg><svg width="20" height="20" viewBox="90 90 20 20" id="domain_working" y="340"><path fill="#FFF" d="M107.539 93.248l-10.445 10.474-4.623-4.714a1.441 1.441 0 0 0-2.027-.027 1.41 1.41 0 0 0-.028 2.008l5.641 5.753c.003.006.009.006.012.009.003.003.004.011.007.011.091.093.206.148.313.21.055.03.098.074.153.097a1.454 1.454 0 0 0 1.077.002c.057-.023.1-.068.152-.096.108-.06.218-.113.31-.204.003 0 .004-.009.008-.009a.028.028 0 0 1 .013-.011l11.475-11.504c.555-.56.55-1.458-.013-2.009a1.44 1.44 0 0 0-2.025.01z"></path></svg><svg width="20" height="20" viewBox="161.484 0 20 20" id="down_arrow" y="360"><path fill="#2389D0" d="M162.022 6.605l9.484 9.574s0-.09 9.485-9.574c.63-.64.63-1.915-.01-2.545-.642-.73-1.644-.73-2.468 0l-7.018 6.928-7.017-6.928c-.824-.73-1.826-.73-2.456 0-.734.633-.644 1.904 0 2.545z"></path></svg><svg width="20" height="20" viewBox="246 0 20 20" id="feedback" y="380"><g fill="#C3C6CB"><path d="M246 .169v19.662h16.122V.169H246zm2.067 2.64h4.438v.97h-4.438v-.97zm0 3.086h8.581v.969h-8.581v-.969zm12.057 7.137h-12.058v-.969h12.058v.969zm0-3.084h-12.058v-.969h12.058v.969z"></path><path fill-rule="evenodd" clip-rule="evenodd" d="M263.78 2.747h2.221v14.506h-2.221zM264.889 19.831l-1.109-2.106H266zM266 2.281h-2.221V.509c0-.453 2.221-.453 2.221 0v1.772z"></path></g></svg><svg width="20" height="20" viewBox="246 0 20 20" id="feedback_hover" y="400"><g fill="#FFF"><path d="M246 .169v19.662h16.122V.169H246zm2.067 2.64h4.438v.97h-4.438v-.97zm0 3.086h8.581v.969h-8.581v-.969zm12.057 7.137h-12.058v-.969h12.058v.969zm0-3.084h-12.058v-.969h12.058v.969z"></path><path fill-rule="evenodd" clip-rule="evenodd" d="M263.78 2.747h2.221v14.506h-2.221zM264.889 19.831l-1.109-2.106H266zM266 2.281h-2.221V.509c0-.453 2.221-.453 2.221 0v1.772z"></path></g></svg><svg width="20" height="20" viewBox="246 0 20 20" id="github" y="420"><path fill="#C3C6CB" d="M259.971 20.031v-3.738c0-1.256-.41-2.074-.9-2.483 3.002-.354 6.194-1.446 6.194-6.63 0-1.474-.519-2.674-1.364-3.603.137-.354.572-1.691-.166-3.546 0 0-1.09-.355-3.654 1.364-1.092-.3-2.292-.491-3.41-.491-1.147 0-2.348.191-3.412.491-2.592-1.719-3.684-1.364-3.684-1.364-.736 1.855-.3 3.192-.164 3.546-.846.928-1.365 2.129-1.365 3.603 0 5.185 3.193 6.276 6.194 6.63-.381.328-.736.955-.873 1.828-.764.327-2.756.955-3.957-1.119 0 0-.709-1.282-2.046-1.364 0 0-1.337-.027-.109.817 0 0 .9.41 1.501 1.965 0 0 .818 2.593 4.583 1.774v2.319h6.632z"></path></svg><svg width="20" height="20" viewBox="246 0 20 20" id="github_hover" y="440"><path fill="#FFF" d="M259.971 20.031v-3.738c0-1.256-.41-2.074-.9-2.483 3.002-.354 6.194-1.446 6.194-6.63 0-1.474-.519-2.674-1.364-3.603.137-.354.572-1.691-.166-3.546 0 0-1.09-.355-3.654 1.364-1.092-.3-2.292-.491-3.41-.491-1.147 0-2.348.191-3.412.491-2.592-1.719-3.684-1.364-3.684-1.364-.736 1.855-.3 3.192-.164 3.546-.846.928-1.365 2.129-1.365 3.603 0 5.185 3.193 6.276 6.194 6.63-.381.328-.736.955-.873 1.828-.764.327-2.756.955-3.957-1.119 0 0-.709-1.282-2.046-1.364 0 0-1.337-.027-.109.817 0 0 .9.41 1.501 1.965 0 0 .818 2.593 4.583 1.774v2.319h6.632z"></path></svg><svg width="20" height="20" viewBox="90 90 20 20" id="icon_calender" y="460"><path fill="#C0BFBF" d="M97.182 91.176h5.656v.68h-5.656v-.68zm12.716.68v-.68h-4.255v.68h3.577v3.28H90.78v-3.28h3.574v-.68H90.1V110h19.798V91.855zM90.78 109.322V95.814h18.44v13.509H90.78zM95.417 90h.679v3.484h-.679V90zm8.507 0h.68v3.484h-.68V90zm-8.511 10.617v.763a6.856 6.856 0 0 0 1.324-1.004v5.537h.802v-6.901h-.482a6.282 6.282 0 0 1-1.644 1.605zm8.685 2.306a3.226 3.226 0 0 0-.32-.762c-.147-.253-.382-.453-.703-.603a2.686 2.686 0 0 0-1.003-.239c-.349-.013-.722.074-1.123.26a16.07 16.07 0 0 0 .401-1.725h2.568v-.721h-3.17c-.455 2.14-.709 3.29-.762 3.45l.682.08c.213-.293.487-.48.823-.562.332-.08.635-.08.902 0 .267.081.488.24.662.482.173.24.266.536.282.883.012.346-.041.662-.162.943-.12.28-.322.509-.603.68-.28.175-.646.222-1.101.141-.456-.08-.778-.481-.963-1.203l-.722.2c.133.641.38 1.097.741 1.365s.742.415 1.143.441c.402.027.756-.02 1.064-.14.307-.12.569-.282.781-.482.215-.2.374-.455.484-.762a3.18 3.18 0 0 0 .179-.902 2.724 2.724 0 0 0-.08-.824z"></path></svg><svg width="20" height="20" viewBox="93.125 90 20 20" id="icon_config_guide" y="480"><path fill="#52ACD9" d="M106.502 95.444a.659.659 0 0 0 0-.59c-.142-.245-.46-.334-.898-.334H97.66c-.674 0-.977.326-.977.645 0 .209.126.396.344.508.164.084.378.226.633.226h7.947c.437 0 .754-.21.896-.455zm-9.821 2.52c0 .208.124.434.341.547.164.083.375.144.63.144h6.103l.105-.146c.187-.204.386-.424.587-.583l.783-.65h-7.578c-.671.001-.971.368-.971.687zm13.218-.577c.195.094.413.195.593.312l.562.346v-6.191c0-1.1-.983-1.467-1.608-1.467H94.985c-.623 0-1.849.367-1.849 1.467v16.345c0 1.108 1.229 1.483 1.851 1.483h14.458c1.136 0 1.609-.878 1.609-1.483v-1.465l-.81-.74-.57.265v1.95s.01.045-.048.104c-.035.037-.088-.01-.18-.01H94.987c-.069 0-.473.135-.473-.104V91.854c0-.057.215-.09.473-.09h14.458c.097 0 .23-.118.23.09v5.439l.224.094zm3.129 8.461l-2.447-2.387a3.7 3.7 0 0 0 .591-2.01c0-2.108-1.764-3.816-3.939-3.816-2.174 0-3.938 1.708-3.938 3.816 0 2.107 1.764 3.815 3.938 3.815.94 0 1.8-.317 2.478-.848l2.39 2.33a.337.337 0 0 0 .464 0l.464-.45a.31.31 0 0 0-.001-.45zm-8.638-4.373c0-1.53 1.28-2.769 2.857-2.769 1.579 0 2.857 1.24 2.857 2.77 0 1.527-1.278 2.767-2.857 2.767-1.577 0-2.857-1.24-2.857-2.768z"></path></svg><svg width="20" height="20" viewBox="93.125 90 20 20" id="icon_config_guide_hover" y="500"><path fill="#2389D0" d="M106.538 95.393a.659.659 0 0 0 0-.592c-.142-.246-.46-.334-.9-.334h-7.974c-.677 0-.98.326-.98.647 0 .209.127.397.345.51.165.083.38.226.635.226h7.977c.437 0 .754-.212.897-.457zm-9.855 2.529c0 .209.124.436.341.549.165.084.378.145.633.145h6.126l.103-.146c.19-.206.388-.426.59-.584l.787-.654h-7.606c-.673 0-.974.37-.974.69zm13.265-.579c.195.094.415.196.595.313l.563.347V91.79c0-1.104-.987-1.473-1.612-1.473H94.98c-.625 0-1.855.369-1.855 1.473v16.404c0 1.113 1.233 1.487 1.857 1.487h14.51c1.142 0 1.614-.878 1.614-1.487v-1.469l-.811-.744-.572.268v1.956s.01.044-.05.103c-.034.038-.086-.01-.179-.01H94.982c-.068 0-.474.136-.474-.104V91.79c0-.057.216-.09.474-.09h14.51c.097 0 .23-.12.23.09v5.459l.226.094zm3.14 8.492l-2.455-2.395a3.726 3.726 0 0 0 .593-2.017c0-2.117-1.77-3.831-3.953-3.831s-3.952 1.714-3.952 3.83c0 2.115 1.77 3.83 3.952 3.83a4.01 4.01 0 0 0 2.486-.854l2.399 2.34a.336.336 0 0 0 .466 0l.465-.452a.312.312 0 0 0 0-.451zm-8.668-4.39c0-1.534 1.283-2.778 2.867-2.778 1.583 0 2.868 1.243 2.868 2.778s-1.285 2.78-2.868 2.78c-1.584 0-2.867-1.246-2.867-2.78z"></path></svg><svg width="20" height="20" viewBox="90 90 20 20" id="icon_dropdown" y="520"><path fill="#898989" d="M100.026 109.18a9.153 9.153 0 0 0 9.153-9.154 9.153 9.153 0 0 0-9.153-9.154 9.153 9.153 0 0 0-9.154 9.154 9.153 9.153 0 0 0 9.154 9.153zm0 .872c-5.537 0-10.026-4.489-10.026-10.026S94.488 90 100.026 90c5.537 0 10.026 4.488 10.026 10.026 0 5.537-4.489 10.026-10.026 10.026zm-5.434-11.91l5.113 5.547.321.348.32-.348 5.113-5.547-.642-.591-5.112 5.55h.64l-5.11-5.55-.643.591z"></path></svg><svg width="20" height="20" viewBox="90 90 20 20" id="icon_dropdown_hover" y="540"><path fill="#2389D0" d="M100.014 109.157a9.142 9.142 0 0 0 9.143-9.143 9.144 9.144 0 1 0-9.143 9.143zm0 .872c-5.53 0-10.014-4.484-10.014-10.015C90 94.484 94.483 90 100.014 90c5.53 0 10.015 4.483 10.015 10.014 0 5.53-4.484 10.015-10.015 10.015zm-5.427-11.896l5.107 5.54.32.35.32-.35 5.106-5.54-.64-.59-5.106 5.542h.64l-5.106-5.543-.64.59z"></path></svg><svg width="20" height="20" viewBox="90 90 20 20" id="icon_dropup" y="560"><path fill="#898989" d="M99.99 90.868a9.12 9.12 0 0 0-9.121 9.12 9.12 9.12 0 1 0 18.24 0 9.12 9.12 0 0 0-9.12-9.12zm0-.868c5.516 0 9.987 4.472 9.987 9.988 0 5.518-4.471 9.99-9.988 9.99-5.517 0-9.99-4.474-9.99-9.99S94.473 90 99.99 90zm5.413 11.865l-5.414-5.873-5.413 5.873.639.59 5.093-5.528h-.638l5.093 5.528.64-.59z"></path></svg><svg width="20" height="20" viewBox="90 90 20 20" id="icon_dropup_hover" y="580"><path fill="#2389D0" d="M100.02 90.87a9.15 9.15 0 0 0 0 18.3 9.15 9.15 0 0 0 9.15-9.15 9.148 9.148 0 0 0-9.15-9.15zm0-.87c5.534 0 10.02 4.486 10.02 10.02 0 5.535-4.486 10.022-10.02 10.022S90 105.555 90 100.02C90 94.486 94.486 90 100.02 90zm5.43 11.904l-5.43-5.893-5.43 5.893.641.59 5.11-5.545H99.7l5.11 5.545.64-.59z"></path></svg><svg width="20" height="20" viewBox="161.484 0 20 20" id="icon_input_down" y="600"><path fill="#888" d="M161.999 6.693l9.509 9.598s0-.09 9.506-9.598c.635-.642.635-1.92-.009-2.551-.643-.733-1.648-.733-2.472 0l-7.036 6.944-7.036-6.944c-.826-.733-1.831-.733-2.462 0-.737.634-.646 1.909 0 2.551z"></path></svg><svg width="20" height="20" viewBox="161.484 0 20 20" id="icon_input_up" y="620"><path fill="#888" d="M180.968 13.19l-9.508-9.598s0 .09-9.506 9.597c-.635.643-.635 1.92.009 2.552.643.733 1.648.733 2.472 0l7.036-6.945 7.035 6.945c.827.733 1.832.733 2.462 0 .738-.635.647-1.909 0-2.552z"></path></svg><svg width="20" height="20" viewBox="90 90 20 20" id="icon_not_ok" y="640"><path fill="#F9354E" d="M100.02 90C94.486 90 90 94.486 90 100.02s4.486 10.02 10.02 10.02 10.02-4.486 10.02-10.02S105.555 90 100.02 90zm0 18.356a8.336 8.336 0 1 1 0-16.673 8.336 8.336 0 0 1 0 16.673zm3.517-11.853a.838.838 0 0 0-1.185 0l-2.332 2.333-2.332-2.333a.838.838 0 0 0-1.185 1.185l2.333 2.332-2.333 2.332a.838.838 0 1 0 1.185 1.185l2.332-2.332 2.332 2.332a.838.838 0 1 0 1.185-1.185l-2.332-2.332 2.332-2.332a.838.838 0 0 0 0-1.185z"></path></svg><svg width="20" height="20" viewBox="90 90 20 20" id="icon_ok" y="660"><path fill="#70C52C" d="M105.116 96.714a.777.777 0 0 0-.527-.212.788.788 0 0 0-.637.332l-5.296 5.586-2.607-2.812a.78.78 0 0 0-.574-.257.788.788 0 0 0-.598.284.963.963 0 0 0 .024 1.247l3.247 3.502a.779.779 0 0 0 .573.256h.05a.797.797 0 0 0 .585-.332l5.87-6.353c.273-.374.223-.931-.11-1.24zm4.157-.588a9.976 9.976 0 0 0-2.148-3.188A10.01 10.01 0 0 0 100.03 90a10.005 10.005 0 0 0-7.093 2.938A10.005 10.005 0 0 0 90 100.03a10.01 10.01 0 0 0 2.938 7.094 9.976 9.976 0 0 0 3.188 2.148c1.237.523 2.55.79 3.905.79a9.955 9.955 0 0 0 3.904-.79 9.98 9.98 0 0 0 3.19-2.148 9.98 9.98 0 0 0 2.148-3.19c.524-1.236.79-2.55.79-3.904a9.967 9.967 0 0 0-.79-3.905zm-3.298 9.85a8.356 8.356 0 0 1-5.944 2.461 8.354 8.354 0 0 1-5.944-2.462 8.354 8.354 0 0 1-2.462-5.944c0-2.245.875-4.356 2.462-5.944a8.353 8.353 0 0 1 5.944-2.462c2.245 0 4.356.875 5.944 2.462a8.354 8.354 0 0 1 2.462 5.944 8.356 8.356 0 0 1-2.462 5.944z"></path></svg><svg width="20" height="20" viewBox="90 90 20 20" id="operate-cross-log" y="680"><path fill="#828282" d="M104.94 106.975a2.32 2.32 0 1 0 0-4.64 2.32 2.32 0 0 0 0 4.64zm-.903 2.779v-1.091a4.017 4.017 0 0 1-1.176-.484l-.768.768-1.376-1.375.771-.77a4.094 4.094 0 0 1-.488-1.174h-1.156v-1.944H101c.1-.404.256-.784.46-1.132l-.812-.812 1.373-1.375.8.795a4.14 4.14 0 0 1 1.216-.514V99.56h1.944v1.087c.421.103.817.27 1.176.489l.769-.77 1.375 1.375-.769.77c.217.358.383.753.488 1.174h1.014v1.944h-1.014a4.143 4.143 0 0 1-.517 1.218l.727.726-1.375 1.375-.742-.743a4.019 4.019 0 0 1-1.132.459v1.09h-1.944zm.897-11.234v-7.294h-10.83l1.272-.98h10.467v8.419a6.07 6.07 0 0 0-.909-.145zm-10.83-7.294v2.46h-3.199l3.2-2.46zM90 109.263V94.385l.905-.7v14.599h8.998c.311.366.666.695 1.058.979H90z"></path></svg><svg width="20" height="20" viewBox="90 90 20 20" id="operate-cross-log-hover" y="700"><path fill="#2389D0" d="M104.891 106.953a2.312 2.312 0 1 0 .001-4.624 2.312 2.312 0 0 0 0 4.624zm-.899 2.77v-1.087a3.992 3.992 0 0 1-1.172-.484l-.766.767-1.372-1.371.769-.767a4.106 4.106 0 0 1-.486-1.17h-1.153v-1.938h1.153c.098-.404.255-.783.46-1.13l-.81-.809 1.367-1.37.797.792c.368-.23.777-.406 1.213-.512V99.56h1.937v1.084c.42.102.815.269 1.173.487l.766-.767 1.371 1.37-.767.768c.216.357.382.75.487 1.17h1.012v1.938h-1.012a4.15 4.15 0 0 1-.515 1.214l.725.724-1.37 1.37-.74-.74a3.987 3.987 0 0 1-1.13.458v1.086h-1.937zm.895-11.198v-7.27H94.09l1.268-.978h10.433v8.392a5.982 5.982 0 0 0-.905-.144zm-10.796-7.27v2.451h-3.189l3.189-2.452zM90 109.232v-14.83l.902-.697v14.55h8.97c.31.367.664.694 1.053.977H90z"></path></svg><svg width="20" height="20" viewBox="90 90 20 20" id="rewrite-config" y="720"><path fill="#828282" d="M107.962 109.958H91.996A1.993 1.993 0 0 1 90 107.962V91.996C90 90.89 90.89 90 91.996 90h11.31c.372 0 .665.293.665.665a.659.659 0 0 1-.666.665h-11.31a.659.659 0 0 0-.665.666v15.966a.66.66 0 0 0 .666.666h15.966a.66.66 0 0 0 .666-.666v-5.987c0-.372.293-.665.664-.665a.66.66 0 0 1 .666.665v5.987a1.993 1.993 0 0 1-1.996 1.996zM99.686 103a.997.997 0 0 1-1.423 0 .998.998 0 0 1 0-1.425l9.964-9.965c.4-.4 1.025-.4 1.425 0a.997.997 0 0 1 0 1.423L99.686 103z"></path></svg><svg width="20" height="20" viewBox="90 90 20 20" id="rewrite-config-hover" y="740"><path fill="#2389D0" d="M108.036 110.04H92.004A2.002 2.002 0 0 1 90 108.037V92.004c0-1.11.895-2.004 2.004-2.004h11.356c.374 0 .668.294.668.668a.662.662 0 0 1-.668.668H92.004a.661.661 0 0 0-.668.668v16.032c0 .375.294.669.668.669h16.032a.662.662 0 0 0 .669-.67v-6.01c0-.375.293-.669.668-.669.374 0 .668.294.668.67v6.01c0 1.11-.896 2.005-2.005 2.005zm-8.31-6.986c-.401.4-1.028.4-1.43 0a1 1 0 0 1 0-1.43l10.008-10.007a1 1 0 0 1 1.43 0 .999.999 0 0 1 0 1.429l-10.008 10.008z"></path></svg><svg width="20" height="20" viewBox="246 0 20 20" id="sina" y="760"><path fill="#C3C6CB" d="M260.709 10.068c-.276-.083-.466-.142-.321-.51.313-.801.346-1.492.006-1.984-.636-.924-2.375-.875-4.367-.025 0-.001-.627.279-.467-.226.307-1.004.26-1.844-.216-2.329-1.081-1.102-3.957.042-6.425 2.551-1.846 1.88-2.918 3.873-2.918 5.596 0 3.295 4.151 5.5 8.214 5.5 5.324 0 8.867-3.35 8.867-5.85-.001-1.511-1.25-2.368-2.373-2.723zm-6.484 7.096c-3.241.321-6.039-1.152-6.25-3.292-.211-2.139 2.247-4.135 5.488-4.457 3.242-.323 6.041 1.15 6.25 3.29.21 2.14-2.246 4.136-5.488 4.459zm11.77-9.779a6.028 6.028 0 0 0-6.028-6.026.703.703 0 1 0 0 1.407 4.622 4.622 0 0 1 4.622 4.622.702.702 0 1 0 1.406 0v-.003zm-2.794-.104a4.028 4.028 0 0 0-3.129-3.127.702.702 0 0 0-.283 1.378 2.617 2.617 0 0 1 2.034 2.033.703.703 0 1 0 1.378-.284zm-10.638 4.229c-1.306.263-2.187 1.357-1.968 2.446.219 1.088 1.455 1.757 2.761 1.495 1.305-.263 2.186-1.357 1.967-2.446-.219-1.088-1.455-1.758-2.76-1.495z"></path></svg><svg width="20" height="20" viewBox="246 0 20 20" id="sina_hover" y="780"><path fill="#FFF" d="M260.709 10.068c-.276-.083-.466-.142-.321-.51.313-.801.346-1.492.006-1.984-.636-.924-2.375-.875-4.367-.025 0-.001-.627.279-.467-.226.307-1.004.26-1.844-.216-2.329-1.081-1.102-3.957.042-6.425 2.551-1.846 1.88-2.918 3.873-2.918 5.596 0 3.295 4.151 5.5 8.214 5.5 5.324 0 8.867-3.35 8.867-5.85-.001-1.511-1.25-2.368-2.373-2.723zm-6.484 7.096c-3.241.321-6.039-1.152-6.25-3.292-.211-2.139 2.247-4.135 5.488-4.457 3.242-.323 6.041 1.15 6.25 3.29.21 2.14-2.246 4.136-5.488 4.459zm11.77-9.779a6.028 6.028 0 0 0-6.028-6.026.703.703 0 1 0 0 1.407 4.622 4.622 0 0 1 4.622 4.622.702.702 0 1 0 1.406 0v-.003zm-2.794-.104a4.028 4.028 0 0 0-3.129-3.127.702.702 0 0 0-.283 1.378 2.617 2.617 0 0 1 2.034 2.033.703.703 0 1 0 1.378-.284zm-10.638 4.229c-1.306.263-2.187 1.357-1.968 2.446.219 1.088 1.455 1.757 2.761 1.495 1.305-.263 2.186-1.357 1.967-2.446-.219-1.088-1.455-1.758-2.76-1.495z"></path></svg><svg width="20" height="20" viewBox="90 90 20 20" id="start-use" y="800"><path fill="#828282" d="M100 109.94c-5.125 0-9.294-4.17-9.294-9.294a9.272 9.272 0 0 1 4.226-7.79l.02-.014a.85.85 0 0 1 .105-.068l.03-.015a.898.898 0 0 1 1.295.804c0 .33-.19.638-.508.82l-.011.006-.01.008a7.49 7.49 0 0 0-3.353 6.25c0 4.134 3.364 7.498 7.5 7.498 4.135 0 7.5-3.364 7.5-7.499a7.489 7.489 0 0 0-3.353-6.25l-.018-.011c-.249-.145-.513-.437-.513-.822a.898.898 0 0 1 1.296-.803c.003.002.023.011.036.019.035.02.057.035.08.051l.014.008a9.267 9.267 0 0 1 4.25 7.808c0 5.124-4.168 9.293-9.292 9.293zm0-7.752a.898.898 0 0 1-.897-.896V90.958a.898.898 0 0 1 1.793 0v10.334a.897.897 0 0 1-.896.896z"></path></svg><svg width="20" height="20" viewBox="90 90 20 20" id="start-use-hover" y="820"><path fill="#2389D0" d="M100 109.935c-5.122 0-9.29-4.168-9.29-9.289a9.268 9.268 0 0 1 4.224-7.788l.02-.013a.85.85 0 0 1 .105-.068l.03-.015a.898.898 0 0 1 1.295.804c-.001.33-.191.637-.508.819l-.011.006-.01.008a7.487 7.487 0 0 0-3.352 6.247c0 4.133 3.364 7.494 7.497 7.494 4.134 0 7.497-3.36 7.497-7.494a7.488 7.488 0 0 0-3.35-6.247l-.02-.012c-.247-.145-.513-.437-.513-.822a.898.898 0 0 1 1.296-.803l.035.02a.77.77 0 0 1 .081.05l.014.01a9.262 9.262 0 0 1 4.249 7.804c0 5.121-4.167 9.29-9.29 9.29zm0-7.748a.897.897 0 0 1-.897-.896V90.96a.897.897 0 0 1 1.793 0v10.33a.898.898 0 0 1-.896.896z"></path></svg><svg width="20" height="20" viewBox="90 90 20 20" id="status_disable" y="840"><path fill="#D28D85" d="M100.02 90C94.486 90 90 94.486 90 100.02c0 5.531 4.486 10.019 10.02 10.019 5.532 0 10.02-4.488 10.02-10.02 0-5.533-4.487-10.02-10.02-10.02zm-4.58 16.328l-1.727-1.73 10.885-10.884 1.728 1.727-10.886 10.887z"></path></svg><svg width="20" height="20" viewBox="90 90 20 20" id="status_disable_hover" y="860"><path fill="#C4645A" d="M100.018 90C94.485 90 90 94.484 90 100.018c0 5.532 4.485 10.017 10.018 10.017 5.532 0 10.017-4.487 10.017-10.017 0-5.534-4.484-10.018-10.017-10.018zm-4.58 16.323l-1.725-1.728 10.883-10.882 1.727 1.727-10.884 10.883z"></path></svg><svg width="20" height="20" viewBox="90 90 20 20" id="status_invisible" y="880"><path fill="#B7B6B6" d="M100.035 90c5.544 0 10.036 4.493 10.036 10.035 0 5.544-4.492 10.036-10.036 10.036-5.542 0-10.035-4.492-10.035-10.036C90 94.493 94.493 90 100.035 90zm1.025 10.035l3.848-3.846a.725.725 0 1 0-1.027-1.026l-3.845 3.847-3.847-3.847a.725.725 0 1 0-1.026 1.026l3.847 3.845-3.847 3.846a.725.725 0 1 0 1.026 1.026l3.847-3.846 3.845 3.846a.725.725 0 1 0 1.027-1.025l-3.848-3.846z"></path></svg><svg width="20" height="20" viewBox="90.098 90 20 20" id="status_normal" y="900"><path fill="#83D0A3" d="M100.05 90c-5.496 0-9.953 4.456-9.953 9.953 0 5.496 4.457 9.953 9.954 9.953 5.496 0 9.953-4.457 9.953-9.953 0-5.497-4.457-9.953-9.953-9.953zm5.71 7.371l-6.438 6.437a.901.901 0 0 1-1.274 0l-3.706-3.706a.902.902 0 0 1 1.274-1.274l3.069 3.07 5.8-5.801a.902.902 0 0 1 1.275 1.274z"></path></svg><svg width="20" height="20" viewBox="90.098 90 20 20" id="status_normal_hover" y="920"><path fill="#4ABC70" d="M100.093 90c-5.52 0-9.996 4.475-9.996 9.995s4.475 9.995 9.996 9.995c5.52 0 9.995-4.475 9.995-9.995S105.613 90 100.093 90zm5.733 7.403l-6.464 6.463v.002a.905.905 0 0 1-1.28 0v-.002l-3.722-3.72a.905.905 0 0 1 1.28-1.28l3.081 3.083 5.826-5.826a.905.905 0 0 1 1.279 1.28z"></path></svg><svg width="20" height="20" viewBox="0 0 20 20" id="table-download" y="940"><g fill="#828282"><path d="M18.834 4.637h-4.95c-.385 0-.644.258-.644.644 0 .385.259.643.644.643h4.675V7.34h-4.675c-.385 0-.644.259-.644.644s.259.644.644.644h2.966v10.153H3.172V8.539h2.966c.385 0 .643-.258.643-.644 0-.385-.258-.643-.643-.643H1.441V5.836h4.675c.385 0 .644-.259.644-.644 0-.384-.259-.643-.644-.643h-4.95c-.527 0-1.097.42-1.097 1.098v1.795c0 .527.419 1.097 1.097 1.097h.72v10.363c0 .529.419 1.098 1.096 1.098h14.057c.527 0 1.097-.42 1.097-1.098V8.539h.698c.527 0 1.097-.419 1.097-1.097V5.647c0-.492-.564-1.01-1.097-1.01z"></path><path d="M6.548 12.141l2.936 2.936a.734.734 0 0 0 1.033-.001l2.935-2.937a.73.73 0 0 0 0-1.03.745.745 0 0 0-1.032-.001l-1.69 1.689V.729a.73.73 0 0 0-1.459 0v12.068l-1.69-1.688a.744.744 0 0 0-1.033 0 .733.733 0 0 0 0 1.032z"></path></g></svg><svg width="20" height="20" viewBox="0 0 20 20" id="table-download-hover" y="960"><g fill="#2389D0"><path d="M18.834 4.637h-4.95c-.385 0-.644.258-.644.644 0 .385.259.643.644.643h4.675V7.34h-4.675c-.385 0-.644.259-.644.644s.259.644.644.644h2.966v10.153H3.172V8.539h2.966c.385 0 .643-.258.643-.644 0-.385-.258-.643-.643-.643H1.441V5.836h4.675c.385 0 .644-.259.644-.644 0-.384-.259-.643-.644-.643h-4.95c-.527 0-1.097.42-1.097 1.098v1.795c0 .527.419 1.097 1.097 1.097h.72v10.363c0 .529.419 1.098 1.096 1.098h14.057c.527 0 1.097-.42 1.097-1.098V8.539h.698c.527 0 1.097-.419 1.097-1.097V5.647c0-.492-.564-1.01-1.097-1.01z"></path><path d="M6.548 12.141l2.936 2.936a.734.734 0 0 0 1.033-.001l2.935-2.937a.73.73 0 0 0 0-1.03.745.745 0 0 0-1.032-.001l-1.69 1.689V.729a.73.73 0 0 0-1.459 0v12.068l-1.69-1.688a.744.744 0 0 0-1.033 0 .733.733 0 0 0 0 1.032z"></path></g></svg><svg width="20" height="20" viewBox="90 0 20 20" id="table_addConfig" y="980"><path fill="#828282" d="M105.73 20.029h-8.595a6.42 6.42 0 0 1-6.448-6.447V3.552a3.547 3.547 0 0 1 3.582-3.58h4.298c.43 0 .716.285.716.715s-.286.717-.716.717H94.27c-1.147 0-2.15 1.002-2.15 2.149v10.029c0 2.722 2.293 5.014 5.016 5.014h8.595c1.147 0 2.15-1.003 2.15-2.15v-5.73c0-.43.287-.716.716-.716.43 0 .716.287.716.716v5.73a3.548 3.548 0 0 1-3.582 3.583zm2.866-14.327H100c-.43 0-.717-.286-.717-.716s.287-.716.717-.716h8.596c.43 0 .716.286.716.716s-.287.716-.716.716zM104.298 10c-.43 0-.716-.287-.716-.716V.687c0-.43.286-.716.716-.716s.716.286.716.716v8.597c0 .43-.287.716-.716.716z"></path></svg><svg width="20" height="20" viewBox="90 0 20 20" id="table_addConfig_hover" y="1000"><path fill="#2389D0" d="M105.7 20h-8.552a6.387 6.387 0 0 1-6.414-6.414V3.608A3.528 3.528 0 0 1 94.297.044h4.276c.428 0 .713.285.713.713 0 .427-.285.713-.713.713h-4.276c-1.14 0-2.137.997-2.137 2.138v9.977c0 2.709 2.28 4.99 4.988 4.99h8.552c1.14 0 2.139-.998 2.139-2.139v-5.701c0-.428.285-.713.712-.713s.713.285.713.713v5.701A3.53 3.53 0 0 1 105.7 20zm2.85-14.254h-8.552c-.427 0-.711-.285-.711-.713s.284-.712.711-.712h8.553c.427 0 .713.284.713.712s-.286.713-.713.713zm-4.274 4.276c-.428 0-.714-.285-.714-.712V.757c0-.428.286-.712.714-.712.426 0 .711.284.711.712V9.31c0 .427-.285.712-.71.712z"></path></svg><svg width="20" height="20" viewBox="90 90 20 20" id="table_analy" y="1020"><path fill="#ACACAC" d="M99.652 108.24c-.738 0-1.728-1.994-2.127-5.275h4.254c-.034.275-.077.527-.118.782l1.238.458c.015-.02.041-.049.056-.068.064-.384.128-.77.175-1.172h.821c.38-.423.83-.872 1.328-1.337h-2.032c.034-.551.054-1.107.054-1.663 0-.719-.033-1.435-.088-2.14h4.437c.146.552.227 1.128.258 1.718l.167-.112h1.176a9.568 9.568 0 0 0-.632-2.941v-.003h-.002c-1.396-3.595-4.883-6.155-8.965-6.155-5.306 0-9.623 4.316-9.623 9.622s4.317 9.623 9.623 9.623c.619 0 1.224-.065 1.809-.177a26.224 26.224 0 0 0-1.247-1.512c-.197.229-.388.351-.562.351zm2.255-6.612h-4.51a27.187 27.187 0 0 1-.056-1.663c0-.762.038-1.467.096-2.14h4.432a24.959 24.959 0 0 1 .038 3.803zm5.26-5.14h-4.095c-.245-1.806-.69-3.417-1.321-4.538a8.31 8.31 0 0 1 5.417 4.537zm-7.515-4.8c.683 0 1.627 1.824 2.065 4.8h-4.14c.434-3.006 1.372-4.8 2.075-4.8zm-2.1.261c-.63 1.122-1.075 2.735-1.32 4.538h-4.096a8.305 8.305 0 0 1 5.416-4.538zm-6.185 8.007c0-.738.105-1.449.287-2.13h4.438a26.501 26.501 0 0 0-.036 3.802h-4.52c-.111-.54-.169-1.1-.169-1.672zm.573 3.009h4.235c.228 1.98.685 3.773 1.362 4.992a8.314 8.314 0 0 1-5.597-4.992zm16.558-2.143c-3.318 2.211-5.16 5.16-5.16 5.16l-2.947-1.475-.738.738s2.578 2.584 3.684 4.422c1.474-2.572 4.054-6.634 6.634-8.843h-1.473v-.002z"></path></svg><svg width="20" height="20" viewBox="90 90 20 20" id="table_analy_hover" y="1040"><path fill="#2EA4D0" d="M99.669 108.28c-.742 0-1.736-2.004-2.137-5.3h4.275c-.035.276-.079.529-.12.785l1.243.461.057-.069c.066-.386.129-.772.175-1.177h.826c.383-.426.835-.877 1.336-1.343h-2.042c.033-.554.052-1.113.052-1.672 0-.721-.032-1.442-.09-2.15h4.46c.148.555.23 1.134.262 1.726l.167-.112h1.18a9.574 9.574 0 0 0-.634-2.955v-.003c-1.404-3.612-4.909-6.185-9.01-6.185-5.332 0-9.67 4.337-9.67 9.669 0 5.332 4.338 9.669 9.67 9.669.621 0 1.228-.065 1.818-.177a27.277 27.277 0 0 0-1.253-1.52c-.198.23-.39.353-.565.353zm2.266-6.643h-4.532a26.38 26.38 0 0 1-.057-1.672c0-.765.04-1.473.097-2.15h4.455a25.222 25.222 0 0 1 .037 3.822zm5.286-5.166h-4.116c-.247-1.813-.693-3.433-1.327-4.56a8.35 8.35 0 0 1 5.443 4.56zm-7.552-4.822c.686 0 1.634 1.832 2.075 4.822h-4.16c.436-3.019 1.379-4.822 2.085-4.822zm-2.11.262c-.633 1.127-1.08 2.748-1.326 4.56h-4.116a8.346 8.346 0 0 1 5.442-4.56zm-6.215 8.045c0-.741.106-1.455.289-2.14h4.459a26.482 26.482 0 0 0-.037 3.82h-4.54a8.29 8.29 0 0 1-.171-1.68zm.576 3.024h4.255c.229 1.99.688 3.791 1.37 5.016a8.352 8.352 0 0 1-5.625-5.016zm16.636-2.153c-3.332 2.223-5.181 5.184-5.181 5.184l-2.963-1.482-.742.742s2.59 2.597 3.702 4.443c1.48-2.585 4.073-6.664 6.665-8.885h-1.48v-.002z"></path></svg><svg width="20" height="20" viewBox="90 90 20 20" id="table_config" y="1060"><path fill="#828282" d="M103.007 109.691c-.366 0-.721-.15-.95-.402-.311-.342-1.3-1.233-2.11-1.233-.803 0-1.808.896-2.096 1.21a1.295 1.295 0 0 1-.942.396 1.17 1.17 0 0 1-.483-.098l-.026-.01-2.46-1.376-.024-.018a1.18 1.18 0 0 1-.397-1.426c.001-.005.227-.524.227-.999a2.611 2.611 0 0 0-2.608-2.607h-.104c-.411 0-.747-.366-.854-.932-.009-.046-.21-1.12-.21-1.967 0-.846.202-1.92.21-1.966.108-.574.451-.942.87-.932h.088a2.611 2.611 0 0 0 2.608-2.608c0-.474-.226-.993-.228-.998-.222-.5-.05-1.113.4-1.425l.025-.018 2.597-1.427.027-.01a1.32 1.32 0 0 1 1.42.293c.308.322 1.279 1.16 2.065 1.16.779 0 1.744-.821 2.051-1.137a1.313 1.313 0 0 1 1.421-.285l.028.012 2.507 1.394.025.017c.449.313.62.926.397 1.426-.002.004-.226.524-.226.998a2.61 2.61 0 0 0 2.607 2.608h.087c.42-.009.763.358.871.932.009.045.21 1.12.21 1.966 0 .847-.201 1.921-.21 1.967-.108.572-.451.94-.871.932h-.087a2.61 2.61 0 0 0-2.607 2.607c0 .475.224.994.227.999.222.499.051 1.113-.4 1.426l-.024.017-2.551 1.409-.026.012a1.18 1.18 0 0 1-.474.093zm-.078-1.199c.011.007.043.02.078.02h.004l2.382-1.319c-.056-.133-.32-.781-.32-1.458a3.795 3.795 0 0 1 3.59-3.784c.03-.158.185-1.05.185-1.722 0-.67-.156-1.562-.184-1.721a3.795 3.795 0 0 1-3.591-3.785c0-.677.264-1.327.321-1.459l-2.344-1.303h-.01a.182.182 0 0 0-.09.023c-.04.04-.378.385-.867.729-.722.507-1.405.765-2.031.765-.63 0-1.32-.263-2.047-.78a6.517 6.517 0 0 1-.871-.744.196.196 0 0 0-.09-.022h-.01l-2.427 1.333c.057.136.32.783.32 1.458a3.795 3.795 0 0 1-3.591 3.785c-.029.159-.185 1.052-.185 1.721 0 .67.156 1.564.185 1.722a3.795 3.795 0 0 1 3.591 3.784c0 .68-.265 1.331-.322 1.461l2.299 1.286h.005a.17.17 0 0 0 .077-.02c.043-.046.385-.41.88-.772.737-.54 1.438-.813 2.081-.813.65 0 1.356.277 2.097.828.498.369.843.74.885.787zm-2.974-4.803a3.477 3.477 0 0 1-3.472-3.472 3.477 3.477 0 0 1 3.472-3.474 3.478 3.478 0 0 1 3.474 3.474 3.477 3.477 0 0 1-3.474 3.472zm0-5.765a2.294 2.294 0 0 0-2.291 2.292 2.293 2.293 0 0 0 2.291 2.291 2.294 2.294 0 0 0 2.293-2.29 2.295 2.295 0 0 0-2.293-2.293z"></path></svg><svg width="20" height="20" viewBox="90 90 20 20" id="table_config_blue" y="1080"><path fill="#52ACD9" d="M103.003 109.447a1.306 1.306 0 0 1-.947-.403c-.311-.341-1.297-1.23-2.105-1.23-.802 0-1.803.892-2.09 1.205a1.29 1.29 0 0 1-1.422.298l-.026-.013-2.454-1.37-.024-.02a1.173 1.173 0 0 1-.395-1.42c.001-.005.226-.523.226-.995a2.605 2.605 0 0 0-2.601-2.602h-.087l-.016.001c-.41 0-.746-.365-.852-.93-.01-.044-.21-1.117-.21-1.961 0-.845.2-1.916.21-1.96.108-.573.45-.94.868-.93h.087a2.605 2.605 0 0 0 2.601-2.602c0-.472-.224-.99-.227-.996-.22-.498-.05-1.11.399-1.422l.025-.017 2.59-1.423.027-.01a1.317 1.317 0 0 1 1.416.293c.307.32 1.276 1.156 2.06 1.156.777 0 1.74-.819 2.045-1.134a1.313 1.313 0 0 1 1.417-.283l.027.012 2.503 1.389.023.017c.448.313.618.924.397 1.423-.001.004-.227.523-.227.995a2.606 2.606 0 0 0 2.603 2.601h.086c.417-.009.76.358.869.93.007.045.209 1.116.209 1.96 0 .845-.202 1.917-.21 1.962-.108.571-.45.938-.868.929h-.086a2.605 2.605 0 0 0-2.603 2.601c0 .473.226.99.227.996a1.173 1.173 0 0 1-.397 1.42l-.025.019-2.544 1.405-.027.013a1.199 1.199 0 0 1-.472.096zm-.078-1.2c.012.006.044.021.078.021 0 0 .003 0 .004-.003l2.376-1.312c-.058-.133-.32-.78-.32-1.454a3.784 3.784 0 0 1 3.581-3.775c.03-.158.185-1.048.185-1.717 0-.668-.154-1.558-.185-1.717a3.784 3.784 0 0 1-3.58-3.775c0-.675.263-1.323.32-1.455l-2.338-1.3h-.011a.186.186 0 0 0-.088.023c-.04.04-.379.384-.865.726-.722.508-1.403.765-2.027.765-.628 0-1.315-.262-2.04-.78-.49-.348-.83-.699-.87-.74a.186.186 0 0 0-.09-.023h-.009l-2.421 1.33c.058.135.32.781.32 1.454a3.785 3.785 0 0 1-3.582 3.775c-.029.159-.185 1.049-.185 1.717 0 .669.156 1.558.185 1.717a3.784 3.784 0 0 1 3.582 3.775c0 .678-.265 1.325-.321 1.456l2.292 1.283h.005a.138.138 0 0 0 .077-.022c.042-.043.385-.407.878-.769.735-.539 1.433-.811 2.076-.811.648 0 1.352.278 2.091.827.496.369.84.737.882.784zm-2.965-4.79a3.467 3.467 0 0 1-3.464-3.463 3.467 3.467 0 0 1 3.464-3.464 3.468 3.468 0 0 1 3.465 3.464 3.467 3.467 0 0 1-3.465 3.464zm0-5.749a2.288 2.288 0 0 0-2.286 2.285 2.289 2.289 0 0 0 2.286 2.287 2.289 2.289 0 0 0 2.286-2.287 2.288 2.288 0 0 0-2.286-2.285z"></path></svg><svg width="20" height="20" viewBox="90 90 20 20" id="table_config_hover" y="1100"><path fill="#2389D0" d="M102.996 109.437a1.29 1.29 0 0 1-.945-.402c-.311-.34-1.297-1.228-2.103-1.228-.802 0-1.802.892-2.09 1.205a1.288 1.288 0 0 1-1.419.297l-.026-.011-2.451-1.371-.025-.017a1.178 1.178 0 0 1-.395-1.422c.002-.004.227-.521.227-.994a2.602 2.602 0 0 0-2.6-2.599h-.086l-.016.001c-.41 0-.745-.365-.852-.93-.008-.044-.209-1.115-.209-1.958 0-.844.201-1.914.21-1.96.108-.57.449-.938.867-.928h.087a2.602 2.602 0 0 0 2.599-2.599c0-.472-.224-.99-.227-.995a1.174 1.174 0 0 1 .398-1.42l.026-.017 2.587-1.422.027-.01a1.313 1.313 0 0 1 1.415.293c.306.32 1.274 1.154 2.058 1.154.776 0 1.737-.817 2.043-1.133a1.315 1.315 0 0 1 1.416-.282l.026.011 2.5 1.389.024.017c.447.312.618.923.396 1.421-.002.004-.225.522-.225.994a2.601 2.601 0 0 0 2.598 2.599h.087c.417-.01.76.357.868.929.008.045.209 1.115.209 1.959 0 .843-.2 1.914-.21 1.959-.108.57-.45.937-.867.928h-.087a2.601 2.601 0 0 0-2.598 2.599c0 .473.223.99.226.995.221.497.05 1.108-.397 1.42l-.025.018-2.541 1.404-.027.012a1.18 1.18 0 0 1-.473.094zm-.077-1.197a.16.16 0 0 0 .077.02H103l2.374-1.312c-.058-.134-.32-.78-.32-1.454a3.78 3.78 0 0 1 3.579-3.77c.028-.159.184-1.048.184-1.716 0-.668-.156-1.557-.184-1.716a3.781 3.781 0 0 1-3.579-3.77c0-.676.263-1.323.32-1.455l-2.335-1.297-.01-.001a.19.19 0 0 0-.09.023c-.039.04-.378.384-.864.726-.72.506-1.4.763-2.023.763-.629 0-1.315-.262-2.04-.778a6.58 6.58 0 0 1-.868-.74.19.19 0 0 0-.09-.023h-.008l-2.42 1.329c.058.135.32.78.32 1.452a3.781 3.781 0 0 1-3.579 3.771c-.029.159-.184 1.048-.184 1.716 0 .668.155 1.556.184 1.715a3.78 3.78 0 0 1 3.579 3.77c0 .678-.265 1.326-.32 1.456l2.29 1.28h.004a.157.157 0 0 0 .077-.02c.042-.045.385-.406.877-.768.735-.538 1.432-.811 2.074-.811.648 0 1.35.278 2.09.827.495.368.838.736.88.783zm-2.963-4.784a3.465 3.465 0 0 1-3.461-3.461c0-1.909 1.553-3.461 3.46-3.461s3.462 1.552 3.462 3.46a3.465 3.465 0 0 1-3.461 3.462zm0-5.745c-1.26 0-2.284 1.024-2.284 2.283s1.025 2.284 2.284 2.284c1.26 0 2.284-1.024 2.284-2.284s-1.024-2.283-2.284-2.283z"></path></svg><svg width="20" height="20" viewBox="90 90 20 20" id="table_cpdr" y="1120"><path fill="#828282" d="M108.026 105.074c.009-.484-.013-.994-.031-1.467.594-.34.968-.886.968-1.724 0-2.289-1.985-3.701-3.161-3.276.758-2.546-1.315-4.3-3.638-4.362-.091-.052-.156-.087-.156-.087l.096-.991c2.53.086 4.886 1.535 4.751 4.348.982.142 3.279 1.622 3.161 4.381-.066 1.582-.846 2.684-1.99 3.178zm-4.016-6.886c1.287.247 3.217 1.93 3.004 5.038-.134 1.955-1.705 3.024-3.614 3.024h-9.536c-2.143 0-3.698-1.719-3.87-3.912-.157-1.983.984-4.01 3.003-4.15.722-2.988 2.509-3.758 5.007-4.03 2.153-.236 5.53.807 6.006 4.03zm-6.008-3.023c-2.033.06-4.014 1.572-4.005 4.031-1.816.12-2.95 1.353-3.004 3.023-.058 1.884 1.398 3.158 3.326 3.158h8.583c1.719 0 3.107-1.065 3.142-2.746.042-2.075-1.915-3.666-3.035-3.435.54-3.47-3.32-4.079-5.007-4.031zm.986 9.07h-1.972v-2.03H95v-1.986h2.018v-2.03h1.972v2.03h2.018v1.984h-2.019v2.031z"></path></svg><svg width="20" height="20" viewBox="90 90 20 20" id="table_cpdr_hover" y="1140"><path fill="#2389D0" d="M108.026 105.074c.009-.484-.013-.994-.031-1.467.594-.34.968-.886.968-1.724 0-2.289-1.985-3.701-3.161-3.276.758-2.546-1.315-4.3-3.638-4.362-.091-.052-.156-.087-.156-.087l.096-.991c2.53.086 4.886 1.535 4.751 4.348.982.142 3.279 1.622 3.161 4.381-.066 1.582-.846 2.684-1.99 3.178zm-4.016-6.886c1.287.247 3.217 1.93 3.004 5.038-.134 1.955-1.705 3.024-3.614 3.024h-9.536c-2.143 0-3.698-1.719-3.87-3.912-.157-1.983.984-4.01 3.003-4.15.722-2.988 2.509-3.758 5.007-4.03 2.153-.236 5.53.807 6.006 4.03zm-6.008-3.023c-2.033.06-4.014 1.572-4.005 4.031-1.816.12-2.95 1.353-3.004 3.023-.058 1.884 1.398 3.158 3.326 3.158h8.583c1.719 0 3.107-1.065 3.142-2.746.042-2.075-1.915-3.666-3.035-3.435.54-3.47-3.32-4.079-5.007-4.031zm.986 9.07h-1.972v-2.03H95v-1.986h2.018v-2.03h1.972v2.03h2.018v1.984h-2.019v2.031z"></path></svg><svg width="20" height="20" viewBox="90 90 20 20" id="table_delete" y="1160"><path fill="#ACACAC" d="M108.723 91.938l-1.663.002c-.027-.004-.054-.009-.085-.009-.029 0-.054.007-.084.009l-5.718.002V90.92a.929.929 0 0 0-.93-.919c-.082 0-.151.007-.224.012-.077-.005-.151-.012-.24-.012a.92.92 0 0 0-.92.92l.004 1.023-5.577.004a.788.788 0 0 0-.212-.031.798.798 0 0 0-.214.03l-1.642.001c-.508 0-.86.204-.86.712 0 .507.351.786.86.786h1.065l.008 14.901c.041.976.778 1.755 1.764 1.755h.92v.008l10.113-.005v-.003h.92c1.014 0 1.737-.82 1.74-1.835l-.01-14.83h.985c.507 0 .92-.278.92-.786s-.413-.712-.92-.712zm-2.53 14.794c.005 1.21-.225 1.654-1.043 1.788l-10.447.007c-.51-.11-.758-.372-.86-.935l-.008-14.148 12.356-.007.01 15.083-.008-1.788zm-8.489-11.714a.772.772 0 0 0-.773.773v10.427c0 .427.346.775.773.775a.774.774 0 0 0 .772-.775V95.791a.772.772 0 0 0-.772-.773zm4.636 0a.772.772 0 0 0-.773.773v10.427c0 .427.345.775.773.775a.774.774 0 0 0 .771-.775V95.791a.772.772 0 0 0-.771-.773z"></path></svg><svg width="20" height="20" viewBox="90 90 20 20" id="table_delete_hover" y="1180"><path fill="#C0392B" d="M108.723 91.938l-1.663.002c-.027-.004-.054-.009-.085-.009-.029 0-.054.007-.084.009l-5.718.002V90.92a.929.929 0 0 0-.93-.919c-.082 0-.151.007-.224.012-.077-.005-.151-.012-.24-.012a.92.92 0 0 0-.92.92l.004 1.023-5.577.004a.788.788 0 0 0-.212-.031.798.798 0 0 0-.214.03l-1.642.001c-.508 0-.86.204-.86.712 0 .507.351.786.86.786h1.065l.008 14.901c.041.976.778 1.755 1.764 1.755h.92v.008l10.113-.005v-.003h.92c1.014 0 1.737-.82 1.74-1.835l-.01-14.83h.985c.507 0 .92-.278.92-.786s-.413-.712-.92-.712zm-2.53 14.794c.005 1.21-.225 1.654-1.043 1.788l-10.447.007c-.51-.11-.758-.372-.86-.935l-.008-14.148 12.356-.007.01 15.083-.008-1.788zm-8.489-11.714a.772.772 0 0 0-.773.773v10.427c0 .427.346.775.773.775a.774.774 0 0 0 .772-.775V95.791a.772.772 0 0 0-.772-.773zm4.636 0a.772.772 0 0 0-.773.773v10.427c0 .427.345.775.773.775a.774.774 0 0 0 .771-.775V95.791a.772.772 0 0 0-.771-.773z"></path></svg><svg width="20" height="20" viewBox="90 90 20 20" id="table_log" y="1200"><path fill="#828282" d="M104.916 106.962a2.313 2.313 0 1 0 0-4.627 2.314 2.314 0 0 0 0 4.627zm-.903 2.775v-1.089c-.42-.1-.813-.264-1.171-.485l-.77.768-1.373-1.372.77-.766a4.096 4.096 0 0 1-.487-1.174h-1.155v-1.941h1.155c.098-.403.253-.783.46-1.13l-.812-.81 1.37-1.373.799.793c.369-.231.778-.406 1.214-.512V99.56h1.942v1.085c.42.102.814.268 1.173.487l.768-.768 1.372 1.372-.767.769c.219.357.384.753.485 1.172H110v1.941h-1.014a4.01 4.01 0 0 1-.515 1.216l.727.725-1.371 1.372-.743-.74a4.067 4.067 0 0 1-1.13.456v1.09h-1.94zm.897-11.214V91.24H94.097l1.27-.977h10.45v8.404a5.945 5.945 0 0 0-.907-.144zM94.097 91.24v2.456h-3.194l3.194-2.456zM90 109.246V94.394l.903-.697v14.572h8.983c.311.367.666.694 1.057.977H90z"></path></svg><svg width="20" height="20" viewBox="90 90 20 20" id="table_log_hover" y="1220"><path fill="#2389D0" d="M104.916 106.962a2.313 2.313 0 1 0 0-4.627 2.314 2.314 0 0 0 0 4.627zm-.903 2.775v-1.089c-.42-.1-.813-.264-1.171-.485l-.77.768-1.373-1.372.77-.766a4.096 4.096 0 0 1-.487-1.174h-1.155v-1.941h1.155c.098-.403.253-.783.46-1.13l-.812-.81 1.37-1.373.799.793c.369-.231.778-.406 1.214-.512V99.56h1.942v1.085c.42.102.814.268 1.173.487l.768-.768 1.372 1.372-.767.769c.219.357.384.753.485 1.172H110v1.941h-1.014a4.01 4.01 0 0 1-.515 1.216l.727.725-1.371 1.372-.743-.74a4.067 4.067 0 0 1-1.13.456v1.09h-1.94zm.897-11.214V91.24H94.097l1.27-.977h10.45v8.404a5.945 5.945 0 0 0-.907-.144zM94.097 91.24v2.456h-3.194l3.194-2.456zM90 109.246V94.394l.903-.697v14.572h8.983c.311.367.666.694 1.057.977H90z"></path></svg><svg width="20" height="20" viewBox="90 90 20 20" id="table_refresh" y="1240"><path fill="#828282" d="M109.92 99.308l-2.349 2.412a.5.5 0 0 1-.7 0l-2.333-2.412c-.277-.33-.092-.448.101-.64h2.137c-.589-3.255-3.392-5.722-6.766-5.722-2.61 0-4.879 1.474-6.047 3.647l-1.165-.474c1.358-2.64 4.075-4.444 7.212-4.444 4.068 0 7.427 3.033 8.03 6.993h1.78c.192.192.293.449.1.64zm-16.746-.512l2.348 2.41c.194.191.093.45-.1.64h-2.034c.817 2.937 3.47 5.087 6.622 5.087 2.397 0 4.507-1.246 5.74-3.134l1.178.477c-1.435 2.356-3.992 3.93-6.918 3.93-3.846 0-7.055-2.716-7.904-6.36h-1.864c-.193-.19-.378-.307-.1-.64l2.332-2.41a.498.498 0 0 1 .7 0z"></path></svg><svg width="20" height="20" viewBox="90 90 20 20" id="table_refresh_hover" y="1260"><path fill="#2389D0" d="M109.92 99.308l-2.349 2.412a.5.5 0 0 1-.7 0l-2.333-2.412c-.277-.33-.092-.448.101-.64h2.137c-.589-3.255-3.392-5.722-6.766-5.722-2.61 0-4.879 1.474-6.047 3.647l-1.165-.474c1.358-2.64 4.075-4.444 7.212-4.444 4.068 0 7.427 3.033 8.03 6.993h1.78c.192.192.293.449.1.64zm-16.746-.512l2.348 2.41c.194.191.093.45-.1.64h-2.034c.817 2.937 3.47 5.087 6.622 5.087 2.397 0 4.507-1.246 5.74-3.134l1.178.477c-1.435 2.356-3.992 3.93-6.918 3.93-3.846 0-7.055-2.716-7.904-6.36h-1.864c-.193-.19-.378-.307-.1-.64l2.332-2.41a.498.498 0 0 1 .7 0z"></path></svg><svg width="20" height="20" viewBox="90 90 20 20" id="table_stats" y="1280"><path fill="#828282" d="M99.29 91.502a9.206 9.206 0 1 0 9.205 9.206h-9.204v-9.206zm7.661 10.623c-.667 3.62-3.849 6.37-7.66 6.37-4.295 0-7.79-3.491-7.79-7.786 0-3.813 2.752-6.994 6.374-7.661v9.077h9.076zm-6.243-12.039v9.205h9.205a9.206 9.206 0 0 0-9.205-9.205zm1.416 1.545a7.81 7.81 0 0 1 6.244 6.245h-6.244V91.63z"></path></svg><svg width="20" height="20" viewBox="90 90 20 20" id="table_stats_hover" y="1300"><path fill="#2389D0" d="M99.29 91.502a9.206 9.206 0 1 0 9.205 9.206h-9.204v-9.206zm7.661 10.623c-.667 3.62-3.849 6.37-7.66 6.37-4.295 0-7.79-3.491-7.79-7.786 0-3.813 2.752-6.994 6.374-7.661v9.077h9.076zm-6.243-12.039v9.205h9.205a9.206 9.206 0 0 0-9.205-9.205zm1.416 1.545a7.81 7.81 0 0 1 6.244 6.245h-6.244V91.63z"></path></svg><svg width="20" height="20" viewBox="246 0 20 20" id="workorder" y="1320"><g fill="#C3C6CB"><path d="M250.426 2.888V20h14.031V2.888h-14.031zm1.798 2.298h3.863v.844h-3.863v-.844zm0 2.685h7.468v.843h-7.468v-.843zm10.494 6.212h-10.494v-.843h10.494v.843zm0-2.684h-10.494v-.844h10.494v.844zM247.973 0h13.908v1.889h-13.908z"></path><path d="M247.545 0h1.889v16.523h-1.889z"></path></g></svg><svg width="20" height="20" viewBox="246 0 20 20" id="workorder_hover" y="1340"><g fill="#FFF"><path d="M250.426 2.888V20h14.031V2.888h-14.031zm1.798 2.298h3.863v.844h-3.863v-.844zm0 2.685h7.468v.843h-7.468v-.843zm10.494 6.212h-10.494v-.843h10.494v.843zm0-2.684h-10.494v-.844h10.494v.844zM247.973 0h13.908v1.889h-13.908z"></path><path d="M247.545 0h1.889v16.523h-1.889z"></path></g></svg></svg>