<?xml version="1.0" encoding="utf-8"?>
<!-- Generator: Adobe Illustrator 16.0.0, SVG Export Plug-In . SVG Version: 6.00 Build 0)  -->
<!DOCTYPE svg PUBLIC "-//W3C//DTD SVG 1.1//EN" "http://www.w3.org/Graphics/SVG/1.1/DTD/svg11.dtd">
<svg version="1.1" id="图层_1" xmlns="http://www.w3.org/2000/svg" xmlns:xlink="http://www.w3.org/1999/xlink" x="0px" y="0px"
	 width="127.903px" height="92.833px" viewBox="0 0 127.903 92.833" enable-background="new 0 0 127.903 92.833"
	 xml:space="preserve">
<g>
	<path fill="#CDE9F3" d="M112.26,1.045H13.726c-5.45,0-9.873,3.13-9.873,6.98v69.711c0,2.089,1.355,4.053,3.723,5.389
		c0.187,0.225,0.501,0.479,0.828,0.701l10.116,6.801c1.184,0.796,2.739,1.23,4.409,1.23c1.669,0,3.238-0.445,4.438-1.241
		l8.718-5.856l8.604,5.804c1.184,0.796,2.753,1.231,4.407,1.231c1.656,0,3.239-0.436,4.438-1.242l8.633-5.804l9.617,5.804
		c1.168,0.753,2.694,1.168,4.307,1.168c1.656,0,3.24-0.445,4.439-1.241l8.604-5.783h0.799l8.618,5.792
		c1.184,0.798,2.753,1.232,4.407,1.232c1.671,0,3.24-0.445,4.425-1.241l10.201-6.854c0.128-0.097,0.271-0.191,0.386-0.287
		c2.625-1.284,4.179-3.343,4.179-5.624V8.006C122.136,4.175,117.711,1.045,112.26,1.045z"/>
	<path opacity="0.5" fill="#335059" d="M22.929,92.357c-1.762,0-3.427-0.467-4.688-1.315L8.124,84.241
		c-0.264-0.18-0.617-0.444-0.87-0.724c-2.481-1.426-3.901-3.529-3.901-5.781V8.025c0-4.125,4.653-7.48,10.373-7.48h98.534
		c5.715,0,10.375,3.347,10.388,7.459v69.71c0,2.458-1.605,4.66-4.408,6.048c-0.067,0.054-0.142,0.107-0.216,0.16l-0.139,0.102
		l-10.224,6.871c-1.273,0.855-2.943,1.326-4.704,1.326c-1.762,0-3.426-0.468-4.687-1.317l-8.491-5.707h-0.494l-8.477,5.698
		c-1.29,0.855-2.965,1.326-4.719,1.326c-1.704,0-3.329-0.443-4.577-1.248l-9.332-5.631l-8.368,5.626
		c-1.271,0.855-2.946,1.327-4.717,1.327c-1.76,0-3.424-0.468-4.687-1.316l-8.326-5.616l-8.438,5.669
		C26.355,91.887,24.682,92.357,22.929,92.357z M13.726,1.545c-5.168,0-9.373,2.907-9.373,6.48v69.711
		c0,1.904,1.264,3.709,3.469,4.953l0.139,0.116c0.139,0.166,0.402,0.388,0.725,0.607l10.114,6.799
		c1.098,0.738,2.564,1.146,4.13,1.146c1.559,0,3.036-0.411,4.161-1.158l8.995-6.042l8.883,5.992
		c1.099,0.738,2.565,1.146,4.128,1.146c1.573,0,3.05-0.411,4.158-1.157l8.897-5.981l9.891,5.969
		c1.101,0.709,2.534,1.096,4.048,1.096c1.56,0,3.038-0.411,4.163-1.158l8.728-5.866h1.104l8.745,5.877
		c1.098,0.74,2.563,1.147,4.128,1.147c1.563,0,3.036-0.41,4.146-1.156l10.337-6.954c0.073-0.053,0.146-0.104,0.21-0.157l0.1-0.064
		c2.478-1.212,3.898-3.098,3.898-5.175V8.006c-0.011-3.562-4.223-6.461-9.388-6.461H13.726z"/>
	<path fill="#FFFFFF" d="M113.559,79.253l-0.999,0.669h-0.012l-9.604,6.451l-9.06-6.091l-2.384-0.69l-3.837-0.021l-2.398,0.657
		l-9.203,6.165L65.72,80.187l-2.24-0.595l-2.712-0.009l-2.398,0.656l-9.273,6.207l-9.158-6.153l-2.384-0.69l-2.854-0.02
		l-2.398,0.656l-9.359,6.271l-9.517-6.387l-0.015,0.021l-1.014-0.859c-0.827-0.403-1.269-0.935-1.269-1.518l0.342-68.182
		c0-1.008,2.382-2.844,3.811-2.844h95.411c1.426,0,3.809,1.825,3.809,2.844l0.344,68.182
		C114.856,78.34,114.373,78.902,113.559,79.253z"/>
	<path opacity="0.5" fill="#335059" enable-background="new    " d="M77.536,36.013h24.721v6.045H77.536V36.013 M77.536,23.916
		h24.721v6.039H77.536V23.916"/>
	<path opacity="0.5" fill="#335059" enable-background="new    " d="M23.9,51.484h45.353v4.883H50.368v4.884
		c0,1.519-0.382,2.687-1.132,3.485c-0.757,0.813-1.919,1.256-3.505,1.354c-1.581,0.086-3.765,0.136-6.544,0.136
		c-0.398-2.012-0.792-3.715-1.192-5.116c1.71,0.099,3.246,0.142,4.611,0.142c1.064,0,1.6-0.659,1.6-1.962v-2.922h-7.625l2.927,3.924
		l-12.552,5.75c-1.094-1.889-2.17-3.562-3.239-5.019c2.662-0.774,6.592-2.324,11.793-4.655H23.9V51.484L23.9,51.484z M27.136,44.689
		h38.876v4.515H27.136V44.689z"/>
	<path opacity="0.5" fill="#335059" enable-background="new    " d="M55.884,56.503c3.831,1.31,8.136,2.829,12.914,4.563
		l-2.694,4.79c-3.646-1.549-7.907-3.233-12.772-5.066L55.884,56.503z M26.68,30.589h11.272v-2.835H25.087v-4.741h42.93v4.741H55.244
		v2.835H66.56v11.912H26.68V30.589z M32.57,38.115h5.382v-3.147H32.57V38.115z M43.886,30.589h5.424v-2.835h-5.424V30.589z
		 M43.886,38.115h5.424v-3.147h-5.424V38.115z M60.674,38.115v-3.147h-5.43v3.147H60.674z M97.534,49.007l-5.62,5.152h4.784
		c0.67,0,1.217,0.536,1.217,1.206c0,0.664-0.547,1.205-1.217,1.205h-5.362v2.411h5.362c0.67,0,1.217,0.541,1.217,1.205
		c0,0.671-0.547,1.205-1.217,1.205h-5.362v3.629c0,0.664-0.591,1.205-1.317,1.205c-0.731,0-1.315-0.541-1.315-1.205v-3.629h-5.368
		c-0.67,0-1.218-0.534-1.218-1.205c0-0.664,0.548-1.205,1.218-1.205h5.368V56.57h-5.368c-0.67,0-1.218-0.541-1.218-1.205
		c0-0.67,0.548-1.206,1.218-1.206h4.963l-5.104-4.686c-0.516-0.467-0.516-1.229,0-1.703c0.517-0.473,1.353-0.473,1.863,0
		l5.036,4.619l5.56-5.104c0.517-0.474,1.364-0.474,1.882,0C98.05,47.765,98.05,48.534,97.534,49.007z"/>
</g>
</svg>
