<?xml version="1.0" encoding="utf-8"?>
<!-- Generator: Adobe Illustrator 16.0.0, SVG Export Plug-In . SVG Version: 6.00 Build 0)  -->
<!DOCTYPE svg PUBLIC "-//W3C//DTD SVG 1.1//EN" "http://www.w3.org/Graphics/SVG/1.1/DTD/svg11.dtd">
<svg version="1.1" id="图层_1" xmlns="http://www.w3.org/2000/svg" xmlns:xlink="http://www.w3.org/1999/xlink" x="0px" y="0px"
	 width="20px" height="20px" viewBox="0 0 20 20" enable-background="new 0 0 20 20" xml:space="preserve">
<g>
	<g transform="scale(0.0390625, 0.0390625)">
		<path fill="#FFFFFF" d="M305.296,471.444H56.062c-30.237,0-54.824-23.062-54.824-51.424V91.974
			c0-28.362,24.587-51.424,54.824-51.424h249.234c30.2,0,54.824,23.062,54.824,51.424v41.462c0,6.925-5.612,12.525-12.537,12.525
			c-6.912,0-12.525-5.6-12.525-12.525V91.974c0-14.537-13.35-26.375-29.762-26.375H56.062c-16.412,0-29.75,11.837-29.75,26.375
			V420.02c0,14.55,13.337,26.375,29.75,26.375h249.234c16.412,0,29.762-11.825,29.762-26.375v-36.85
			c0-6.937,5.612-12.537,12.525-12.537c6.925,0,12.537,5.6,12.537,12.537v36.85C360.121,448.382,335.496,471.444,305.296,471.444z
			 M499.456,262.097H190.648c-6.912,0-12.512-5.6-12.512-12.525c0-6.937,5.6-12.525,12.512-12.525h308.809
			c6.9,0,12.512,5.587,12.512,12.525C511.969,256.497,506.356,262.097,499.456,262.097z M408.295,353.271
			c-3.225,0-6.412-1.237-8.875-3.675c-4.9-4.9-4.9-12.825,0-17.725l82.299-82.299l-82.299-82.311c-4.9-4.9-4.9-12.825,0-17.7
			c4.9-4.9,12.837-4.9,17.725,0l91.149,91.161c2.35,2.337,3.675,5.525,3.675,8.85c0,3.325-1.325,6.525-3.675,8.862l-91.149,91.161
			C414.682,352.033,411.482,353.271,408.295,353.271z"/>
	</g>
</g>
</svg>
