<?xml version="1.0" encoding="utf-8"?>
<!-- Generator: Adobe Illustrator 16.0.0, SVG Export Plug-In . SVG Version: 6.00 Build 0)  -->
<!DOCTYPE svg PUBLIC "-//W3C//DTD SVG 1.1//EN" "http://www.w3.org/Graphics/SVG/1.1/DTD/svg11.dtd">
<svg version="1.1" id="图层_1" xmlns="http://www.w3.org/2000/svg" xmlns:xlink="http://www.w3.org/1999/xlink" x="0px" y="0px"
	 width="20px" height="20px" viewBox="0 0 20 20" enable-background="new 0 0 20 20" xml:space="preserve">
<g>
	<g transform="scale(0.0390625, 0.0390625)">
		<path fill="#FFFFFF" d="M22.262,363.695V100.011c0-33.475,27.237-60.724,60.762-60.724h18.475c7.037,0,12.762,5.7,12.762,12.8
			c0,7.05-5.725,12.75-12.762,12.75H83.024c-19.387,0-35.2,15.8-35.2,35.175v263.684c0,19.4,15.812,35.2,35.2,35.2h13.937
			c7.075,0,12.8,5.7,12.8,12.75c0,7.1-5.725,12.75-12.8,12.75H83.024C49.499,424.494,22.262,397.195,22.262,363.695L22.262,363.695z
			 M165.335,52.087c0-7.1,5.725-12.8,12.812-12.8h75.099c7.025,0,12.775,5.7,12.775,12.8c0,7.05-5.7,12.75-12.775,12.75h-75.099
			C171.06,64.837,165.335,59.137,165.335,52.087L165.335,52.087z M381.845,131.186v-31.175c0-19.375-15.75-35.175-35.15-35.175
			h-16.75c-7.075,0-12.75-5.7-12.75-12.75c0-7.1,5.675-12.8,12.75-12.8h16.75c33.475,0,60.749,27.25,60.749,60.724v31.175H381.845z
			 M278.821,87.511V12.637c0-7.05,5.725-12.775,12.75-12.775c7.1,0,12.8,5.725,12.8,12.775v74.874c0,7.05-5.7,12.775-12.8,12.775
			C284.546,100.311,278.821,94.561,278.821,87.511L278.821,87.511z M126.973,87.511V12.637c0-7.05,5.675-12.775,12.762-12.775
			c7.075,0,12.8,5.725,12.8,12.775v74.874c0,7.05-5.725,12.775-12.8,12.775C132.698,100.311,126.973,94.561,126.973,87.511
			L126.973,87.511z"/>
	</g>
	<path fill="#FFFFFF" d="M9.057,10.516c-0.22-0.218-0.22-0.573-0.001-0.792l0,0c0.219-0.217,0.573-0.218,0.792,0l2.404,2.404
		c0.219,0.221,0.218,0.574-0.001,0.793l0,0c-0.219,0.219-0.572,0.219-0.791,0L9.057,10.516z"/>
	<path fill="#FFFFFF" d="M12.25,12.918c-0.217,0.221-0.572,0.221-0.791,0.002l0,0c-0.217-0.219-0.219-0.574,0-0.793l3.688-3.688
		c0.221-0.219,0.574-0.219,0.793,0.001l0,0c0.219,0.218,0.219,0.571,0,0.792L12.25,12.918z"/>
	<path fill="#FFFFFF" d="M11.876,5.163c-4.084,0-7.411,3.319-7.411,7.412c0,4.092,3.327,7.42,7.411,7.42
		c4.097,0,7.424-3.328,7.416-7.42C19.292,8.482,15.973,5.163,11.876,5.163z M11.874,18.996c-3.532,0-6.404-2.875-6.404-6.412
		c0-3.551,2.872-6.418,6.404-6.418c3.537,0,6.418,2.867,6.418,6.418C18.292,16.121,15.411,18.996,11.874,18.996z"/>
</g>
</svg>
