<?xml version="1.0" encoding="utf-8"?>
<!-- Generator: Adobe Illustrator 16.0.0, SVG Export Plug-In . SVG Version: 6.00 Build 0)  -->
<!DOCTYPE svg PUBLIC "-//W3C//DTD SVG 1.1//EN" "http://www.w3.org/Graphics/SVG/1.1/DTD/svg11.dtd">
<svg version="1.1" id="图层_1" xmlns="http://www.w3.org/2000/svg" xmlns:xlink="http://www.w3.org/1999/xlink" x="0px" y="0px"
	 width="20px" height="20px" viewBox="0 0 20 20" enable-background="new 0 0 20 20" xml:space="preserve">
<path fill="#FFFFFF" d="M9.994,0C4.484,0,0,4.483,0,9.994c0,5.511,4.484,9.994,9.994,9.994c5.511,0,9.994-4.482,9.994-9.994
	C19.988,4.483,15.505,0,9.994,0 M9.994,18.916c-4.919,0-8.922-4.003-8.922-8.922s4.002-8.921,8.922-8.921
	c4.919,0,8.921,4.002,8.921,8.921S14.913,18.916,9.994,18.916 M12.412,4.766L10.825,7.69c-0.423,0.792-0.683,1.32-0.776,1.58h-0.028
	C9.742,8.636,8.954,7.135,7.658,4.766H6.164L8.94,9.535H6.665v1.054h2.668v1.452H6.665v1.067h2.668v2.114h1.323v-2.114h2.573V12.04
	h-2.573v-1.452h2.573V9.535h-2.208l2.803-4.769H12.412z"/>
</svg>
