<?xml version="1.0" encoding="utf-8"?>
<!-- Generator: Adobe Illustrator 16.0.0, SVG Export Plug-In . SVG Version: 6.00 Build 0)  -->
<!DOCTYPE svg PUBLIC "-//W3C//DTD SVG 1.1//EN" "http://www.w3.org/Graphics/SVG/1.1/DTD/svg11.dtd">
<svg version="1.1" id="图层_1" xmlns="http://www.w3.org/2000/svg" xmlns:xlink="http://www.w3.org/1999/xlink" x="0px" y="0px"
	 width="20px" height="20px" viewBox="0 0 20 20" enable-background="new 0 0 20 20" xml:space="preserve">
<g>
	<path fill="#FFFFFF" d="M16.721,6.631c0.877,0,1.701-0.342,2.322-0.964c0.618-0.62,0.959-1.442,0.957-2.316
		c0-1.809-1.471-3.281-3.279-3.281c-1.81,0-3.281,1.472-3.281,3.281S14.911,6.631,16.721,6.631z M16.721,1.202
		c1.185,0,2.148,0.964,2.148,2.149c0,1.186-0.964,2.15-2.148,2.15c-1.186,0-2.15-0.964-2.15-2.15
		C14.57,2.166,15.535,1.202,16.721,1.202z"/>
	<path fill="#FFFFFF" d="M16.721,13.368c-1.81,0-3.281,1.472-3.281,3.282c0,1.809,1.472,3.279,3.281,3.279
		c0.876,0,1.701-0.342,2.322-0.963c0.618-0.621,0.959-1.443,0.957-2.316C20,14.84,18.529,13.368,16.721,13.368z M16.721,14.5
		c1.185,0,2.148,0.964,2.148,2.149s-0.964,2.15-2.148,2.15c-1.186,0-2.15-0.965-2.15-2.15S15.535,14.5,16.721,14.5z"/>
	<path fill="#FFFFFF" d="M12.726,14.052L6.417,10.95c0.085-0.291,0.145-0.593,0.145-0.911c0-0.324-0.062-0.631-0.148-0.926
		l6.313-3.143c0.136-0.067,0.237-0.183,0.286-0.327c0.047-0.144,0.037-0.297-0.03-0.432c-0.096-0.194-0.29-0.315-0.507-0.315
		c-0.088,0-0.172,0.02-0.251,0.06l-6.313,3.14C5.313,7.288,4.361,6.757,3.28,6.757C1.471,6.757,0,8.229,0,10.039
		c0,1.809,1.471,3.281,3.28,3.281c1.087,0,2.043-0.537,2.641-1.353l6.304,3.102c0.077,0.037,0.163,0.058,0.25,0.058
		c0.219,0,0.413-0.121,0.509-0.317C13.12,14.531,13.005,14.192,12.726,14.052z M3.28,7.888c1.186,0,2.15,0.964,2.15,2.149
		c0,1.186-0.965,2.15-2.15,2.15c-1.185,0-2.149-0.965-2.149-2.15C1.131,8.853,2.096,7.888,3.28,7.888z"/>
</g>
</svg>
