<?xml version="1.0" encoding="utf-8"?>
<!-- Generator: Adobe Illustrator 16.0.0, SVG Export Plug-In . SVG Version: 6.00 Build 0)  -->
<!DOCTYPE svg PUBLIC "-//W3C//DTD SVG 1.1//EN" "http://www.w3.org/Graphics/SVG/1.1/DTD/svg11.dtd">
<svg version="1.1" id="图层_1" xmlns="http://www.w3.org/2000/svg" xmlns:xlink="http://www.w3.org/1999/xlink" x="0px" y="0px"
	 width="20px" height="20px" viewBox="0 0 20 20" enable-background="new 0 0 20 20" xml:space="preserve">
<path fill="#FFFFFF" d="M18.329,18.926c-0.346-2.868-2.125-5.289-4.596-6.524c0,0-0.594-0.198,0.099-0.643
	c1.68-1.038,2.62-3.064,2.62-5.189c0-3.559-2.867-6.425-6.376-6.425C6.466,0.144,3.6,3.01,3.6,6.569
	c0,2.125,0.939,4.151,2.669,5.189c0.692,0.396,0.099,0.643,0.099,0.643c-2.521,1.186-4.349,3.608-4.696,6.524
	c-0.099,0.84-0.099,0.988,1.384,0.988h6.919h6.871C18.427,19.914,18.427,19.766,18.329,18.926 M16.575,18.699
	c-1.686,0.048-6.55,0-6.55,0s-4.913,0.048-6.599,0c-0.625,0-0.578-0.097-0.434-0.626c0.097-0.385,0.241-0.819,0.386-1.204
	c0.626-1.493,1.734-2.746,3.13-3.516c0.241-0.146,0.481-0.242,0.723-0.338c0.625-0.337,0.962-1.204-0.049-1.926
	c-0.145-0.097-0.241-0.193-0.385-0.29C5.545,9.836,4.775,8.343,4.775,6.658c0-2.938,2.359-5.298,5.298-5.298
	c2.89,0,5.25,2.36,5.25,5.298c0,1.685-0.771,3.178-2.023,4.142c-0.096,0.097-0.241,0.192-0.385,0.29
	c-1.012,0.722-0.674,1.637-0.048,1.926c0.241,0.144,0.481,0.241,0.722,0.338c1.397,0.77,2.505,2.022,3.132,3.516
	c0.144,0.385,0.288,0.771,0.385,1.204C17.105,18.602,17.153,18.699,16.575,18.699"/>
<rect fill="none" width="630.145" height="744.726"/>
</svg>
