<?xml version="1.0" encoding="utf-8"?>
<!-- Generator: Adobe Illustrator 16.0.0, SVG Export Plug-In . SVG Version: 6.00 Build 0)  -->
<!DOCTYPE svg PUBLIC "-//W3C//DTD SVG 1.1//EN" "http://www.w3.org/Graphics/SVG/1.1/DTD/svg11.dtd">
<svg version="1.1" id="图层_1" xmlns="http://www.w3.org/2000/svg" xmlns:xlink="http://www.w3.org/1999/xlink" x="0px" y="0px"
	 width="823px" height="203px" viewBox="0 0 823 203" enable-background="new 0 0 823 203" xml:space="preserve">
<g>
	<circle fill="#FFFFFF" stroke="#335059" stroke-width="0.7926" stroke-miterlimit="10" cx="18.547" cy="32.539" r="17.546"/>
	<g>
		<path fill="#335059" d="M20.122,22.37v17.372c0,0.611,0.19,1.066,0.575,1.373c0.382,0.305,0.919,0.455,1.609,0.455h1.15v0.69
			h-8.393v-0.69h1.035c0.765,0,1.322-0.15,1.667-0.455c0.345-0.305,0.518-0.76,0.518-1.371V25.927c0-0.304-0.097-0.552-0.288-0.741
			c-0.192-0.19-0.479-0.287-0.862-0.287h-2.069v-0.689h1.035c0.92,0,1.667-0.152,2.242-0.46c0.575-0.306,1.015-0.765,1.322-1.379
			H20.122z"/>
	</g>
	<path fill="#FFFFFF" stroke="#335059" stroke-width="0.7926" stroke-miterlimit="10" d="M213.027,34.76H40.672
		c0,11.43-9.265,20.694-20.694,20.694v142.979c0,1.158,0.94,2.098,2.099,2.098h190.95c1.159,0,2.098-0.939,2.098-2.098V36.857
		C215.125,35.699,214.186,34.76,213.027,34.76z"/>
	<path fill="none" stroke="#335059" stroke-width="0.7926" stroke-miterlimit="10" d="M169.573,29.671H41.283
		c0-11.428-9.265-17.546-20.693-17.546"/>
	<path fill="none" stroke="#335059" stroke-width="0.878" stroke-miterlimit="10" stroke-dasharray="3.5118" d="M189.771,182.696
		c0,1.285-1.04,2.324-2.324,2.324H45.666c-1.284,0-2.324-1.041-2.324-2.324V51.085c0-1.284,1.041-2.324,2.324-2.324h141.782
		c1.284,0,2.324,1.041,2.324,2.324V182.696z"/>
	<path fill="#FFFFFF" stroke="#335059" stroke-width="0.7926" stroke-miterlimit="10" d="M515.389,35.061H343.035
		c0,11.428-9.266,20.693-20.694,20.693v142.978c0,1.16,0.94,2.099,2.099,2.099h190.95c1.159,0,2.098-0.938,2.098-2.099V37.158
		C517.487,36,516.549,35.061,515.389,35.061z"/>
	<path fill="none" stroke="#335059" stroke-width="0.878" stroke-miterlimit="10" stroke-dasharray="3.5118" d="M492.135,182.998
		c0,1.284-1.04,2.323-2.324,2.323H348.029c-1.285,0-2.324-1.041-2.324-2.323V51.385c0-1.283,1.041-2.324,2.324-2.324h141.781
		c1.284,0,2.324,1.041,2.324,2.324V182.998z"/>
	<circle fill="#FFFFFF" stroke="#335059" stroke-width="0.878" stroke-miterlimit="10" cx="215.109" cy="122.609" r="4.908"/>
	<circle fill="#335059" cx="215.109" cy="122.609" r="2.391"/>
	<g>
		<g>
			
				<line fill="none" stroke="#335059" stroke-width="0.878" stroke-miterlimit="10" x1="224.709" y1="122.42" x2="227.035" y2="122.42"/>
			
				<line fill="none" stroke="#335059" stroke-width="0.878" stroke-miterlimit="10" stroke-dasharray="3.7025,3.7025" x1="231.935" y1="122.42" x2="307.9" y2="122.42"/>
			
				<line fill="none" stroke="#335059" stroke-width="0.878" stroke-miterlimit="10" x1="310.351" y1="122.42" x2="312.675" y2="122.42"/>
		</g>
	</g>
	<path fill="#335059" d="M243.892,116.793c-0.291,0.291-0.291,0.762,0,1.053l4.764,4.765l-4.764,4.765
		c-0.291,0.291-0.291,0.762,0,1.052c0.291,0.291,0.762,0.291,1.052,0l5.291-5.291c0.29-0.29,0.29-0.761,0-1.052l-5.291-5.291
		C244.654,116.502,244.182,116.502,243.892,116.793z"/>
	<path fill="#335059" d="M283.734,116.793c-0.291,0.291-0.291,0.762,0,1.053l4.766,4.765l-4.766,4.765
		c-0.291,0.291-0.291,0.762,0,1.052c0.291,0.291,0.762,0.291,1.053,0l5.291-5.291c0.291-0.29,0.291-0.761,0-1.052l-5.291-5.291
		C284.496,116.502,284.025,116.502,283.734,116.793z"/>
	<circle fill="#FFFFFF" stroke="#335059" stroke-width="0.7991" stroke-miterlimit="10" cx="321.572" cy="33.456" r="17.69"/>
	<g>
		<path fill="#335059" d="M325.346,28.248c0-1.404-0.311-2.477-0.928-3.219c-0.619-0.743-1.547-1.114-2.781-1.114
			c-0.928,0-1.721,0.257-2.376,0.769c-0.657,0.512-0.985,1.162-0.985,1.95c0,0.474,0.135,0.866,0.405,1.181
			c0.271,0.315,0.406,0.631,0.406,0.946c0,0.396-0.093,0.692-0.277,0.888c-0.185,0.197-0.462,0.295-0.832,0.295
			c-0.444,0-0.795-0.135-1.054-0.406c-0.26-0.27-0.389-0.713-0.389-1.333c0-1.623,0.58-2.858,1.74-3.709
			c1.158-0.851,2.394-1.275,3.709-1.275c1.854,0,3.226,0.464,4.114,1.392c0.888,0.928,1.333,2.086,1.333,3.478
			c0,0.927-0.213,1.854-0.637,2.782c-0.426,0.927-1.102,1.816-2.029,2.667c-2.242,2.164-3.961,3.923-5.158,5.274
			c-1.199,1.353-1.912,2.26-2.145,2.724h6.839c0.696,0,1.274-0.271,1.739-0.812c0.463-0.539,0.771-1.352,0.927-2.435h0.694
			l-0.694,4.983h-10.781v-1.506c0.386-0.695,1.023-1.584,1.913-2.666c0.889-1.082,2.066-2.356,3.536-3.826
			c1.272-1.326,2.21-2.576,2.81-3.748C325.045,30.357,325.346,29.264,325.346,28.248z"/>
	</g>
	<path fill="none" stroke="#335059" stroke-width="0.7991" stroke-miterlimit="10" d="M510.208,120.496"/>
	<path fill="none" stroke="#335059" stroke-width="0.7991" stroke-miterlimit="10" d="M473.963,29.327h-130.4
		c0-11.522-9.341-17.69-20.863-17.69"/>
	<circle fill="#FFFFFF" stroke="#335059" stroke-width="0.878" stroke-miterlimit="10" cx="322.33" cy="122.609" r="4.908"/>
	<circle fill="#335059" cx="322.33" cy="122.609" r="2.391"/>
	<circle fill="#FFFFFF" stroke="#335059" stroke-width="0.878" stroke-miterlimit="10" cx="518.352" cy="122.609" r="4.908"/>
	<circle fill="#335059" cx="518.352" cy="122.609" r="2.39"/>
	<g>
		<g>
			
				<line fill="none" stroke="#335059" stroke-width="0.878" stroke-miterlimit="10" x1="527.951" y1="122.42" x2="530.276" y2="122.42"/>
			
				<line fill="none" stroke="#335059" stroke-width="0.878" stroke-miterlimit="10" stroke-dasharray="3.7025,3.7025" x1="535.178" y1="122.42" x2="611.146" y2="122.42"/>
			
				<line fill="none" stroke="#335059" stroke-width="0.878" stroke-miterlimit="10" x1="613.597" y1="122.42" x2="615.921" y2="122.42"/>
		</g>
	</g>
	<path fill="#335059" d="M547.135,116.793c-0.291,0.291-0.291,0.762,0,1.053l4.765,4.765l-4.765,4.765
		c-0.291,0.291-0.291,0.762,0,1.052c0.291,0.291,0.761,0.291,1.052,0l5.291-5.291c0.291-0.29,0.291-0.761,0-1.052l-5.291-5.291
		C547.896,116.502,547.425,116.502,547.135,116.793z"/>
	<path fill="#335059" d="M586.979,116.793c-0.291,0.291-0.291,0.762,0,1.053l4.766,4.765l-4.766,4.765
		c-0.291,0.291-0.291,0.762,0,1.052c0.291,0.291,0.764,0.291,1.052,0l5.291-5.291c0.291-0.29,0.291-0.761,0-1.052l-5.291-5.291
		C587.742,116.502,587.27,116.502,586.979,116.793z"/>
	<path fill="#FFFFFF" stroke="#335059" stroke-width="0.7926" stroke-miterlimit="10" d="M818.903,35.541H646.482
		c0,11.429-9.267,20.693-20.693,20.693v142.979c0,1.159,0.938,2.099,2.098,2.099h191.018c1.158,0,2.098-0.939,2.098-2.099V37.639
		C821,36.48,820.062,35.541,818.903,35.541z"/>
	<path fill="none" stroke="#335059" stroke-width="0.878" stroke-miterlimit="10" stroke-dasharray="3.5118" d="M795.646,183.479
		c0,1.283-1.039,2.323-2.324,2.323H651.476c-1.283,0-2.324-1.041-2.324-2.323V51.865c0-1.283,1.041-2.323,2.324-2.323h141.846
		c1.285,0,2.324,1.041,2.324,2.323V183.479L795.646,183.479z"/>
	<circle fill="#FFFFFF" stroke="#335059" stroke-width="0.7991" stroke-miterlimit="10" cx="625.02" cy="33.937" r="17.69"/>
	<g>
		<path fill="#335059" d="M631.146,38.464c0,1.458-0.541,2.742-1.623,3.854c-1.083,1.111-2.59,1.668-4.521,1.668
			c-1.393,0-2.591-0.387-3.595-1.159c-1.006-0.771-1.508-1.661-1.508-2.666c0-0.464,0.147-0.87,0.444-1.218
			c0.295-0.348,0.59-0.521,0.887-0.521c0.442,0,0.757,0.179,0.942,0.534c0.185,0.357,0.278,0.654,0.278,0.891
			c0,0.397-0.078,0.733-0.232,1.01c-0.156,0.276-0.232,0.535-0.232,0.771c0,0.477,0.294,0.873,0.881,1.188
			c0.588,0.317,1.235,0.476,1.943,0.476c1.415,0,2.478-0.41,3.186-1.231c0.708-0.82,1.063-2.093,1.063-3.813
			c0-1.407-0.367-2.541-1.101-3.401c-0.735-0.859-2.106-1.292-4.115-1.292v-0.696c1.505,0,2.615-0.375,3.331-1.131
			c0.715-0.754,1.074-1.809,1.074-3.16c0-1.111-0.285-2.084-0.854-2.92c-0.568-0.832-1.458-1.25-2.668-1.25
			c-0.531,0-1.102,0.14-1.711,0.416c-0.608,0.277-0.913,0.732-0.913,1.364c0,0.634,0.076,1.031,0.232,1.188
			c0.153,0.158,0.23,0.356,0.23,0.594c0,0.396-0.077,0.714-0.23,0.951c-0.156,0.236-0.427,0.355-0.813,0.355
			c-0.31,0-0.6-0.117-0.87-0.349s-0.406-0.656-0.406-1.274c0-1.16,0.503-2.104,1.508-2.841c1.003-0.733,2.164-1.101,3.478-1.101
			c1.545,0,2.782,0.486,3.71,1.461s1.392,2.009,1.392,3.099c0,1.171-0.29,2.165-0.869,2.983c-0.58,0.818-1.489,1.424-2.726,1.813
			c1.699,0.614,2.858,1.42,3.479,2.416C630.837,36.472,631.146,37.468,631.146,38.464z"/>
	</g>
	<path fill="none" stroke="#335059" stroke-width="0.7991" stroke-miterlimit="10" d="M777.465,29.809H647.01
		c0-11.522-9.341-17.69-20.864-17.69"/>
	<circle fill="#FFFFFF" stroke="#335059" stroke-width="0.878" stroke-miterlimit="10" cx="625.576" cy="122.609" r="4.908"/>
	<circle fill="#335059" cx="625.576" cy="122.609" r="2.39"/>
	<g>
		<path fill="#335059" d="M67.174,163.592h3.047c0.236-0.914,0.423-1.879,0.559-2.895l0.762,0.102
			c-0.068,0.271-0.152,0.694-0.254,1.27c-0.136,0.678-0.237,1.186-0.305,1.523h7.059v0.66H70.78c-0.17,0.644-0.355,1.27-0.559,1.879
			h6.348v0.609c-0.609,1.523-1.523,2.776-2.742,3.758c0.846,0.576,2.234,1.083,4.164,1.523c-0.102,0.135-0.221,0.338-0.355,0.609
			c-0.034,0.033-0.051,0.067-0.051,0.102c-1.828-0.508-3.284-1.101-4.367-1.777c-0.948,0.541-2.522,1.185-4.723,1.93
			c-0.034-0.136-0.136-0.305-0.305-0.508c-0.034-0.102-0.068-0.17-0.102-0.203c2.166-0.542,3.689-1.1,4.57-1.676
			c-1.186-0.981-2.031-2.234-2.539-3.758h-0.152c-0.847,2.1-2.065,3.944-3.656,5.535c-0.068-0.102-0.187-0.221-0.355-0.355
			c-0.102-0.102-0.17-0.17-0.203-0.203c2.133-1.997,3.571-4.485,4.316-7.465h-3.605v-0.813c0.372-0.778,0.677-1.54,0.914-2.285
			l0.711,0.203c-0.034,0.136-0.102,0.322-0.203,0.559C67.581,162.695,67.343,163.254,67.174,163.592z M75.858,166.74H70.78
			c0.508,1.354,1.337,2.472,2.488,3.352C74.453,169.178,75.316,168.061,75.858,166.74z M73.827,161.408l0.406-0.508
			c0.744,0.475,1.473,0.965,2.184,1.473l-0.457,0.559C75.011,162.221,74.3,161.713,73.827,161.408z"/>
		<path fill="#335059" d="M83.881,171.768c1.016,0.033,2.251,0.051,3.707,0.051c1.354-0.034,2.539-0.068,3.555-0.102
			c-0.034,0.102-0.068,0.236-0.102,0.406c-0.068,0.169-0.119,0.287-0.152,0.355c-2.167,0-3.725,0-4.672,0
			c-1.084,0-1.896-0.018-2.438-0.051c-1.49,0-2.522-0.475-3.098-1.422c-0.406,0.439-0.881,1.032-1.422,1.777l-0.457-0.559
			c0.609-0.745,1.15-1.337,1.625-1.777v-4.57h-1.523v-0.66h2.184v5.23C81.562,171.328,82.493,171.768,83.881,171.768z
			 M81.088,163.592c-0.609-0.846-1.186-1.625-1.727-2.336l0.559-0.355c0.609,0.711,1.201,1.456,1.777,2.234L81.088,163.592z
			 M82.358,166.283h3.758c0-0.102,0.017-0.254,0.051-0.457c0-0.203,0-0.355,0-0.457v-1.473h-3.402v-0.609h4.215
			c0.271-0.338,0.643-0.829,1.117-1.473c0.338-0.474,0.592-0.829,0.762-1.066l0.609,0.355c-0.542,0.711-1.117,1.439-1.727,2.184
			h2.793v0.609h-3.707v1.523c0,0.305-0.018,0.593-0.051,0.863h4.164v0.609h-4.215c0,0.034-0.018,0.102-0.051,0.203
			c0,0.102-0.018,0.17-0.051,0.203c0.236,0.203,0.609,0.491,1.117,0.863c1.117,0.914,2.014,1.659,2.691,2.234l-0.559,0.559
			c-0.948-0.88-2.1-1.879-3.453-2.996c-0.44,1.219-1.659,2.303-3.656,3.25c-0.102-0.203-0.254-0.406-0.457-0.609
			c2.234-0.947,3.47-2.184,3.707-3.707h-3.656V166.283z M83.78,161.154l0.508-0.406c0.541,0.542,1.066,1.135,1.574,1.777
			l-0.559,0.406C84.795,162.289,84.288,161.696,83.78,161.154z"/>
		<path fill="#335059" d="M94.342,168.213v-0.711c0.271-0.439,0.541-1.032,0.813-1.777h-3.199v-0.66h3.504
			c0.102-0.271,0.271-0.711,0.508-1.32c0.102-0.305,0.186-0.524,0.254-0.66h-3.504v-0.66h3.758c0.203-0.439,0.406-1.032,0.609-1.777
			l0.711,0.152c-0.17,0.508-0.355,1.05-0.559,1.625h6.094v0.66h-6.348c-0.068,0.136-0.152,0.355-0.254,0.66
			c-0.237,0.609-0.406,1.05-0.508,1.32h7.922v0.66h-8.227c-0.271,0.711-0.542,1.32-0.813,1.828h7.516v0.762l-3.453,3.047
			c0.236,0.067,0.575,0.22,1.016,0.457c0.439,0.203,0.762,0.355,0.965,0.457l-0.406,0.609c-2.303-1.117-4.469-2.133-6.5-3.047
			l0.355-0.559c0.102,0.034,0.271,0.102,0.508,0.203c1.422,0.644,2.556,1.186,3.402,1.625l3.199-2.895H94.342z"/>
		<path fill="#335059" d="M106.327,161.357h10.105v2.234h-9.445v2.133c0,1.93-0.102,3.335-0.305,4.215
			c-0.203,0.914-0.644,1.879-1.32,2.895c-0.237-0.237-0.424-0.39-0.559-0.457c0.609-0.847,1.016-1.709,1.219-2.59
			c0.203-0.846,0.305-2.166,0.305-3.961V161.357z M106.987,161.865v1.219h8.836v-1.219H106.987z M109.272,171.514l-0.102-0.508
			c0.271-0.033,0.711-0.051,1.32-0.051c0.575-0.033,1.016-0.051,1.32-0.051v-1.32h-3.352v3.25h-0.66v-3.758h4.012v-0.965h-3.402
			v-2.082h3.402v-0.965c-0.508,0-1.236,0.018-2.184,0.051c-0.847,0-1.456,0-1.828,0l-0.102-0.508
			c3.385-0.067,6.246-0.152,8.582-0.254l0.102,0.559c-1.32,0.068-2.641,0.102-3.961,0.102v1.016h3.453v2.082h-3.453v0.965h4.266
			v2.336c0.067,0.88-0.355,1.32-1.27,1.32c-0.373,0-0.813,0-1.32,0c0-0.034-0.018-0.119-0.051-0.254
			c-0.034-0.136-0.068-0.237-0.102-0.305c0.271,0,0.693,0,1.27,0c0.609,0.067,0.88-0.203,0.813-0.813v-1.777h-3.605v1.27
			c0.203,0,0.508-0.017,0.914-0.051c0.372,0,0.66-0.017,0.863-0.051c-0.034-0.033-0.068-0.102-0.102-0.203
			c-0.102-0.135-0.17-0.271-0.203-0.406l0.508-0.203c0.305,0.542,0.559,1.033,0.762,1.473l-0.508,0.254
			c-0.034-0.068-0.085-0.17-0.152-0.305c-0.034-0.033-0.051-0.067-0.051-0.102c-0.406,0.034-1.033,0.068-1.879,0.102
			C111.184,171.395,110.084,171.445,109.272,171.514z M109.018,166.537v1.066h2.793v-1.066H109.018z M115.264,166.537h-2.844v1.066
			h2.844V166.537z"/>
		<path fill="#335059" d="M119.987,166.537c-0.678-0.609-1.371-1.15-2.082-1.625l0.457-0.508c0.711,0.508,1.404,1.033,2.082,1.574
			L119.987,166.537z M118.209,172.428c0.541-1.252,1.066-2.742,1.574-4.469c0.338,0.17,0.575,0.271,0.711,0.305
			c-0.305,0.779-0.83,2.269-1.574,4.469L118.209,172.428z M120.596,163.236c-0.136-0.102-0.322-0.254-0.559-0.457
			c-0.678-0.541-1.202-0.947-1.574-1.219l0.457-0.508c0.271,0.203,0.677,0.508,1.219,0.914c0.439,0.305,0.762,0.542,0.965,0.711
			L120.596,163.236z M121.917,166.943h3.352v-3.352h-3.707v-0.66h4.113c-0.102-0.271-0.355-0.896-0.762-1.879
			c-0.034-0.067-0.051-0.118-0.051-0.152l0.609-0.254c0.102,0.203,0.254,0.542,0.457,1.016c0.203,0.475,0.355,0.83,0.457,1.066
			l-0.66,0.203h4.012v0.66h-3.758v3.352h3.352v0.66h-3.352v3.859h4.164v0.66h-9.445v-0.66h4.57v-3.859h-3.352V166.943z"/>
		<path fill="#335059" d="M130.854,165.928h1.473v-4.57h3.859v4.57h1.625v-4.57h3.961v4.57h1.371v0.66h-1.371v4.773
			c0.033,0.846-0.39,1.252-1.27,1.219c-0.44,0.033-0.863,0.051-1.27,0.051c0-0.068-0.018-0.187-0.051-0.355
			c-0.034-0.17-0.068-0.288-0.102-0.355c0.169,0,0.389,0.017,0.66,0.051c0.236,0,0.423,0,0.559,0
			c0.575,0.033,0.846-0.203,0.813-0.711v-4.672h-2.59c-0.034,1.727-0.136,2.979-0.305,3.758c-0.17,0.779-0.542,1.607-1.117,2.488
			c-0.203-0.17-0.406-0.305-0.609-0.406c0.575-0.813,0.931-1.591,1.066-2.336c0.169-0.711,0.254-1.879,0.254-3.504h-1.625v4.52
			c0.033,0.744-0.355,1.134-1.168,1.168c-0.271,0-0.66,0-1.168,0c0-0.068-0.018-0.187-0.051-0.355
			c-0.034-0.17-0.068-0.288-0.102-0.355c0.305,0.033,0.643,0.051,1.016,0.051c0.541,0.033,0.795-0.187,0.762-0.66v-4.367h-2.438
			c-0.034,1.693-0.136,2.929-0.305,3.707c-0.17,0.813-0.508,1.658-1.016,2.539c-0.102-0.068-0.254-0.17-0.457-0.305
			c-0.068-0.034-0.119-0.068-0.152-0.102c0.508-0.847,0.829-1.625,0.965-2.336c0.169-0.744,0.254-1.912,0.254-3.504h-1.473V165.928z
			 M133.038,162.018v3.91h2.438v-3.91H133.038z M138.522,162.018v3.91h2.59v-3.91H138.522z"/>
		<path fill="#335059" d="M143.752,164.912c0.778-1.15,1.371-2.556,1.777-4.215l0.66,0.152c-0.034,0.102-0.085,0.271-0.152,0.508
			c-0.17,0.609-0.322,1.066-0.457,1.371h2.184v0.609h-2.438c-0.237,0.644-0.593,1.32-1.066,2.031
			C144.023,165.133,143.854,164.98,143.752,164.912z M143.854,167.451h1.625v-1.828h-0.762v-0.609h2.641v0.609h-1.219v1.828h1.676
			v0.609h-1.676v3.098l1.473-1.422l0.152,0.711c-0.237,0.237-0.559,0.542-0.965,0.914c-0.305,0.203-0.525,0.372-0.66,0.508
			c-0.136,0.203-0.305,0.389-0.508,0.559l-0.457-0.508c0.236-0.305,0.338-0.66,0.305-1.066v-2.793h-1.625V167.451z M152.487,171.768
			c1.219,0.067,2.438,0.067,3.656,0c0,0.033-0.018,0.084-0.051,0.152c-0.068,0.203-0.119,0.389-0.152,0.559
			c-1.625,0-2.793-0.018-3.504-0.051c-1.389,0-2.421-0.457-3.098-1.371c-0.339,0.271-0.779,0.813-1.32,1.625l-0.559-0.457
			c0.305-0.373,0.762-0.896,1.371-1.574c0.102-0.102,0.169-0.169,0.203-0.203v-4.52h-1.016v-0.609h1.625v5.129
			C150.32,171.361,151.268,171.801,152.487,171.768z M149.288,163.643c-0.136-0.439-0.355-1.1-0.66-1.98
			c-0.102-0.236-0.17-0.423-0.203-0.559l0.559-0.203c0.305,0.711,0.626,1.558,0.965,2.539L149.288,163.643z M150.506,168.771h2.793
			v-1.93h-2.387v-0.762c0.033-0.033,0.067-0.102,0.102-0.203c0.439-1.185,0.762-2.133,0.965-2.844h-1.27v-0.609h1.473
			c0.169-0.575,0.321-1.168,0.457-1.777l0.711,0.152c-0.203,0.508-0.373,1.05-0.508,1.625h3.047v0.609h-3.25
			c-0.305,1.016-0.678,2.082-1.117,3.199h1.777v-2.285h0.609v2.285h1.777v0.609h-1.777v1.93h2.133v0.609h-2.133v1.98h-0.609v-1.98
			h-2.793V168.771z"/>
		<path fill="#335059" d="M156.905,168.162l-0.102-0.762c0.236-0.033,0.626-0.118,1.168-0.254c0.271-0.067,0.474-0.118,0.609-0.152
			v-3.148h-1.625v-0.609h1.625v-2.539h0.66v2.539h1.32v0.609h-1.32v2.945c0.203-0.033,0.508-0.118,0.914-0.254
			c0.203-0.033,0.355-0.067,0.457-0.102c0,0.102,0.017,0.221,0.051,0.355c0,0.136,0,0.237,0,0.305
			c-0.102,0.034-0.237,0.068-0.406,0.102c-0.136,0.034-0.475,0.119-1.016,0.254v3.91c0.033,0.914-0.39,1.354-1.27,1.32
			c-0.203,0.033-0.559,0.051-1.066,0.051c0-0.068-0.018-0.152-0.051-0.254c-0.034-0.203-0.068-0.373-0.102-0.508
			c0.406,0.033,0.778,0.051,1.117,0.051c0.508,0.033,0.744-0.187,0.711-0.66v-3.707C158.039,167.79,157.48,167.959,156.905,168.162z
			 M160.409,172.834c-0.034-0.034-0.068-0.102-0.102-0.203c-0.068-0.102-0.17-0.254-0.305-0.457c1.828-0.339,3.25-0.745,4.266-1.219
			c-0.305-0.135-0.796-0.338-1.473-0.609c-0.542-0.236-0.965-0.423-1.27-0.559c0.033-0.067,0.102-0.152,0.203-0.254
			c0.236-0.305,0.541-0.711,0.914-1.219h-1.98v-0.609h2.387c0.305-0.474,0.575-0.931,0.813-1.371l0.711,0.254
			c-0.068,0.102-0.187,0.288-0.355,0.559c-0.136,0.237-0.254,0.424-0.355,0.559h5.18v0.609h-1.676
			c-0.542,1.084-1.117,1.93-1.727,2.539c0.135,0.068,0.338,0.152,0.609,0.254c0.677,0.203,1.591,0.541,2.742,1.016l-0.457,0.609
			c-0.237-0.102-0.576-0.254-1.016-0.457c-1.117-0.508-1.947-0.847-2.488-1.016C164.014,171.937,162.473,172.461,160.409,172.834z
			 M160.713,165.268h4.824c0.508-0.677,0.981-1.388,1.422-2.133l0.609,0.355c-0.068,0.102-0.17,0.237-0.305,0.406
			c-0.44,0.609-0.779,1.066-1.016,1.371h2.844v0.609h-8.379V165.268z M164.268,160.951l0.609-0.254
			c0.305,0.508,0.559,0.965,0.762,1.371l-0.559,0.254h3.605v0.609h-7.566v-0.609h3.859
			C164.776,161.849,164.539,161.392,164.268,160.951z M162.288,163.49l0.559-0.355c0.135,0.136,0.355,0.406,0.66,0.813
			s0.508,0.694,0.609,0.863l-0.609,0.355C163.269,164.794,162.863,164.235,162.288,163.49z M162.491,169.584
			c0.813,0.305,1.607,0.627,2.387,0.965c0.677-0.541,1.252-1.286,1.727-2.234h-3.148c-0.102,0.136-0.237,0.322-0.406,0.559
			C162.812,169.212,162.625,169.449,162.491,169.584z"/>
	</g>
	<g>
		<path fill="#335059" d="M60.424,6.142h4.688c0.364-1.406,0.651-2.891,0.859-4.453l1.172,0.156
			c-0.105,0.417-0.234,1.067-0.391,1.953c-0.208,1.042-0.365,1.823-0.469,2.344h10.859v1.016H65.971
			c-0.261,0.989-0.547,1.953-0.859,2.891h9.766v0.938c-0.938,2.344-2.344,4.271-4.219,5.781c1.301,0.886,3.438,1.667,6.406,2.344
			c-0.156,0.208-0.339,0.521-0.547,0.938c-0.052,0.052-0.078,0.104-0.078,0.156c-2.813-0.781-5.052-1.692-6.719-2.734
			c-1.458,0.833-3.88,1.823-7.266,2.969c-0.052-0.208-0.208-0.469-0.469-0.781c-0.052-0.156-0.105-0.261-0.156-0.313
			c3.333-0.833,5.676-1.692,7.031-2.578c-1.824-1.511-3.125-3.438-3.906-5.781h-0.234c-1.302,3.229-3.177,6.067-5.625,8.516
			c-0.105-0.156-0.287-0.339-0.547-0.547c-0.156-0.156-0.261-0.261-0.313-0.313c3.281-3.073,5.495-6.901,6.641-11.484H59.33v-1.25
			c0.573-1.198,1.042-2.37,1.406-3.516l1.094,0.313c-0.052,0.208-0.156,0.495-0.313,0.859C61.049,4.762,60.684,5.621,60.424,6.142z
			 M73.783,10.985h-7.813c0.781,2.083,2.057,3.802,3.828,5.156C71.622,14.735,72.95,13.017,73.783,10.985z M70.658,2.782
			l0.625-0.781c1.145,0.729,2.266,1.484,3.359,2.266l-0.703,0.859C72.481,4.032,71.387,3.251,70.658,2.782z"/>
		<path fill="#335059" d="M86.127,18.72c1.563,0.052,3.463,0.078,5.703,0.078c2.083-0.052,3.906-0.104,5.469-0.156
			c-0.052,0.156-0.105,0.364-0.156,0.625c-0.105,0.261-0.183,0.442-0.234,0.547c-3.333,0-5.73,0-7.188,0
			c-1.667,0-2.917-0.026-3.75-0.078c-2.292,0-3.88-0.729-4.766-2.188c-0.625,0.677-1.355,1.589-2.188,2.734l-0.703-0.859
			c0.938-1.146,1.77-2.058,2.5-2.734V9.657h-2.344V8.642h3.359v8.047C82.559,18.043,83.991,18.72,86.127,18.72z M81.83,6.142
			c-0.938-1.302-1.824-2.5-2.656-3.594l0.859-0.547c0.938,1.094,1.848,2.239,2.734,3.438L81.83,6.142z M83.783,10.282h5.781
			c0-0.156,0.026-0.391,0.078-0.703c0-0.313,0-0.547,0-0.703V6.61h-5.234V5.673h6.484c0.417-0.521,0.989-1.276,1.719-2.266
			c0.52-0.729,0.911-1.276,1.172-1.641l0.938,0.547c-0.833,1.094-1.719,2.214-2.656,3.359h4.297V6.61h-5.703v2.344
			c0,0.469-0.027,0.911-0.078,1.328h6.406v0.938h-6.484c0,0.052-0.027,0.156-0.078,0.313c0,0.156-0.027,0.261-0.078,0.313
			c0.364,0.313,0.938,0.755,1.719,1.328c1.719,1.406,3.098,2.552,4.141,3.438l-0.859,0.859c-1.458-1.354-3.23-2.891-5.313-4.609
			c-0.677,1.875-2.552,3.542-5.625,5c-0.156-0.313-0.391-0.625-0.703-0.938c3.438-1.458,5.338-3.359,5.703-5.703h-5.625V10.282z
			 M85.971,2.392l0.781-0.625c0.833,0.833,1.641,1.745,2.422,2.734l-0.859,0.625C87.533,4.137,86.752,3.225,85.971,2.392z"/>
	</g>
	<g>
		<path fill="#335059" d="M663.394,9.657c0.261-0.104,0.703-0.313,1.328-0.625c1.614-0.677,2.839-1.224,3.672-1.641V1.767h1.094
			V12.47h-1.094V8.407c-1.458,0.677-2.995,1.458-4.609,2.344L663.394,9.657z M672.3,12.157h1.094
			c-0.052,0.521-0.13,1.016-0.234,1.484h8.75v0.938h-8.359c1.302,2.5,4.114,4.036,8.438,4.609c-0.208,0.313-0.417,0.651-0.625,1.016
			c-4.479-0.729-7.344-2.396-8.594-5c-0.625,2.396-3.567,4.167-8.828,5.313c-0.052-0.156-0.183-0.417-0.391-0.781
			c-0.052-0.156-0.104-0.261-0.156-0.313c5.156-0.886,7.969-2.5,8.438-4.844h-8.125v-0.938h8.438
			C672.248,13.173,672.3,12.678,672.3,12.157z M664.019,4.11l0.781-0.625c1.406,1.302,2.37,2.239,2.891,2.813l-0.859,0.703
			C665.894,6.012,664.956,5.048,664.019,4.11z M671.362,7.704c-0.261-0.261-0.547-0.495-0.859-0.703
			c1.927-1.563,3.438-3.333,4.531-5.313l1.094,0.313c-0.104,0.156-0.286,0.417-0.547,0.781c-0.313,0.573-0.573,0.989-0.781,1.25
			h6.25V4.97c-1.667,3.386-4.87,5.651-9.609,6.797c-0.156-0.417-0.339-0.729-0.547-0.938c4.427-1.042,7.448-2.995,9.063-5.859
			h-5.938c-0.156,0.208-0.364,0.442-0.625,0.703c0.417,0.261,0.989,0.729,1.719,1.406c0.364,0.261,0.625,0.469,0.781,0.625
			l-0.859,0.703c-0.313-0.313-0.859-0.808-1.641-1.484c-0.261-0.261-0.469-0.442-0.625-0.547
			C672.3,6.845,671.831,7.287,671.362,7.704z"/>
		<path fill="#335059" d="M685.894,3.954v6.172c0,2.708-0.13,4.714-0.391,6.016c-0.208,1.302-0.677,2.63-1.406,3.984
			c-0.052-0.052-0.13-0.104-0.234-0.156c-0.364-0.261-0.573-0.417-0.625-0.469c0.677-1.25,1.094-2.448,1.25-3.594
			c0.208-1.042,0.313-2.995,0.313-5.859V2.938h9.219v1.016H685.894z M686.831,6.688h6.875v0.938h-4.141
			c0,1.25-0.026,2.344-0.078,3.281h3.75c0,0.417-0.026,1.042-0.078,1.875c-0.052,2.083-0.104,3.516-0.156,4.297
			c-0.052,1.927-0.859,2.813-2.422,2.656c-0.313,0.052-0.729,0.078-1.25,0.078c0-0.469-0.052-0.833-0.156-1.094
			c0.364,0,0.781,0,1.25,0c0.989,0.156,1.511-0.364,1.563-1.563c0-0.156,0-0.339,0-0.547c0.104-2.083,0.156-3.672,0.156-4.766
			h-2.656c-0.156,3.698-1.042,6.484-2.656,8.359c-0.208-0.208-0.469-0.417-0.781-0.625c1.042-1.458,1.692-2.917,1.953-4.375
			c0.364-1.354,0.547-3.88,0.547-7.578h-1.719V6.688z M696.44,1.767h1.016c0,1.042,0,2.396,0,4.063h3.906
			c-0.052,4.375-0.156,8.047-0.313,11.016c0.052,2.136-0.781,3.151-2.5,3.047c-0.573,0-1.146,0-1.719,0
			c0-0.417-0.052-0.781-0.156-1.094c0.156,0,0.391,0,0.703,0c0.469,0.052,0.833,0.078,1.094,0.078
			c1.094,0.052,1.614-0.599,1.563-1.953c0.052-1.198,0.13-3.542,0.234-7.031c0.052-1.511,0.078-2.526,0.078-3.047h-2.969
			c0,1.042-0.026,1.953-0.078,2.734c0.052,4.844-1.016,8.438-3.203,10.781c-0.104-0.052-0.313-0.208-0.625-0.469
			c-0.156-0.104-0.261-0.183-0.313-0.234c2.083-2.083,3.125-5.339,3.125-9.766c0-0.208,0-0.599,0-1.172
			c0.052-0.833,0.078-1.458,0.078-1.875h-1.641V5.829h1.641c0-0.469,0.026-1.198,0.078-2.188
			C696.44,2.756,696.44,2.131,696.44,1.767z"/>
	</g>
	<g>
		<path fill="#335059" d="M697.962,165.877c0.169-0.067,0.457-0.203,0.863-0.406c1.049-0.439,1.845-0.795,2.387-1.066v-3.656h0.711
			v6.957h-0.711v-2.641c-0.948,0.44-1.947,0.948-2.996,1.523L697.962,165.877z M703.751,167.502h0.711
			c-0.034,0.339-0.085,0.66-0.152,0.965h5.688v0.609h-5.434c0.846,1.625,2.674,2.623,5.484,2.996
			c-0.136,0.203-0.271,0.423-0.406,0.66c-2.912-0.475-4.773-1.557-5.586-3.25c-0.406,1.558-2.319,2.708-5.738,3.453
			c-0.034-0.102-0.119-0.271-0.254-0.508c-0.034-0.102-0.068-0.17-0.102-0.203c3.352-0.576,5.18-1.625,5.484-3.148h-5.281v-0.609
			h5.484C703.717,168.162,703.751,167.841,703.751,167.502z M698.368,162.271l0.508-0.406c0.914,0.847,1.54,1.456,1.879,1.828
			l-0.559,0.457C699.587,163.508,698.978,162.881,698.368,162.271z M703.142,164.607c-0.17-0.169-0.355-0.321-0.559-0.457
			c1.252-1.016,2.234-2.166,2.945-3.453l0.711,0.203c-0.068,0.102-0.187,0.271-0.355,0.508c-0.203,0.373-0.373,0.644-0.508,0.813
			h4.063v0.609c-1.084,2.201-3.166,3.674-6.246,4.418c-0.102-0.271-0.221-0.474-0.355-0.609c2.877-0.677,4.841-1.946,5.891-3.809
			h-3.859c-0.102,0.136-0.237,0.288-0.406,0.457c0.271,0.17,0.643,0.475,1.117,0.914c0.236,0.17,0.406,0.305,0.508,0.406
			l-0.559,0.457c-0.203-0.203-0.559-0.524-1.066-0.965c-0.17-0.169-0.305-0.287-0.406-0.355
			C703.751,164.049,703.446,164.337,703.142,164.607z"/>
		<path fill="#335059" d="M712.587,162.17v4.012c0,1.761-0.085,3.064-0.254,3.91c-0.136,0.847-0.44,1.709-0.914,2.59
			c-0.034-0.034-0.085-0.068-0.152-0.102c-0.237-0.17-0.373-0.271-0.406-0.305c0.439-0.813,0.711-1.591,0.813-2.336
			c0.135-0.677,0.203-1.946,0.203-3.809v-4.621h5.992v0.66H712.587z M713.196,163.947h4.469v0.609h-2.691
			c0,0.813-0.018,1.523-0.051,2.133h2.438c0,0.271-0.018,0.678-0.051,1.219c-0.034,1.354-0.068,2.285-0.102,2.793
			c-0.034,1.252-0.559,1.828-1.574,1.727c-0.203,0.033-0.475,0.051-0.813,0.051c0-0.305-0.034-0.542-0.102-0.711
			c0.236,0,0.508,0,0.813,0c0.643,0.102,0.981-0.237,1.016-1.016c0-0.102,0-0.22,0-0.355c0.067-1.354,0.102-2.387,0.102-3.098
			h-1.727c-0.102,2.404-0.678,4.215-1.727,5.434c-0.136-0.136-0.305-0.271-0.508-0.406c0.677-0.948,1.1-1.896,1.27-2.844
			c0.236-0.88,0.355-2.521,0.355-4.926h-1.117V163.947z M719.442,160.748h0.66c0,0.678,0,1.558,0,2.641h2.539
			c-0.034,2.844-0.102,5.23-0.203,7.16c0.033,1.388-0.508,2.048-1.625,1.98c-0.373,0-0.745,0-1.117,0
			c0-0.271-0.034-0.508-0.102-0.711c0.102,0,0.254,0,0.457,0c0.305,0.033,0.541,0.051,0.711,0.051
			c0.711,0.033,1.049-0.39,1.016-1.27c0.033-0.778,0.084-2.302,0.152-4.57c0.033-0.981,0.051-1.642,0.051-1.98h-1.93
			c0,0.678-0.018,1.27-0.051,1.777c0.033,3.148-0.66,5.484-2.082,7.008c-0.068-0.034-0.203-0.136-0.406-0.305
			c-0.102-0.068-0.17-0.119-0.203-0.152c1.354-1.354,2.031-3.47,2.031-6.348c0-0.135,0-0.389,0-0.762
			c0.033-0.541,0.051-0.947,0.051-1.219h-1.066v-0.66h1.066c0-0.305,0.017-0.778,0.051-1.422
			C719.442,161.392,719.442,160.985,719.442,160.748z"/>
		<path fill="#335059" d="M725.231,163.592h3.047c0.236-0.914,0.423-1.879,0.559-2.895l0.762,0.102
			c-0.068,0.271-0.152,0.694-0.254,1.27c-0.136,0.678-0.237,1.186-0.305,1.523h7.059v0.66h-7.262
			c-0.17,0.644-0.355,1.27-0.559,1.879h6.348v0.609c-0.609,1.523-1.523,2.776-2.742,3.758c0.846,0.576,2.234,1.083,4.164,1.523
			c-0.102,0.135-0.221,0.338-0.355,0.609c-0.034,0.033-0.051,0.067-0.051,0.102c-1.828-0.508-3.284-1.101-4.367-1.777
			c-0.948,0.541-2.522,1.185-4.723,1.93c-0.034-0.136-0.136-0.305-0.305-0.508c-0.034-0.102-0.068-0.17-0.102-0.203
			c2.166-0.542,3.689-1.1,4.57-1.676c-1.186-0.981-2.031-2.234-2.539-3.758h-0.152c-0.847,2.1-2.065,3.944-3.656,5.535
			c-0.068-0.102-0.187-0.221-0.355-0.355c-0.102-0.102-0.17-0.17-0.203-0.203c2.133-1.997,3.571-4.485,4.316-7.465h-3.605v-0.813
			c0.372-0.778,0.677-1.54,0.914-2.285l0.711,0.203c-0.034,0.136-0.102,0.322-0.203,0.559
			C725.638,162.695,725.4,163.254,725.231,163.592z M733.915,166.74h-5.078c0.508,1.354,1.337,2.472,2.488,3.352
			C732.51,169.178,733.373,168.061,733.915,166.74z M731.884,161.408l0.406-0.508c0.744,0.475,1.473,0.965,2.184,1.473l-0.457,0.559
			C733.068,162.221,732.357,161.713,731.884,161.408z"/>
		<path fill="#335059" d="M737.013,163.033h5.84v0.66h-3.605c0,0.644-0.034,1.439-0.102,2.387h2.945
			c0,1.117-0.068,2.675-0.203,4.672c0.033,1.15-0.525,1.709-1.676,1.676c-0.373,0-0.694,0-0.965,0
			c-0.034-0.203-0.085-0.44-0.152-0.711c0.033,0,0.135,0,0.305,0c0.305,0.033,0.524,0.051,0.66,0.051
			c0.778,0.033,1.168-0.288,1.168-0.965c0.102-1.388,0.152-2.759,0.152-4.113h-2.285c-0.102,2.912-0.678,4.959-1.727,6.145
			c-0.034-0.034-0.102-0.102-0.203-0.203c-0.17-0.136-0.288-0.237-0.355-0.305c1.049-1.15,1.591-3.148,1.625-5.992
			c0.067-1.219,0.102-2.099,0.102-2.641h-1.523V163.033z M739.399,160.85l0.66-0.203c0.067,0.203,0.203,0.593,0.406,1.168
			c0.169,0.475,0.271,0.779,0.305,0.914l-0.66,0.203C739.94,162.391,739.704,161.696,739.399,160.85z M748.743,172.783
			c-1.287-0.813-2.285-1.607-2.996-2.387c-0.779,0.847-1.862,1.692-3.25,2.539c-0.203-0.305-0.355-0.525-0.457-0.66
			c1.523-0.881,2.623-1.709,3.301-2.488c-0.881-1.219-1.405-2.826-1.574-4.824c-0.136,0.237-0.339,0.576-0.609,1.016
			c-0.17,0.237-0.288,0.424-0.355,0.559c-0.068-0.102-0.203-0.254-0.406-0.457l-0.102-0.102c1.083-1.455,1.896-3.232,2.438-5.332
			l0.711,0.152c-0.237,0.813-0.525,1.592-0.863,2.336h4.57v0.66h-1.066c-0.237,2.573-0.863,4.588-1.879,6.043
			c0.711,0.847,1.709,1.591,2.996,2.234c-0.034,0.067-0.102,0.186-0.203,0.355C748.861,172.597,748.776,172.715,748.743,172.783z
			 M745.747,169.229c0.88-1.185,1.438-2.996,1.676-5.434h-3.098l-0.051,0.102c0,0.034-0.018,0.068-0.051,0.102
			C744.46,166.267,744.968,168.01,745.747,169.229z"/>
	</g>
	<g>
		<g>
			<g>
				<path fill="none" stroke="#335059" stroke-width="0.6719" stroke-miterlimit="10" d="M74.9,123.088
					c0-0.517,0.009-1.03,0.023-1.542"/>
				<path fill="none" stroke="#335059" stroke-width="0.6719" stroke-miterlimit="10" stroke-dasharray="1.5521,1.5521" d="
					M75.141,118.532c2.271-21.244,20.253-37.79,42.102-37.79c22.359,0,40.673,17.33,42.236,39.293"/>
				<path fill="none" stroke="#335059" stroke-width="0.6719" stroke-miterlimit="10" d="M159.563,121.547
					c0.015,0.513,0.026,1.024,0.026,1.542"/>
			</g>
		</g>
		<path fill="#FFFFFF" stroke="#335059" stroke-width="0.755" stroke-miterlimit="10" d="M68.499,105.243
			c0-5.71,4.627-10.341,10.337-10.341c5.713,0,10.341,4.631,10.341,10.341s-4.627,10.34-10.341,10.34
			C73.125,115.584,68.499,110.954,68.499,105.243z"/>
		<circle fill="#FFFFFF" stroke="#335059" stroke-width="0.755" stroke-miterlimit="10" cx="155.862" cy="105.243" r="10.742"/>
		<circle fill="#FFFFFF" stroke="#335059" stroke-width="0.755" stroke-miterlimit="10" cx="117.243" cy="80.742" r="11.832"/>
		<path fill-rule="evenodd" clip-rule="evenodd" fill="#CDE9F3" stroke="#335059" stroke-width="0.755" stroke-miterlimit="10" d="
			M136.601,117.171c-1.562,0-3.067,0.237-4.486,0.672c-0.85-7.209-6.971-12.803-14.407-12.803c-7.322,0-13.361,5.426-14.357,12.473
			c-0.677-0.219-1.398-0.342-2.149-0.342c-3.844,0-6.96,3.117-6.96,6.961c0,0.202,0.013,0.4,0.029,0.598
			c-0.009,0-0.019-0.001-0.029-0.001c-6.371,0-11.535,5.163-11.535,11.534s5.164,11.535,11.535,11.535h18.017v-13.887l-6.354,0.002
			l11.399-8.904l11.414,8.896l-6.359,0.002v13.891h15.237v-0.05c7.992-0.515,14.319-7.142,14.319-15.263
			C151.914,124.027,145.058,117.171,136.601,117.171z"/>
		<g>
			<path fill="#CDE9F3" stroke="#335059" stroke-width="0.4" stroke-miterlimit="10" d="M80.022,104.147
				c-0.073-0.072-0.151-0.139-0.232-0.2c-0.082-0.08-0.194-0.128-0.319-0.128c-0.253,0-0.459,0.205-0.459,0.459
				c0,0.113,0.04,0.216,0.107,0.296c0.032,0.038,0.07,0.072,0.114,0.098c0.043,0.036,0.086,0.07,0.125,0.111l0.039,0.037
				c0.476,0.477,0.334,1.297-0.143,1.775l-2.035,2.033c-0.477,0.476-1.252,0.476-1.729,0l-0.038-0.038
				c-0.477-0.477-0.477-1.253,0-1.728l0.898-0.9c0.116-0.092,0.189-0.231,0.189-0.392c0-0.274-0.224-0.499-0.5-0.499
				c-0.104,0-0.2,0.032-0.28,0.086c0-0.001,0-0.001-0.001-0.001l-0.01,0.009c-0.036,0.025-0.067,0.056-0.095,0.089l-0.934,0.874
				c-0.878,0.88-0.878,2.316,0,3.194l0.038,0.037c0.878,0.878,2.314,0.878,3.193,0l2.034-2.034c0.877-0.878,0.951-2.264,0.074-3.142
				L80.022,104.147z"/>
			<path fill="#CDE9F3" stroke="#335059" stroke-width="0.4" stroke-miterlimit="10" d="M82.955,101.164l-0.038-0.039
				c-0.878-0.878-2.314-0.878-3.193,0l-2.034,2.036c-0.878,0.877-0.926,2.146-0.048,3.024l0.038,0.037
				c0.04,0.039,0.081,0.078,0.124,0.112c0.03,0.035,0.066,0.063,0.106,0.087h0c0.064,0.038,0.138,0.059,0.217,0.059
				c0.24,0,0.434-0.194,0.434-0.434c0-0.068-0.015-0.133-0.043-0.189c-0.058-0.129-0.165-0.208-0.239-0.281l-0.038-0.038
				c-0.477-0.477-0.296-1.169,0.182-1.646l2.036-2.034c0.476-0.477,1.251-0.477,1.728,0l0.038,0.037
				c0.477,0.477,0.477,1.254,0,1.729l-0.896,0.898c-0.121,0.09-0.2,0.234-0.2,0.397c0,0.274,0.221,0.495,0.496,0.495
				c0.095,0,0.184-0.026,0.26-0.073c0,0.002,0,0.002,0.001,0.003l0.014-0.013c0.043-0.029,0.081-0.064,0.113-0.104l0.945-0.871
				C83.833,103.478,83.833,102.042,82.955,101.164z"/>
		</g>
		<g>
			<path fill="#CDE9F3" stroke="#335059" stroke-width="0.5" stroke-miterlimit="10" d="M120.416,84.56h-6.346
				c-0.766,0-1.388-0.624-1.388-1.389v-4.859c0-0.765,0.623-1.388,1.388-1.388h6.346c0.766,0,1.389,0.623,1.389,1.389v4.858
				C121.804,83.936,121.182,84.559,120.416,84.56L120.416,84.56z"/>
			<path fill="#335059" d="M117.144,80.928c-0.04,0-0.079-0.012-0.112-0.035l-3.52-2.406c-0.091-0.063-0.114-0.186-0.052-0.276
				c0.062-0.09,0.186-0.113,0.276-0.052l3.412,2.332l3.607-2.334c0.092-0.061,0.214-0.033,0.274,0.059
				c0.06,0.092,0.033,0.215-0.059,0.273l-3.719,2.406C117.219,80.916,117.181,80.928,117.144,80.928L117.144,80.928z"/>
		</g>
		<g>
			<path fill="#CDE9F3" stroke="#335059" stroke-width="0.5" stroke-miterlimit="10" d="M159.622,101.4h-7.539
				c-0.458,0-0.843,0.367-0.843,0.845v4.695c0,0.458,0.367,0.844,0.843,0.844h0.697l-0.073,1.283
				c-0.019,0.146,0.165,0.238,0.275,0.146l1.87-1.43h4.787c0.458,0,0.843-0.367,0.843-0.844v-4.695
				C160.465,101.768,160.08,101.4,159.622,101.4z"/>
			<path fill="#FFFFFF" stroke="#335059" stroke-width="0.2" stroke-miterlimit="10" d="M154.193,104.831
				c0,0.238-0.202,0.439-0.44,0.439h-0.44c-0.238,0-0.44-0.201-0.44-0.439v-0.44c0-0.239,0.202-0.44,0.44-0.44h0.44
				c0.238,0,0.44,0.201,0.44,0.44V104.831z"/>
			<path fill="#FFFFFF" stroke="#335059" stroke-width="0.2" stroke-miterlimit="10" d="M156.503,104.831
				c0,0.238-0.202,0.439-0.44,0.439h-0.441c-0.238,0-0.44-0.201-0.44-0.439v-0.44c0-0.239,0.202-0.44,0.44-0.44h0.441
				c0.238,0,0.44,0.201,0.44,0.44V104.831z"/>
			<path fill="#FFFFFF" stroke="#335059" stroke-width="0.2" stroke-miterlimit="10" d="M158.814,104.831
				c0,0.238-0.202,0.439-0.44,0.439h-0.44c-0.238,0-0.44-0.201-0.44-0.439v-0.44c0-0.239,0.202-0.44,0.44-0.44h0.44
				c0.238,0,0.44,0.201,0.44,0.44V104.831z"/>
		</g>
	</g>
	<g>
		
			<rect x="382.361" y="71.562" fill="#FFFFFF" stroke="#335059" stroke-width="0.755" stroke-miterlimit="10" width="76.396" height="71.748"/>
		
			<rect x="382.547" y="71.616" fill="#CDE9F3" stroke="#335059" stroke-width="0.755" stroke-miterlimit="10" width="76.023" height="7.133"/>
		<circle fill="#FFFFFF" stroke="#335059" stroke-width="0.2" stroke-miterlimit="10" cx="444.564" cy="75.184" r="1.131"/>
		<circle fill="#FFFFFF" stroke="#335059" stroke-width="0.2" stroke-miterlimit="10" cx="449.005" cy="75.184" r="1.132"/>
		<circle fill="#FFFFFF" stroke="#335059" stroke-width="0.2" stroke-miterlimit="10" cx="453.45" cy="75.184" r="1.132"/>
		<g>
			<path fill="#FFFFFF" stroke="#335059" stroke-width="0.5" stroke-miterlimit="10" d="M433.313,93.448
				c0,0.609-0.493,1.102-1.101,1.102h-10.797c-0.607,0-1.102-0.492-1.102-1.102l0,0c0-0.608,0.494-1.102,1.102-1.102h10.797
				C432.819,92.347,433.313,92.84,433.313,93.448L433.313,93.448z"/>
			<path fill="#FFFFFF" stroke="#335059" stroke-width="0.5" stroke-miterlimit="10" d="M433.313,98.622
				c0,0.609-0.493,1.104-1.101,1.104h-10.797c-0.607,0-1.102-0.494-1.102-1.104l0,0c0-0.606,0.494-1.101,1.102-1.101h10.797
				C432.819,97.521,433.313,98.016,433.313,98.622L433.313,98.622z"/>
			<path fill="#FFFFFF" stroke="#335059" stroke-width="0.5" stroke-miterlimit="10" d="M450.94,103.798
				c0,0.609-0.495,1.102-1.103,1.102h-28.423c-0.607,0-1.102-0.492-1.102-1.102l0,0c0-0.608,0.494-1.101,1.102-1.101h28.423
				C450.445,102.697,450.94,103.189,450.94,103.798L450.94,103.798z"/>
			<path fill="#FFFFFF" stroke="#335059" stroke-width="0.5" stroke-miterlimit="10" d="M450.94,108.974
				c0,0.607-0.495,1.101-1.103,1.101h-28.423c-0.607,0-1.102-0.493-1.102-1.101l0,0c0-0.608,0.494-1.103,1.102-1.103h28.423
				C450.445,107.871,450.94,108.365,450.94,108.974L450.94,108.974z"/>
		</g>
		<g>
			<path fill="#CDE9F3" stroke="#335059" stroke-width="0.5" stroke-miterlimit="10" d="M449.685,120.363h-57.695
				c-0.465,0-0.844-0.378-0.844-0.845s0.379-0.845,0.844-0.845h57.695c0.468,0,0.846,0.378,0.846,0.845
				S450.152,120.363,449.685,120.363z"/>
		</g>
		<g>
			<path fill="#CDE9F3" stroke="#335059" stroke-width="0.5" stroke-miterlimit="10" d="M449.685,124.867h-57.695
				c-0.465,0-0.844-0.378-0.844-0.845s0.379-0.845,0.844-0.845h57.695c0.468,0,0.846,0.378,0.846,0.845
				S450.152,124.867,449.685,124.867z"/>
		</g>
		<g>
			<path fill="#CDE9F3" stroke="#335059" stroke-width="0.5" stroke-miterlimit="10" d="M420.414,129.794h-28.847
				c-0.232,0-0.422-0.378-0.422-0.845s0.189-0.845,0.422-0.845h28.847c0.234,0,0.422,0.378,0.422,0.845
				S420.648,129.794,420.414,129.794z"/>
		</g>
		<g>
			<path fill="#CDE9F3" stroke="#335059" stroke-width="0.5" stroke-miterlimit="10" d="M420.414,135.071h-28.847
				c-0.232,0-0.422-0.377-0.422-0.844c0-0.466,0.189-0.844,0.422-0.844h28.847c0.234,0,0.422,0.378,0.422,0.844
				C420.836,134.694,420.648,135.071,420.414,135.071z"/>
		</g>
		<circle fill="#FFFFFF" stroke="#335059" stroke-width="0.755" stroke-miterlimit="10" cx="402.08" cy="98.623" r="10.639"/>
		
			<line fill="none" stroke="#335059" stroke-width="0.755" stroke-miterlimit="10" x1="407.99" y1="93.71" x2="400.228" y2="104.578"/>
		
			<line fill="none" stroke="#335059" stroke-width="0.755" stroke-miterlimit="10" x1="400.384" y1="104.229" x2="396.097" y2="101.167"/>
	</g>
	<g>
		<g>
			<g>
				<path fill="none" stroke="#335059" stroke-width="0.755" stroke-miterlimit="10" d="M714.778,114.671h-23.14
					c-8.104,0-14.674-6.567-14.674-14.673l0,0c0-8.103,6.57-14.673,14.674-14.673"/>
			</g>
			<g>
				<path fill="none" stroke="#335059" stroke-width="0.755" stroke-miterlimit="10" d="M706.648,114.671h48.504
					c8.104,0,14.674,6.57,14.674,14.674l0,0c0,8.104-6.57,14.675-14.674,14.675"/>
			</g>
		</g>
		<g>
			<g>
				<rect x="691.513" y="84.996" fill="#335059" width="26.318" height="0.655"/>
			</g>
			<g>
				<polygon fill="#CDE9F3" points="720.454,85.324 717.831,83.052 717.831,87.597 				"/>
				<path fill="#335059" d="M717.667,82.692l3.037,2.632l-3.037,2.631V82.692z M717.995,83.411v3.828l2.209-1.914L717.995,83.411z"
					/>
			</g>
			<circle fill="#FFFFFF" stroke="#335059" stroke-width="0.3479" stroke-miterlimit="10" cx="691.396" cy="85.324" r="1.148"/>
		</g>
		<g>
			<g>
				<rect x="728.423" y="143.689" fill="#335059" width="26.316" height="0.656"/>
			</g>
			<g>
				<polygon fill="#CDE9F3" points="725.798,144.02 728.423,146.291 728.423,141.746 				"/>
				<path fill="#335059" d="M728.587,146.648l-3.039-2.631l3.039-2.631V146.648z M728.259,145.934v-3.828l-2.209,1.914
					L728.259,145.934z"/>
			</g>
			<circle fill="#FFFFFF" stroke="#335059" stroke-width="0.3479" stroke-miterlimit="10" cx="754.857" cy="144.019" r="1.147"/>
		</g>
		<path fill="#CDE9F3" stroke="#335059" stroke-width="0.755" stroke-miterlimit="10" d="M729.737,96.167
			c-0.652,0-1.183-0.534-1.178-1.184l0.106-17.314c0.003-0.652,0.414-1.531,0.91-1.95l12.566-10.636
			c0.497-0.42,1.319-0.428,1.824-0.018l13.128,10.671c0.506,0.41,0.923,1.28,0.927,1.933l0.106,17.314
			c0.003,0.649-0.527,1.184-1.177,1.184H729.737z"/>
		<path fill="#FFFFFF" stroke="#335059" stroke-width="0.755" stroke-miterlimit="10" d="M734.673,67.58
			c-1.308,0-2.372,1.398-2.372,3.113v12.662c0,1.716,1.064,3.112,2.372,3.112h17.012c1.309,0,2.376-1.396,2.376-3.112V70.693
			c0-1.715-1.067-3.113-2.376-3.113H734.673z"/>
		<g>
			<defs>
				<path id="SVGID_1_" d="M730.051,95.819c-0.646,0-1.168-0.527-1.163-1.172l0.105-17.122c0.003-0.645,0.409-1.513,0.902-1.931
					l12.425-10.516c0.491-0.416,1.302-0.423,1.804-0.017l12.983,10.553c0.499,0.405,0.912,1.266,0.915,1.91l0.105,17.122
					c0.003,0.645-0.521,1.172-1.164,1.172H730.051z"/>
			</defs>
			<clipPath id="SVGID_2_">
				<use xlink:href="#SVGID_1_"  overflow="visible"/>
			</clipPath>
			<polygon clip-path="url(#SVGID_2_)" fill="#E1F4F9" points="726.566,95.819 743.507,95.819 743.507,83.784 725.834,78.805 			"/>
		</g>
		<g>
			<defs>
				<path id="SVGID_3_" d="M756.637,95.994c0.643,0,1.167-0.527,1.162-1.172l-0.104-17.123c-0.005-0.645-0.409-1.512-0.901-1.929
					l-12.428-10.517c-0.491-0.416-1.303-0.424-1.803-0.017L729.58,75.789c-0.5,0.407-0.912,1.266-0.917,1.91l-0.104,17.123
					c-0.005,0.645,0.52,1.172,1.165,1.172H756.637z"/>
			</defs>
			<clipPath id="SVGID_4_">
				<use xlink:href="#SVGID_3_"  overflow="visible"/>
			</clipPath>
			<polygon clip-path="url(#SVGID_4_)" fill="#E1F4F9" points="760.121,95.994 743.179,95.994 743.179,83.957 760.854,78.98 			"/>
		</g>
		
			<line fill="none" stroke="#2C515A" stroke-width="0.7" stroke-miterlimit="10" x1="743.179" y1="83.957" x2="743.179" y2="95.994"/>
		
			<line fill="none" stroke="#2C515A" stroke-width="0.7" stroke-miterlimit="10" x1="743.179" y1="83.957" x2="728.781" y2="79.554"/>
		
			<line fill="none" stroke="#2C515A" stroke-width="0.7" stroke-miterlimit="10" x1="743.179" y1="83.957" x2="757.799" y2="79.839"/>
		<g>
			<path fill="#2C515A" stroke="#FFFFFF" stroke-width="0.2" stroke-miterlimit="10" d="M742.025,78.612l-1.364-5.42v5.873
				c0,0.325-0.074,0.569-0.218,0.73c-0.144,0.165-0.338,0.246-0.58,0.246c-0.229,0-0.42-0.081-0.567-0.24
				c-0.146-0.161-0.22-0.407-0.22-0.736v-6.732c0-0.371,0.097-0.62,0.29-0.753c0.193-0.127,0.454-0.191,0.784-0.191h0.532
				c0.321,0,0.556,0.027,0.7,0.085c0.146,0.06,0.254,0.163,0.323,0.313s0.147,0.396,0.237,0.739l1.235,4.659l1.237-4.659
				c0.09-0.343,0.166-0.589,0.236-0.739s0.177-0.254,0.323-0.313c0.144-0.058,0.379-0.085,0.699-0.085h0.534
				c0.327,0,0.589,0.064,0.783,0.191c0.195,0.133,0.29,0.382,0.29,0.753v6.732c0,0.325-0.072,0.569-0.216,0.73
				c-0.147,0.165-0.34,0.246-0.585,0.246c-0.229,0-0.415-0.081-0.563-0.246c-0.146-0.161-0.22-0.405-0.22-0.73v-5.873l-1.364,5.42
				c-0.087,0.353-0.161,0.612-0.218,0.775c-0.057,0.164-0.16,0.316-0.31,0.448c-0.151,0.137-0.357,0.206-0.628,0.206
				c-0.199,0-0.371-0.043-0.508-0.131c-0.142-0.087-0.249-0.2-0.329-0.335c-0.076-0.135-0.137-0.285-0.182-0.448
				C742.116,78.963,742.072,78.791,742.025,78.612z"/>
		</g>
		<g>
			<path fill="#CDE9F3" stroke="#335059" stroke-width="0.755" stroke-miterlimit="10" d="M736.4,108.18h-4.297
				c0.552-0.705,0.882-1.591,0.882-2.553c0-2.276-1.848-4.128-4.115-4.128c-1.365,0-2.572,0.668-3.322,1.692
				c-0.75-1.024-1.957-1.692-3.322-1.692c-2.267,0-4.115,1.852-4.115,4.128c0,0.962,0.33,1.848,0.882,2.553h-4.297
				c-1.468,0-2.662,1.197-2.662,2.669v3.321c0,1.21,0.806,2.233,1.907,2.563v9.128c0,1.437,1.165,2.604,2.597,2.604h8.7
				c0.096,0.041,0.201,0.063,0.311,0.063s0.215-0.022,0.311-0.063h8.7c1.432,0,2.597-1.168,2.597-2.604v-9.128
				c1.102-0.329,1.907-1.353,1.907-2.563v-3.321C739.063,109.377,737.868,108.18,736.4,108.18z M724.753,108.162h-2.521
				c-0.004,0-0.006,0-0.01,0c-1.39-0.002-2.521-1.138-2.521-2.535s1.133-2.534,2.524-2.534c1.395,0,2.526,1.136,2.527,2.534V108.162
				z M728.871,108.162h-2.528v-2.531c0-0.002,0-0.004,0-0.007c0.001-1.396,1.135-2.531,2.527-2.531c1.392,0,2.524,1.137,2.524,2.534
				S730.264,108.161,728.871,108.162z"/>
			<path fill="#FFFFFF" stroke="#335059" stroke-width="0.5" stroke-miterlimit="10" d="M715.53,125.86v-9.02h9.223v10.029h-8.216
				C715.981,126.87,715.53,126.417,715.53,125.86L715.53,125.86z"/>
			<path fill="#FFFFFF" stroke="#335059" stroke-width="0.5" stroke-miterlimit="10" d="M734.559,126.87h-8.216v-10.029h9.223v9.02
				C735.565,126.417,735.114,126.87,734.559,126.87L734.559,126.87z"/>
			<path fill="#E1F4F9" stroke="#335059" stroke-width="0.5" stroke-miterlimit="10" d="M736.4,109.774
				c0.59,0,1.073,0.483,1.073,1.074v3.321l0,0c0,0.591-0.483,1.076-1.073,1.076h-11.647h-10.058c-0.59,0-1.073-0.485-1.073-1.076
				l0,0v-3.321c0-0.591,0.483-1.074,1.073-1.074H736.4z"/>
		</g>
		<g>
			<path fill="#FFFFFF" stroke="#335059" stroke-width="0.755" stroke-miterlimit="10" d="M708.961,150.952h-28.376
				c-0.332,0-0.604-0.277-0.604-0.621v-7.49c1.357-0.157,2.415-1.327,2.415-2.765c0-1.439-1.058-2.608-2.415-2.766v-7.489
				c0-0.345,0.271-0.622,0.604-0.622h28.376c0.335,0,0.606,0.277,0.606,0.622v7.489c-1.357,0.157-2.417,1.326-2.417,2.766
				c0,1.438,1.06,2.607,2.417,2.765v7.49C709.567,150.675,709.296,150.952,708.961,150.952"/>
			<rect x="684.812" y="135.414" fill="#CDE9F3" width="0.604" height="9.322"/>
			<path fill="#335059" d="M699,139.142c0.5,0,0.905-0.415,0.905-0.931c0-0.515-0.405-0.933-0.905-0.933h-0.905l1.575-3.056
				c0.235-0.379,0.095-0.86-0.313-1.077c-0.409-0.217-0.934-0.087-1.169,0.291l-1.979,3.842h-2.871l-1.978-3.842
				c-0.235-0.378-0.759-0.508-1.169-0.291c-0.408,0.217-0.55,0.698-0.314,1.077l1.574,3.056h-0.903
				c-0.502,0-0.906,0.418-0.906,0.933c0,0.516,0.404,0.931,0.906,0.931h3.32v3.109h-3.32c-0.502,0-0.906,0.417-0.906,0.932
				c0,0.516,0.404,0.933,0.906,0.933h3.32v2.109c0,0.551,0.405,0.998,0.905,0.998c0.499,0,0.905-0.447,0.905-0.998v-2.109H699
				c0.5,0,0.905-0.417,0.905-0.933c0-0.515-0.405-0.932-0.905-0.932h-3.321v-3.109H699L699,139.142z"/>
			<rect x="704.131" y="135.414" fill="#CDE9F3" width="0.606" height="9.322"/>
		</g>
		<g>
			<path fill="#FFFFFF" stroke="#335059" stroke-width="0.755" stroke-miterlimit="10" d="M718.318,155.323h-28.377
				c-0.332,0-0.603-0.277-0.603-0.621v-7.49c1.356-0.157,2.415-1.327,2.415-2.766s-1.059-2.607-2.415-2.765v-7.49
				c0-0.344,0.271-0.621,0.603-0.621h28.377c0.334,0,0.605,0.277,0.605,0.621v7.49c-1.356,0.157-2.416,1.326-2.416,2.765
				s1.06,2.608,2.416,2.766v7.49C718.924,155.046,718.652,155.323,718.318,155.323"/>
			<rect x="694.169" y="139.785" fill="#CDE9F3" width="0.603" height="9.322"/>
			<path fill="#335059" d="M708.356,143.513c0.5,0,0.906-0.415,0.906-0.931c0-0.515-0.406-0.933-0.906-0.933h-0.904l1.575-3.057
				c0.235-0.378,0.094-0.859-0.313-1.076c-0.41-0.217-0.934-0.087-1.169,0.291l-1.979,3.842h-2.871l-1.978-3.842
				c-0.235-0.378-0.759-0.508-1.169-0.291c-0.409,0.217-0.551,0.698-0.315,1.076l1.574,3.057h-0.903
				c-0.501,0-0.906,0.418-0.906,0.933c0,0.516,0.405,0.931,0.906,0.931h3.321v3.109h-3.321c-0.501,0-0.906,0.417-0.906,0.932
				c0,0.516,0.405,0.932,0.906,0.932h3.321v2.109c0,0.552,0.404,0.999,0.904,0.999s0.906-0.447,0.906-0.999v-2.109h3.32
				c0.5,0,0.906-0.416,0.906-0.932c0-0.515-0.406-0.932-0.906-0.932h-3.32v-3.109H708.356L708.356,143.513z"/>
			<rect x="713.488" y="139.785" fill="#CDE9F3" width="0.605" height="9.322"/>
		</g>
	</g>
	<g>
		<path fill="#335059" d="M364.641,8.178v8.203c0.416-0.364,1.066-0.911,1.953-1.641c0.729-0.625,1.25-1.067,1.563-1.328
			c0,0.261,0.078,0.625,0.234,1.094c-0.418,0.365-1.094,0.938-2.031,1.719c-0.834,0.678-1.434,1.172-1.797,1.484
			c-0.209,0.156-0.469,0.365-0.781,0.625L363,17.709c0.363-0.416,0.547-0.938,0.547-1.563V9.115h-2.656V8.178H364.641z
			 M365.813,6.068c-0.73-0.885-1.746-1.953-3.047-3.203l0.859-0.703c0.988,0.99,2.031,2.031,3.125,3.125L365.813,6.068z
			 M372.531,1.928h1.094c0,1.615-0.027,2.865-0.078,3.75c0.676,6.719,2.76,11.12,6.25,13.203c-0.313,0.313-0.6,0.65-0.859,1.016
			c-3.178-2.239-5.078-5.911-5.703-11.016c-0.418,4.896-2.422,8.698-6.016,11.406c-0.105-0.104-0.234-0.261-0.391-0.469
			c-0.209-0.209-0.365-0.365-0.469-0.469c4.063-2.813,6.094-7.109,6.094-12.891C372.504,5.418,372.531,3.907,372.531,1.928z"/>
		<path fill="#335059" d="M384.328,16.303c0.572-0.572,1.328-1.328,2.266-2.266c0,0.156,0.051,0.495,0.156,1.016
			c0.051,0.053,0.078,0.104,0.078,0.156c-0.365,0.365-0.99,0.99-1.875,1.875c-0.678,0.678-1.146,1.146-1.406,1.406l-0.859-0.703
			c0.416-0.521,0.598-1.197,0.547-2.031V9.271h-2.344V8.256h3.438V16.303z M383.078,2.396c0.781,0.729,1.744,1.719,2.891,2.969
			l-0.859,0.703c-0.887-0.989-1.85-2.005-2.891-3.047L383.078,2.396z M386.906,3.881V2.865h12.578v1.016h-5.234v6.172h4.531v1.016
			h-4.531v7.266h5.547v0.938h-13.984v-0.938h2.734V7.631h1.016v10.703h3.594V3.881H386.906z"/>
		<path fill="#335059" d="M400.891,13.959h13.984v1.016h-13.984V13.959z M404.016,10.521l0.938-8.828h1.094l-0.313,3.125h13.984
			v1.016h-14.063l-0.391,3.594h13.047c-0.209,3.49-0.391,5.99-0.547,7.5c-0.105,2.031-1.434,3.047-3.984,3.047
			c-1.668,0-3.047,0-4.141,0c0-0.156-0.027-0.365-0.078-0.625c-0.053-0.261-0.105-0.469-0.156-0.625
			c1.197,0.104,2.604,0.156,4.219,0.156c1.875,0.052,2.891-0.651,3.047-2.109c0.051-0.416,0.104-1.067,0.156-1.953
			c0.156-1.927,0.26-3.359,0.313-4.297H404.016z"/>
		<path fill="#335059" d="M438,12.865c-0.469-0.469-0.938-0.938-1.406-1.406c-0.418,0-1.016,0.026-1.797,0.078
			c-0.781,0-1.381,0.026-1.797,0.078v5.859c-0.053,1.094,0.469,1.614,1.563,1.563h1.797c1.25,0,1.953-0.417,2.109-1.25
			c0.051-0.208,0.104-0.65,0.156-1.328c0.051-0.364,0.078-0.625,0.078-0.781c0.313,0.156,0.676,0.287,1.094,0.391
			c-0.105,0.834-0.209,1.511-0.313,2.031c-0.156,1.354-1.199,1.979-3.125,1.875h-2.031c-1.719,0.052-2.527-0.678-2.422-2.188v-6.172
			c-0.418,0-1.016,0.026-1.797,0.078c-0.73,0-1.25,0-1.563,0c-0.053,2.656-0.521,4.506-1.406,5.547
			c-0.834,1.094-2.631,2.135-5.391,3.125c-0.156-0.313-0.391-0.625-0.703-0.938c2.604-0.834,4.297-1.719,5.078-2.656
			c0.832-0.938,1.275-2.604,1.328-5c-0.262,0-0.625,0.026-1.094,0.078c-0.418,0-0.73,0-0.938,0c-0.887,0-1.563,0.053-2.031,0.156
			l-0.625-1.094c0.469-0.156,1.016-0.494,1.641-1.016c1.822-1.458,3.332-2.916,4.531-4.375h-7.578V4.506h8.906
			c-0.262-0.989-0.521-1.822-0.781-2.5l1.016-0.234c0.104,0.209,0.26,0.678,0.469,1.406c0.156,0.625,0.285,1.068,0.391,1.328h8.125
			v1.016h-10.078l0.781,0.391c-1.406,1.459-3.203,3.125-5.391,5c4.582-0.104,8.203-0.234,10.859-0.391
			c-0.938-0.885-1.85-1.719-2.734-2.5l0.781-0.703c1.51,1.354,3.229,2.943,5.156,4.766L438,12.865z"/>
		<path fill="#335059" d="M441.281,12.006c-0.156-0.313-0.365-0.625-0.625-0.938c1.822-2.656,3.307-5.755,4.453-9.297l1.016,0.234
			c-0.625,1.771-1.277,3.438-1.953,5v13.281h-1.016V9.037C442.531,10.079,441.906,11.068,441.281,12.006z M452.219,1.771h1.094
			v1.953h6.094v0.938h-6.094V6.85H458v11.953h1.797v0.938h-14.141v-0.938h1.953V6.85h4.609V4.662h-5.703V3.725h5.703V1.771z
			 M448.625,7.709v2.188h8.281V7.709H448.625z M448.625,10.756v2.109h8.281v-2.109H448.625z M448.625,13.803v2.109h8.281v-2.109
			H448.625z M448.625,16.771v2.031h8.281v-2.031H448.625z"/>
	</g>
	<g>
		<path fill="#335059" d="M366.294,170.271l-0.559,0.508c-0.339-0.236-0.897-0.693-1.676-1.371c-0.508,0.813-1.32,1.676-2.438,2.59
			c-0.17-0.17-0.355-0.355-0.559-0.559c1.15-0.778,1.98-1.607,2.488-2.488c-0.203-0.169-0.508-0.439-0.914-0.813
			c-0.44-0.338-0.762-0.592-0.965-0.762c0.203-0.813,0.474-2.115,0.813-3.91h-1.219v-0.66h1.371c0.067-0.305,0.135-0.744,0.203-1.32
			c0.102-0.609,0.169-1.049,0.203-1.32l0.711,0.051c-0.136,0.914-0.288,1.777-0.457,2.59h2.387v0.66
			c-0.203,2.37-0.627,4.147-1.27,5.332C365.092,169.307,365.718,169.798,366.294,170.271z M364.974,163.467h-1.777
			c-0.271,1.422-0.288,1.523-0.051,0.305c-0.237,1.219-0.508,2.336-0.813,3.352c0.102,0.068,0.271,0.187,0.508,0.355
			c0.135,0.102,0.49,0.39,1.066,0.863C364.517,167.09,364.872,165.465,364.974,163.467z M368.579,171.338
			c0.643,0.033,0.947-0.254,0.914-0.863v-3.961h-3.504v-0.66h3.504v-2.031l2.539-2.184h-5.535v-0.609h6.398v0.762l-2.691,2.285
			v1.777h3.199v0.66h-3.199v4.063c0.033,0.947-0.475,1.438-1.523,1.473c-0.576,0-1.066,0-1.473,0
			c-0.034-0.237-0.085-0.491-0.152-0.762C367.563,171.32,368.071,171.338,368.579,171.338z"/>
		<path fill="#335059" d="M378.38,160.115l0.711,0.102c-0.034,0.203-0.085,0.508-0.152,0.914c-0.068,0.44-0.119,0.762-0.152,0.965
			h7.465v0.66h-7.617c-0.136,0.745-0.305,1.473-0.508,2.184h6.703v0.609c-0.609,1.761-1.574,3.183-2.895,4.266
			c0.914,0.644,2.318,1.201,4.215,1.676c-0.034,0.102-0.102,0.236-0.203,0.406c-0.068,0.169-0.136,0.287-0.203,0.355
			c-1.795-0.542-3.25-1.202-4.367-1.98c-1.186,0.744-2.742,1.422-4.672,2.031c-0.102-0.271-0.237-0.508-0.406-0.711
			c1.997-0.542,3.486-1.134,4.469-1.777c-1.151-1.083-1.998-2.505-2.539-4.266h-0.305c-0.711,2.37-1.828,4.418-3.352,6.145
			c-0.203-0.203-0.39-0.39-0.559-0.559c1.93-2.031,3.232-4.824,3.91-8.379h-3.453v-0.66h3.605
			C378.177,161.419,378.278,160.759,378.38,160.115z M384.067,165.549h-5.129c0.541,1.659,1.354,2.929,2.438,3.809
			C382.696,168.376,383.593,167.106,384.067,165.549z"/>
		<path fill="#335059" d="M389.247,165.955c-0.678-0.609-1.371-1.15-2.082-1.625l0.457-0.508c0.711,0.508,1.404,1.033,2.082,1.574
			L389.247,165.955z M387.47,171.846c0.541-1.252,1.066-2.742,1.574-4.469c0.338,0.17,0.575,0.271,0.711,0.305
			c-0.305,0.779-0.83,2.269-1.574,4.469L387.47,171.846z M389.856,162.654c-0.136-0.102-0.322-0.254-0.559-0.457
			c-0.678-0.541-1.202-0.947-1.574-1.219l0.457-0.508c0.271,0.203,0.677,0.508,1.219,0.914c0.439,0.305,0.762,0.542,0.965,0.711
			L389.856,162.654z M391.177,166.361h3.352v-3.352h-3.707v-0.66h4.113c-0.102-0.271-0.355-0.896-0.762-1.879
			c-0.034-0.067-0.051-0.118-0.051-0.152l0.609-0.254c0.102,0.203,0.254,0.542,0.457,1.016c0.203,0.475,0.355,0.83,0.457,1.066
			l-0.66,0.203h4.012v0.66h-3.758v3.352h3.352v0.66h-3.352v3.859h4.164v0.66h-9.445v-0.66h4.57v-3.859h-3.352V166.361z"/>
		<path fill="#335059" d="M400.114,165.346h1.473v-4.57h3.859v4.57h1.625v-4.57h3.961v4.57h1.371v0.66h-1.371v4.773
			c0.033,0.846-0.39,1.252-1.27,1.219c-0.44,0.033-0.863,0.051-1.27,0.051c0-0.068-0.018-0.187-0.051-0.355
			c-0.034-0.17-0.068-0.288-0.102-0.355c0.169,0,0.389,0.017,0.66,0.051c0.236,0,0.423,0,0.559,0
			c0.575,0.033,0.846-0.203,0.813-0.711v-4.672h-2.59c-0.034,1.727-0.136,2.979-0.305,3.758c-0.17,0.779-0.542,1.607-1.117,2.488
			c-0.203-0.17-0.406-0.305-0.609-0.406c0.575-0.813,0.931-1.591,1.066-2.336c0.169-0.711,0.254-1.879,0.254-3.504h-1.625v4.52
			c0.033,0.744-0.355,1.134-1.168,1.168c-0.271,0-0.66,0-1.168,0c0-0.068-0.018-0.187-0.051-0.355
			c-0.034-0.17-0.068-0.288-0.102-0.355c0.305,0.033,0.643,0.051,1.016,0.051c0.541,0.033,0.795-0.187,0.762-0.66v-4.367h-2.438
			c-0.034,1.693-0.136,2.929-0.305,3.707c-0.17,0.813-0.508,1.658-1.016,2.539c-0.102-0.068-0.254-0.17-0.457-0.305
			c-0.068-0.034-0.119-0.068-0.152-0.102c0.508-0.847,0.829-1.625,0.965-2.336c0.169-0.744,0.254-1.912,0.254-3.504h-1.473V165.346z
			 M402.298,161.436v3.91h2.438v-3.91H402.298z M407.782,161.436v3.91h2.59v-3.91H407.782z"/>
		<path fill="#335059" d="M415.552,164.33v5.332c0.271-0.236,0.693-0.592,1.27-1.066c0.474-0.406,0.813-0.693,1.016-0.863
			c0,0.17,0.051,0.406,0.152,0.711c-0.271,0.237-0.711,0.609-1.32,1.117c-0.542,0.44-0.932,0.762-1.168,0.965
			c-0.136,0.102-0.305,0.237-0.508,0.406l-0.508-0.406c0.236-0.271,0.355-0.609,0.355-1.016v-4.57h-1.727v-0.609H415.552z
			 M416.313,162.959c-0.475-0.575-1.135-1.27-1.98-2.082l0.559-0.457c0.643,0.644,1.32,1.32,2.031,2.031L416.313,162.959z
			 M420.681,160.268h0.711c0,1.05-0.018,1.862-0.051,2.438c0.439,4.367,1.794,7.229,4.063,8.582c-0.203,0.203-0.39,0.423-0.559,0.66
			c-2.065-1.455-3.301-3.842-3.707-7.16c-0.271,3.183-1.574,5.654-3.91,7.414c-0.068-0.068-0.152-0.17-0.254-0.305
			c-0.136-0.136-0.237-0.237-0.305-0.305c2.641-1.828,3.961-4.621,3.961-8.379C420.663,162.536,420.681,161.555,420.681,160.268z"/>
		<path fill="#335059" d="M428.349,169.611c0.372-0.372,0.863-0.863,1.473-1.473c0,0.102,0.033,0.322,0.102,0.66
			c0.033,0.034,0.051,0.068,0.051,0.102c-0.237,0.237-0.644,0.644-1.219,1.219c-0.44,0.44-0.745,0.744-0.914,0.914l-0.559-0.457
			c0.271-0.338,0.389-0.778,0.355-1.32v-4.215h-1.523v-0.66h2.234V169.611z M427.536,160.572c0.508,0.475,1.134,1.117,1.879,1.93
			l-0.559,0.457c-0.576-0.643-1.202-1.303-1.879-1.98L427.536,160.572z M430.024,161.537v-0.66h8.176v0.66h-3.402v4.012h2.945v0.66
			h-2.945v4.723h3.605v0.609h-9.09v-0.609h1.777v-6.957h0.66v6.957h2.336v-9.395H430.024z"/>
		<path fill="#335059" d="M439.317,171.389l-0.203-0.609c2.234-0.338,4.248-0.66,6.043-0.965c0,0.203,0,0.424,0,0.66
			C443.329,170.678,441.382,170.982,439.317,171.389z M439.267,162.4h6.855c0-0.88,0-1.625,0-2.234h0.66
			c0,0.576,0.017,1.32,0.051,2.234h4.469v0.66h-4.469c0.033,0.102,0.051,0.271,0.051,0.508c0.033,0.237,0.051,0.424,0.051,0.559
			c0.102,1.862,0.338,3.386,0.711,4.57c0.846-1.15,1.54-2.488,2.082-4.012l0.711,0.254c-0.745,1.862-1.574,3.369-2.488,4.52
			c0.305,0.644,0.643,1.135,1.016,1.473c0.338,0.338,0.66,0.508,0.965,0.508s0.508-0.221,0.609-0.66
			c0.169-0.744,0.271-1.337,0.305-1.777c0.033,0.034,0.102,0.068,0.203,0.102c0.102,0.034,0.254,0.085,0.457,0.152
			c-0.136,0.982-0.271,1.642-0.406,1.98c-0.17,0.609-0.525,0.931-1.066,0.965c-0.508,0-0.999-0.221-1.473-0.66
			c-0.475-0.475-0.847-0.965-1.117-1.473c-0.711,0.711-1.541,1.438-2.488,2.184c-0.034-0.034-0.102-0.119-0.203-0.254
			c-0.136-0.136-0.237-0.237-0.305-0.305c1.049-0.678,1.946-1.455,2.691-2.336c-0.44-1.32-0.745-3.029-0.914-5.129
			c0-0.135,0-0.338,0-0.609c-0.034-0.236-0.051-0.423-0.051-0.559h-6.906V162.4z M440.231,164.584h4.266v4.012h-4.266V164.584z
			 M440.892,165.193v2.793h2.945v-2.793H440.892z M448.052,160.725l0.355-0.508c0.271,0.136,0.677,0.373,1.219,0.711
			c0.271,0.203,0.49,0.355,0.66,0.457l-0.457,0.559c-0.339-0.236-0.813-0.559-1.422-0.965
			C448.237,160.877,448.119,160.793,448.052,160.725z"/>
		<path fill="#335059" d="M463.235,167.377c-0.305-0.305-0.609-0.609-0.914-0.914c-0.271,0-0.66,0.018-1.168,0.051
			c-0.508,0-0.897,0.018-1.168,0.051v3.809c-0.034,0.711,0.305,1.049,1.016,1.016h1.168c0.813,0,1.27-0.271,1.371-0.813
			c0.033-0.135,0.067-0.423,0.102-0.863c0.033-0.236,0.051-0.406,0.051-0.508c0.203,0.102,0.439,0.187,0.711,0.254
			c-0.068,0.542-0.136,0.982-0.203,1.32c-0.102,0.88-0.779,1.286-2.031,1.219h-1.32c-1.117,0.033-1.643-0.44-1.574-1.422v-4.012
			c-0.271,0-0.66,0.018-1.168,0.051c-0.475,0-0.813,0-1.016,0c-0.034,1.727-0.339,2.929-0.914,3.605
			c-0.542,0.711-1.71,1.388-3.504,2.031c-0.102-0.203-0.254-0.406-0.457-0.609c1.692-0.542,2.793-1.117,3.301-1.727
			c0.541-0.609,0.829-1.692,0.863-3.25c-0.17,0-0.406,0.018-0.711,0.051c-0.271,0-0.475,0-0.609,0c-0.576,0-1.016,0.034-1.32,0.102
			l-0.406-0.711c0.305-0.102,0.66-0.321,1.066-0.66c1.185-0.947,2.166-1.896,2.945-2.844h-4.926v-0.66h5.789
			c-0.17-0.643-0.339-1.185-0.508-1.625l0.66-0.152c0.067,0.136,0.169,0.44,0.305,0.914c0.102,0.406,0.186,0.694,0.254,0.863h5.281
			v0.66h-6.551l0.508,0.254c-0.914,0.948-2.082,2.031-3.504,3.25c2.979-0.067,5.332-0.152,7.059-0.254
			c-0.609-0.575-1.202-1.117-1.777-1.625l0.508-0.457c0.981,0.881,2.099,1.913,3.352,3.098L463.235,167.377z"/>
		<path fill="#335059" d="M465.368,166.818c-0.102-0.203-0.237-0.406-0.406-0.609c1.185-1.727,2.149-3.74,2.895-6.043l0.66,0.152
			c-0.406,1.151-0.83,2.234-1.27,3.25v8.633h-0.66v-7.313C466.181,165.566,465.774,166.209,465.368,166.818z M472.478,160.166h0.711
			v1.27h3.961v0.609h-3.961v1.422h3.047v7.77h1.168v0.609h-9.191v-0.609h1.27v-7.77h2.996v-1.422h-3.707v-0.609h3.707V160.166z
			 M470.142,164.025v1.422h5.383v-1.422H470.142z M470.142,166.006v1.371h5.383v-1.371H470.142z M470.142,167.986v1.371h5.383
			v-1.371H470.142z M470.142,169.916v1.32h5.383v-1.32H470.142z"/>
	</g>
</g>
</svg>
