<?xml version="1.0" encoding="utf-8"?>
<!-- Generator: Adobe Illustrator 17.0.0, SVG Export Plug-In . SVG Version: 6.00 Build 0)  -->
<!DOCTYPE svg PUBLIC "-//W3C//DTD SVG 1.1//EN" "http://www.w3.org/Graphics/SVG/1.1/DTD/svg11.dtd">
<svg version="1.1" id="图层_1" xmlns="http://www.w3.org/2000/svg" xmlns:xlink="http://www.w3.org/1999/xlink" x="0px" y="0px"
	 width="40px" height="40px" viewBox="0 0 40 40" enable-background="new 0 0 40 40" xml:space="preserve">
<g>
	<path fill="#555555" d="M23.5,16.5v7h-7v-7H23.5 M25.5,14.5h-11v11h11V14.5L25.5,14.5z"/>
</g>
<g>
	<path fill="#555555" d="M38,16.5v7H2v-7H38 M40,14.5H0v11h40V14.5L40,14.5z"/>
</g>
<g>
	<path fill="#555555" d="M20.109,32.649c1.478,0,2.675,1.198,2.675,2.675S21.587,38,20.109,38c-1.478,0-2.675-1.198-2.675-2.675
		S18.631,32.649,20.109,32.649 M20.109,30.649c-2.578,0-4.675,2.097-4.675,4.675S17.531,40,20.109,40s4.675-2.097,4.675-4.675
		S22.687,30.649,20.109,30.649L20.109,30.649z"/>
</g>
<g>
	<path fill="#555555" d="M20.109,1.952c1.478,0,2.675,1.198,2.675,2.675s-1.198,2.675-2.675,2.675c-1.478,0-2.675-1.198-2.675-2.675
		S18.631,1.952,20.109,1.952 M20.109-0.048c-2.578,0-4.675,2.097-4.675,4.675s2.097,4.675,4.675,4.675s4.675-2.097,4.675-4.675
		S22.687-0.048,20.109-0.048L20.109-0.048z"/>
</g>
<line fill="none" stroke="#555555" stroke-width="1.9762" stroke-miterlimit="10" x1="7.219" y1="4.628" x2="16.25" y2="4.628"/>
<line fill="none" stroke="#555555" stroke-width="1.9762" stroke-miterlimit="10" x1="22.784" y1="4.628" x2="31.816" y2="4.628"/>
<line fill="none" stroke="#555555" stroke-width="2.0208" stroke-miterlimit="10" x1="7.219" y1="35.325" x2="16.662" y2="35.325"/>
<line fill="none" stroke="#555555" stroke-width="2.0208" stroke-miterlimit="10" x1="23.494" y1="35.325" x2="32.938" y2="35.325"/>
<line fill="none" stroke="#555555" stroke-width="2" stroke-miterlimit="10" x1="20.109" y1="14.5" x2="20.109" y2="8.25"/>
<line fill="none" stroke="#555555" stroke-width="2" stroke-miterlimit="10" x1="20.109" y1="31" x2="20.109" y2="24.75"/>
<line fill="none" stroke="#555555" stroke-width="2.2526" stroke-miterlimit="10" x1="8.234" y1="14.958" x2="8.234" y2="3.641"/>
<line fill="none" stroke="#555555" stroke-width="2.2526" stroke-miterlimit="10" x1="31.779" y1="14.958" x2="31.779" y2="3.641"/>
<line fill="none" stroke="#555555" stroke-width="2.2526" stroke-miterlimit="10" x1="8.234" y1="35.708" x2="8.234" y2="24.391"/>
<line fill="none" stroke="#555555" stroke-width="2.2526" stroke-miterlimit="10" x1="31.779" y1="35.708" x2="31.779" y2="24.391"/>
</svg>
