<?xml version="1.0" encoding="utf-8"?>
<!-- Generator: Adobe Illustrator 16.0.0, SVG Export Plug-In . SVG Version: 6.00 Build 0)  -->
<!DOCTYPE svg PUBLIC "-//W3C//DTD SVG 1.1//EN" "http://www.w3.org/Graphics/SVG/1.1/DTD/svg11.dtd">
<svg version="1.1" id="图层_1" xmlns="http://www.w3.org/2000/svg" xmlns:xlink="http://www.w3.org/1999/xlink" x="0px" y="0px"
	 width="40px" height="40px" viewBox="0 0 40 40" enable-background="new 0 0 40 40" xml:space="preserve">
<g>
	<path fill-rule="evenodd" clip-rule="evenodd" fill="#555555" d="M1.26,38.991h37.481c0.76,0,1.259-0.5,1.259-1.259
		c0-0.62-0.619-1.259-1.259-1.259H2.5V2.269c0-0.64-0.62-1.259-1.239-1.259C0.5,1.01,0,1.509,0,2.269v35.603
		C0,38.491,0.621,38.991,1.26,38.991L1.26,38.991z"/>
	<path fill-rule="evenodd" clip-rule="evenodd" fill="#555555" d="M7.376,29.756c1.5,0,2.619-1.26,2.619-2.879
		c0-0.38-0.12-0.76-0.26-1.12l5.258-6.497c0.26,0.12,0.5,0.12,0.759,0.12c0.76,0,1.5-0.38,1.999-0.88l4.998,2.619
		c0,1.619,1.26,2.879,2.618,2.879c1.5,0,2.619-1.26,2.619-2.879V21l6.877-6.377c0.379,0.12,0.76,0.24,1.119,0.24
		c1.499,0,2.619-1.26,2.619-2.879s-1.26-2.878-2.619-2.878c-1.5,0-2.619,1.259-2.619,2.878c0,0.38,0,0.62,0.121,0.879l-6.498,5.997
		c-0.499-0.38-0.999-0.62-1.619-0.62c-0.759,0-1.379,0.26-1.879,0.88l-4.997-2.879c-0.12-1.5-1.259-2.619-2.619-2.619
		c-1.5,0-2.619,1.259-2.619,2.878c0,0.38,0.121,0.879,0.26,1.26l-5.118,6.376c-0.26-0.12-0.619-0.12-0.879-0.12
		c-1.5,0-2.619,1.259-2.619,2.878C4.618,28.376,5.877,29.735,7.376,29.756L7.376,29.756z"/>
</g>
</svg>
