<?xml version="1.0" encoding="utf-8"?>
<!-- Generator: Adobe Illustrator 16.0.0, SVG Export Plug-In . SVG Version: 6.00 Build 0)  -->
<!DOCTYPE svg PUBLIC "-//W3C//DTD SVG 1.1//EN" "http://www.w3.org/Graphics/SVG/1.1/DTD/svg11.dtd">
<svg version="1.1" id="图层_1" xmlns="http://www.w3.org/2000/svg" xmlns:xlink="http://www.w3.org/1999/xlink" x="0px" y="0px"
	 width="40px" height="40px" viewBox="0 0 40 40" enable-background="new 0 0 40 40" xml:space="preserve">
<g>
	<path fill-rule="evenodd" clip-rule="evenodd" fill="#555555" d="M7.386,15.835c0,1.326,1.074,2.4,2.4,2.4s2.4-1.075,2.4-2.4
		c0-1.325-1.075-2.399-2.4-2.399S7.386,14.511,7.386,15.835L7.386,15.835z"/>
	<path fill-rule="evenodd" clip-rule="evenodd" fill="#555555" d="M36.4,8.406h-0.285L35.86,8.534
		c-3.737,1.887-6.064,3.26-7.515,4.275V10.1c0-1.984-1.615-3.6-3.601-3.6H3.6C1.615,6.5,0,8.115,0,10.1v19.8
		c0,1.984,1.615,3.6,3.6,3.6h21.145c1.985,0,3.601-1.615,3.601-3.6v-2.711c1.45,1.015,3.775,2.388,7.515,4.275l0.255,0.128H36.4
		c1.985,0,3.6-1.615,3.6-3.6V12.005C40,10.021,38.386,8.406,36.4,8.406L36.4,8.406z M25.945,29.9c0,0.663-0.537,1.2-1.2,1.2l0,0H3.6
		c-0.661,0-1.2-0.538-1.2-1.2V10.1C2.4,9.439,2.939,8.9,3.6,8.9h21.145c0.663,0,1.2,0.539,1.2,1.199V29.9L25.945,29.9z
		 M37.601,27.994c-0.001,0.577-0.409,1.06-0.952,1.173c-3.557-1.808-7.533-4.146-8.303-5.024v-8.29
		c0.77-0.877,4.746-3.215,8.295-5.025c0.546,0.111,0.96,0.596,0.96,1.176V27.994L37.601,27.994L37.601,27.994z"/>
</g>
</svg>
