<?xml version="1.0" encoding="utf-8"?>
<!-- Generator: Adobe Illustrator 17.0.0, SVG Export Plug-In . SVG Version: 6.00 Build 0)  -->
<!DOCTYPE svg PUBLIC "-//W3C//DTD SVG 1.1//EN" "http://www.w3.org/Graphics/SVG/1.1/DTD/svg11.dtd">
<svg version="1.1" id="图层_1" xmlns="http://www.w3.org/2000/svg" xmlns:xlink="http://www.w3.org/1999/xlink" x="0px" y="0px"
	 width="40px" height="40px" viewBox="0 0 40 40" enable-background="new 0 0 40 40" xml:space="preserve">
<g>
	<path fill="#555555" d="M38,2v7H2V2H38 M40,0H0v11h40V0L40,0z"/>
</g>
<g>
	<path fill="#555555" d="M9,2v7H2V2H9 M11,0H0v11h11V0L11,0z"/>
</g>
<g>
	<path fill="#555555" d="M37.795,2v7h-7V2H37.795 M39.795,0h-11v11h11V0L39.795,0z"/>
</g>
<g>
	<path fill="#555555" d="M9,17.25v7H2v-7H9 M11,15.25H0v11h11V15.25L11,15.25z"/>
</g>
<g>
	<path fill="#555555" d="M37.795,17.25v7h-7v-7H37.795 M39.795,15.25h-11v11h11V15.25L39.795,15.25z"/>
</g>
<g>
	<path fill="#555555" d="M38,17.25v7H2v-7H38 M40,15.25H0v11h40V15.25L40,15.25z"/>
</g>
<g>
	<path fill="#555555" d="M20.109,32.649c1.478,0,2.675,1.198,2.675,2.675S21.587,38,20.109,38c-1.478,0-2.675-1.198-2.675-2.675
		S18.631,32.649,20.109,32.649 M20.109,30.649c-2.578,0-4.675,2.097-4.675,4.675S17.531,40,20.109,40s4.675-2.097,4.675-4.675
		S22.687,30.649,20.109,30.649L20.109,30.649z"/>
</g>
<line fill="none" stroke="#555555" stroke-width="2" stroke-miterlimit="10" x1="0" y1="35.325" x2="16.25" y2="35.325"/>
<line fill="none" stroke="#555555" stroke-width="2" stroke-miterlimit="10" x1="23.545" y1="35.325" x2="39.795" y2="35.325"/>
<line fill="none" stroke="#555555" stroke-width="2" stroke-miterlimit="10" x1="20" y1="31.25" x2="20" y2="25"/>
</svg>
