<?xml version="1.0" encoding="utf-8"?>
<!-- Generator: Adobe Illustrator 16.0.0, SVG Export Plug-In . SVG Version: 6.00 Build 0)  -->
<!DOCTYPE svg PUBLIC "-//W3C//DTD SVG 1.1//EN" "http://www.w3.org/Graphics/SVG/1.1/DTD/svg11.dtd">
<svg version="1.1" id="图层_1" xmlns="http://www.w3.org/2000/svg" xmlns:xlink="http://www.w3.org/1999/xlink" x="0px" y="0px"
	 width="40px" height="40px" viewBox="0 0 40 40" enable-background="new 0 0 40 40" xml:space="preserve">
<g>
	<rect x="15.628" y="7.5" fill="none" width="0" height="2.5"/>
	<path fill="none" d="M32.5,2.5h-10v10l-5-5l-5,5v-10h-10v30h30V2.5z M27.5,27.5h-20V25h20V27.5z M27.5,20h-20v-2.5h20V20z"/>
	<polygon fill="none" points="10,35 10,37.5 37.5,37.5 37.5,10 35,10 35,35 	"/>
	<rect x="7.5" y="17.5" fill="#555555" width="20" height="2.5"/>
	<rect x="7.5" y="25" fill="#555555" width="20" height="2.5"/>
	<rect x="15.628" y="7.5" fill="none" width="0" height="2.5"/>
	<polygon fill="none" points="10,35 10,37.5 37.5,37.5 37.5,10 35,10 35,35 	"/>
	<polygon fill="none" points="32.5,2.5 22.5,2.5 22.5,12.5 17.5,7.5 12.5,12.5 12.5,2.5 2.5,2.5 2.5,32.5 32.5,32.5 	"/>
	<polygon fill="none" points="32.5,2.5 22.5,2.5 22.5,12.5 17.5,7.5 12.5,12.5 12.5,2.5 2.5,2.5 2.5,32.5 32.5,32.5 	"/>
	<rect x="15.628" y="7.5" fill="none" width="0" height="2.5"/>
	<path fill="none" d="M34.996,33.534c0,0.006,0.002,0.011,0.002,0.017c0,0.8-0.648,1.449-1.449,1.449H10v2.5h27.5V10H35v23.529
		L34.996,33.534z"/>
	<polygon fill="none" points="32.5,2.5 22.5,2.5 22.5,12.5 17.5,7.5 12.5,12.5 12.5,2.5 2.5,2.5 2.5,32.5 32.5,32.5 	"/>
	<path fill="none" d="M34.996,33.534c0,0.006,0.002,0.011,0.002,0.017c0,0.8-0.648,1.449-1.449,1.449H10v2.5h27.5V10H35v23.529
		L34.996,33.534z"/>
	<rect x="15.628" y="7.5" fill="none" width="0" height="2.5"/>
	<polygon fill="none" points="32.5,2.5 22.5,2.5 22.5,12.5 17.5,7.5 12.5,12.5 12.5,2.5 2.5,2.5 2.5,32.5 32.5,32.5 	"/>
	<rect x="15.628" y="7.5" fill="none" width="0" height="2.5"/>
	<path fill="none" d="M34.996,33.534c0,0.006,0.002,0.011,0.002,0.017c0,0.8-0.648,1.449-1.449,1.449H10v2.5h27.5V10H35v23.529
		L34.996,33.534z"/>
	<path fill="#555555" d="M38.55,7.5H37.5H35V10h2.5v27.5H10V35h23.549c0.801,0,1.449-0.648,1.449-1.449
		c0-0.006-0.002-0.011-0.002-0.017L35,33.529V10l0,0V7.5l0,0V1.45l-0.002-0.002C34.997,0.648,34.349,0,33.549,0h-0.383H1.45
		C0.649,0,0,0.649,0,1.45v32.088c0,0.805,0.652,1.458,1.457,1.459L1.459,35H7.5v2.5v1.05C7.5,39.351,8.149,40,8.95,40h29.6
		c0.801,0,1.45-0.649,1.45-1.45V37.5V8.95C40,8.149,39.351,7.5,38.55,7.5z M2.5,32.5v-30h10v10l5-5l5,5v-10h10v30H2.5z"/>
</g>
</svg>
