<?xml version="1.0" encoding="utf-8"?>
<!-- Generator: Adobe Illustrator 16.0.0, SVG Export Plug-In . SVG Version: 6.00 Build 0)  -->
<!DOCTYPE svg PUBLIC "-//W3C//DTD SVG 1.1//EN" "http://www.w3.org/Graphics/SVG/1.1/DTD/svg11.dtd">
<svg version="1.1" id="图层_1" xmlns="http://www.w3.org/2000/svg" xmlns:xlink="http://www.w3.org/1999/xlink" x="0px" y="0px"
	 width="40px" height="40px" viewBox="0 0 40 40" enable-background="new 0 0 40 40" xml:space="preserve">
<g>
	<path fill-rule="evenodd" clip-rule="evenodd" fill="#555555" d="M2.425,7c0-2.661,0.931-3.714,3.636-3.714h4.848V0.809H4.848
		C0.814,0.809,0.022,1.758,0,5.761v6.19h2.425V7L2.425,7z M2.425,33v-6.19H0v7.429c0,4.003,0.811,4.952,4.848,4.952h6.061v-2.474
		l-4.848-0.003C3.355,36.714,2.425,35.661,2.425,33L2.425,33L2.425,33z M33.89,19.375c0-7.5-5.965-13.58-13.324-13.58
		c-7.358,0-13.324,6.08-13.324,13.581s5.965,13.581,13.324,13.581C27.925,32.957,33.89,26.876,33.89,19.375L33.89,19.375
		L33.89,19.375z M21.86,30.691v-3.904h-2.485v3.916c-5.19-0.565-9.315-4.778-9.878-10.085h3.812v-2.489H9.498
		c0.564-5.305,4.688-9.516,9.877-10.081v3.916h2.485V8.061c5.14,0.609,9.214,4.799,9.774,10.069h-3.712v2.489h3.712
		C31.076,25.89,27.002,30.083,21.86,30.691L21.86,30.691L21.86,30.691z M35.149,0.809h-6.061v2.476h4.849
		C36.636,3.279,37.534,4.306,37.573,7v4.952h2.424v-6.19C40.058,1.757,39.198,0.809,35.149,0.809L35.149,0.809L35.149,0.809z
		 M37.573,33c0.05,2.662-0.708,3.734-3.681,3.731l-4.804-0.003v2.463h6.061c4.038,0,4.848-0.949,4.848-4.952V26.81h-2.424V33
		L37.573,33L37.573,33z"/>
</g>
</svg>
