<?xml version="1.0" encoding="utf-8"?>
<!-- Generator: Adobe Illustrator 16.0.0, SVG Export Plug-In . SVG Version: 6.00 Build 0)  -->
<!DOCTYPE svg PUBLIC "-//W3C//DTD SVG 1.1//EN" "http://www.w3.org/Graphics/SVG/1.1/DTD/svg11.dtd">
<svg version="1.1" id="图层_1" xmlns="http://www.w3.org/2000/svg" xmlns:xlink="http://www.w3.org/1999/xlink" x="0px" y="0px"
	 width="40px" height="40px" viewBox="0 0 40 40" enable-background="new 0 0 40 40" xml:space="preserve">
<g>
	<path fill-rule="evenodd" clip-rule="evenodd" fill="#555555" d="M20.785,0.064c-0.631-0.145-1.307-0.05-1.788,0.341
		c-1.307,1.012-2.418,1.933-3.385,2.899c-3.19,3.095-4.687,6.43-5.028,11.122c-0.095,1.257-0.05,2.754,0.195,4.352l-3.334,4.401
		c-0.341,0.436-0.486,0.967-0.436,1.498c0,0.095,0.291,2.128,0.726,4.206c0.436,1.983,1.307,5.754,4.061,5.513
		c0.531-0.05,0.966-0.29,1.257-0.581c0.341-0.34,0.581-0.871,0.581-1.352c0.051-0.631,0.241-1.983,0.771-3.285
		c0.24,0.146,0.631,0.241,0.917,0.241l9.139-0.05c0.341,0.05,0.771,0,1.162-0.195c0.29,1.062,0.435,2.173,0.435,2.659
		c0,1.062,0.918,1.983,1.934,2.028c0.727,0.05,1.453-0.29,1.983-0.821c1.548-1.547,2.563-6.235,2.999-8.894
		c0.096-0.581-0.05-1.112-0.385-1.547l-3.285-4.447c0.05-0.531,0.095-1.062,0.195-1.643c0.58-6.865-1.788-10.977-3.821-13.2
		C23.443,0.886,21.025,0.115,20.785,0.064L20.785,0.064z M27.455,16.309c-0.096,0.872-0.146,1.692-0.24,2.368l3.82,5.078
		c0,0-1.062,6.479-2.419,7.832c-0.146,0.146-0.341,0.241-0.485,0.195c0,0-0.051-4.111-2.174-6.234
		c-0.29,0.871-0.631,1.307-0.82,1.498c-0.291,0.29-0.531,0.24-0.531,0.24h-9.284c0,0-0.341-0.726-0.726-1.888l-0.581,0.582
		c-2.224,2.223-2.419,6.379-2.419,6.379c-1.547,0.095-2.609-7.927-2.609-7.927l3.866-5.123c-0.291-1.547-0.436-3.24-0.34-4.687
		c0.34-4.207,1.547-7.061,4.401-9.91c0.871-0.872,1.933-1.743,3.145-2.659C20.159,2.047,28.421,4.416,27.455,16.309L27.455,16.309z"
		/>
	<path fill-rule="evenodd" clip-rule="evenodd" fill="#555555" d="M21.511,32.794v6.189c0,0.581,0.436,1.017,1.017,1.017
		c0.58,0,1.017-0.436,1.017-1.017v-6.189c0-0.581-0.437-1.017-1.017-1.017C21.991,31.732,21.511,32.213,21.511,32.794L21.511,32.794
		z M17.69,31.777c-0.581,0-1.017,0.436-1.017,1.017v6.189c0,0.581,0.436,1.017,1.017,1.017s1.017-0.436,1.017-1.017v-6.189
		C18.707,32.213,18.221,31.732,17.69,31.777L17.69,31.777z"/>
</g>
</svg>
