<?xml version="1.0" encoding="utf-8"?>
<!-- Generator: Adobe Illustrator 16.0.0, SVG Export Plug-In . SVG Version: 6.00 Build 0)  -->
<!DOCTYPE svg PUBLIC "-//W3C//DTD SVG 1.1//EN" "http://www.w3.org/Graphics/SVG/1.1/DTD/svg11.dtd">
<svg version="1.1" id="图层_1" xmlns="http://www.w3.org/2000/svg" xmlns:xlink="http://www.w3.org/1999/xlink" x="0px" y="0px"
	 width="40px" height="40px" viewBox="0 0 40 40" enable-background="new 0 0 40 40" xml:space="preserve">
<g>
	<path fill-rule="evenodd" clip-rule="evenodd" fill="#555555" d="M36.363,1.974H3.636C1.628,1.974,0,3.603,0,5.61v21.818
		c0,2.009,1.628,3.637,3.636,3.637h9.858c0.156,0.269,0.348,0.522,0.578,0.752l3.356,5.143c1.42,1.42,3.723,1.42,5.142,0
		l3.357-5.143c0.23-0.23,0.422-0.484,0.578-0.752h9.857c2.009,0,3.637-1.628,3.637-3.637V5.61C40,3.602,38.372,1.974,36.363,1.974
		L36.363,1.974L36.363,1.974z M37.126,26.363c0,1.074-0.853,1.944-1.903,1.944h-9.808l-3.974,5.886c-0.743,0.76-1.948,0.76-2.691,0
		l-3.974-5.886H4.777c-1.052,0-1.903-0.87-1.903-1.944V6.92c0-1.075,0.851-1.944,1.903-1.944h30.445c1.052,0,1.903,0.87,1.903,1.944
		V26.363L37.126,26.363L37.126,26.363z"/>
	<path fill-rule="evenodd" clip-rule="evenodd" fill="#555555" d="M37.873,26.646"/>
	<circle fill-rule="evenodd" clip-rule="evenodd" fill="#555555" cx="10.289" cy="16.801" r="1.957"/>
	<circle fill-rule="evenodd" clip-rule="evenodd" fill="#555555" cx="20" cy="16.801" r="1.957"/>
	<circle fill-rule="evenodd" clip-rule="evenodd" fill="#555555" cx="29.711" cy="16.801" r="1.957"/>
</g>
</svg>
